<svg width="224" height="32" viewBox="0 0 224 32" fill="none" xmlns="http://www.w3.org/2000/svg">
<path d="M16.8877 1.97397C17.0733 1.61018 17.5931 1.61018 17.7786 1.97397L21.5104 9.29154L21.9558 9.06438L21.5104 9.29154C21.7326 9.7273 22.1534 10.0273 22.6378 10.0955L30.927 11.2611C31.3422 11.3195 31.5055 11.8322 31.2005 12.1199L25.2448 17.738C24.8772 18.0848 24.7089 18.5933 24.7971 19.0909L26.2088 27.056C26.2808 27.4622 25.8574 27.776 25.4897 27.5889L18.0133 23.7851C17.586 23.5676 17.0804 23.5676 16.653 23.7851L9.17662 27.5889C8.80887 27.776 8.38555 27.4622 8.45756 27.056L9.8692 19.0909C9.95739 18.5933 9.7891 18.0848 9.42151 17.738L3.46581 12.1199C3.16082 11.8322 3.32409 11.3195 3.73928 11.2611L12.0285 10.0955C12.5129 10.0273 12.9337 9.7273 13.1559 9.29154L16.8877 1.97397Z" fill="#F1C644" stroke="#F1C644"/>
<path d="M63.9541 1.97397C64.1397 1.61018 64.6595 1.61018 64.845 1.97397L68.5768 9.29154L69.0222 9.06438L68.5768 9.29154C68.799 9.7273 69.2198 10.0273 69.7042 10.0955L77.9934 11.2611C78.4086 11.3195 78.5719 11.8322 78.2669 12.1199L72.3112 17.738C71.9436 18.0848 71.7753 18.5933 71.8635 19.0909L73.2752 27.056C73.3472 27.4622 72.9238 27.776 72.5561 27.5889L65.0797 23.7851C64.6524 23.5676 64.1468 23.5676 63.7194 23.7851L56.243 27.5889C55.8753 27.776 55.452 27.4622 55.524 27.056L56.9356 19.0909C57.0238 18.5933 56.8555 18.0848 56.4879 17.738L50.5322 12.1199C50.2272 11.8322 50.3905 11.3195 50.8057 11.2611L59.0949 10.0955C59.5793 10.0273 60.0001 9.7273 60.2223 9.29154L63.9541 1.97397Z" fill="#F1C644" stroke="#F1C644"/>
<path d="M111.552 2.03827C111.735 1.66665 112.265 1.66665 112.448 2.03827L116.021 9.27772C116.24 9.72043 116.662 10.0273 117.151 10.0983L125.14 11.2592C125.55 11.3188 125.714 11.8228 125.417 12.112L119.636 17.7471C119.282 18.0918 119.121 18.5883 119.205 19.0748L120.569 27.0318C120.639 27.4402 120.211 27.7517 119.844 27.5589L112.698 23.8021C112.261 23.5724 111.739 23.5724 111.302 23.8021L104.156 27.5589C103.789 27.7517 103.361 27.4402 103.431 27.0318L104.795 19.0748C104.879 18.5883 104.718 18.0918 104.364 17.7471L98.5831 12.112C98.2863 11.8228 98.45 11.3188 98.8602 11.2592L106.849 10.0983C107.338 10.0273 107.76 9.72043 107.979 9.27771L111.552 2.03827Z" fill="#F1C644" stroke="#F1C644"/>
<path d="M159.154 1.97397C159.34 1.61018 159.86 1.61018 160.045 1.97397L163.777 9.29154L164.222 9.06438L163.777 9.29154C163.999 9.7273 164.42 10.0273 164.904 10.0955L173.194 11.2611C173.609 11.3195 173.772 11.8322 173.467 12.1199L167.511 17.738C167.144 18.0848 166.976 18.5933 167.064 19.0909L168.475 27.056C168.547 27.4622 168.124 27.776 167.756 27.5889L160.28 23.7851C159.853 23.5676 159.347 23.5676 158.92 23.7851L151.443 27.5889C151.075 27.776 150.652 27.4622 150.724 27.056L152.136 19.0909C152.224 18.5933 152.056 18.0848 151.688 17.738L145.732 12.1199C145.427 11.8322 145.591 11.3195 146.006 11.2611L154.295 10.0955C154.78 10.0273 155.2 9.7273 155.423 9.29154L159.154 1.97397Z" fill="#F1C644" stroke="#F1C644"/>
<path d="M206.221 1.97397C206.406 1.61018 206.926 1.61018 207.112 1.97397L210.843 9.29154L211.289 9.06438L210.843 9.29154C211.066 9.7273 211.486 10.0273 211.971 10.0955L220.26 11.2611C220.675 11.3195 220.838 11.8322 220.534 12.1199L214.578 17.738C214.21 18.0848 214.042 18.5933 214.13 19.0909L215.542 27.056C215.614 27.4622 215.19 27.776 214.823 27.5889L207.346 23.7851C206.919 23.5676 206.413 23.5676 205.986 23.7851L198.51 27.5889C198.142 27.776 197.719 27.4622 197.791 27.056L199.202 19.0909C199.29 18.5933 199.122 18.0848 198.755 17.738L192.799 12.1199C192.494 11.8322 192.657 11.3195 193.072 11.2611L201.362 10.0955C201.846 10.0273 202.267 9.7273 202.489 9.29154L206.221 1.97397Z" fill="url(#paint0_linear)" stroke="#F1C644"/>
<defs>
<linearGradient id="paint0_linear" x1="190.133" y1="16" x2="223.2" y2="16" gradientUnits="userSpaceOnUse">
<stop stop-color="#F1C644"/>
<stop offset="0.5" stop-color="#F1C644"/>
<stop offset="0.5" stop-color="#F1C644" stop-opacity="0"/>
<stop offset="1" stop-color="#F1C644" stop-opacity="0"/>
</linearGradient>
</defs>
</svg>
