<svg width="184" height="123" viewBox="0 0 184 123" fill="none" xmlns="http://www.w3.org/2000/svg">
<path d="M90.1843 21.7771H51.0439C39.7899 21.7771 30.6667 30.8951 30.6667 42.1427C30.6667 53.3903 39.7899 62.5082 51.0439 62.5082H90.1843C101.438 62.5082 110.561 53.3903 110.561 42.1427C110.561 30.8951 101.438 21.7771 90.1843 21.7771Z" stroke="#B2B2B2" stroke-width="4"/>
<path d="M89.7807 59.2821C99.2519 59.2821 106.93 51.6086 106.93 42.1428C106.93 32.677 99.2519 25.0034 89.7807 25.0034C80.3095 25.0034 72.6316 32.677 72.6316 42.1428C72.6316 51.6086 80.3095 59.2821 89.7807 59.2821Z" fill="#B2B2B2"/>
<path d="M145.236 59.2819H136.641L123.932 36.9814V59.2819H115.288V23.4436H123.932L136.616 45.7442V23.4436H145.236V59.2819Z" fill="#B2B2B2"/>
<path d="M92.5547 31.4558C95.1699 32.1415 97.4489 33.7722 98.9645 36.0423C100.48 38.3124 101.129 41.0659 100.789 43.7869C100.448 46.5078 99.1424 49.0093 97.116 50.8225C95.0896 52.6356 92.4813 53.6361 89.7806 53.6361C87.0799 53.6361 84.4716 52.6356 82.4452 50.8225C80.4188 49.0093 79.1131 46.5078 78.7725 43.7869C78.4323 41.0659 79.0808 38.3124 80.5968 36.0423C82.1123 33.7722 84.3914 32.1415 87.0065 31.4558" stroke="#F3F3F3" stroke-width="5" stroke-linecap="round" stroke-linejoin="round"/>
<path d="M89.7808 29.6409V34.8835" stroke="#F3F3F3" stroke-width="5" stroke-linecap="round"/>
<path d="M46.2894 70.8855L52.8847 91.4313L59.4599 70.8855H68.8358V100.416H61.6925V93.5203L62.3825 79.404L55.2388 100.416H50.531L43.3671 79.3838L44.0571 93.5203V100.416H36.9341V70.8855H46.2894ZM91.7067 87.9022H80.5045V94.9403H93.7359V100.416H73.3813V70.8855H93.7767V76.3822H80.5045V82.6088H91.7067V87.9022ZM121.315 100.416H114.233L103.761 82.041V100.416H96.638V70.8855H103.761L114.212 89.2613V70.8855H121.315V100.416ZM148.996 70.8855V90.2146C148.996 92.4049 148.529 94.3047 147.595 95.9138C146.662 97.5092 145.323 98.7262 143.577 99.5647C141.832 100.403 139.769 100.822 137.388 100.822C133.789 100.822 130.955 99.8889 128.885 98.0229C126.815 96.157 125.76 93.6018 125.719 90.3566V70.8855H132.882V90.4986C132.964 93.73 134.465 95.346 137.388 95.346C138.862 95.346 139.978 94.9403 140.736 94.1289C141.494 93.3175 141.873 91.9992 141.873 90.1739V70.8855H148.996Z" fill="#B2B2B2"/>
</svg>
