<svg width="302" height="77" viewBox="0 0 302 77" fill="none" xmlns="http://www.w3.org/2000/svg">
<path fill-rule="evenodd" clip-rule="evenodd" d="M36.4637 12.8324V6.88815C36.0369 5.94462 34.6113 4.26783 32.3234 5.10892L14.1402 16.5122L13.0731 17.4422C12.2621 17.9005 10.6401 19.7957 10.6401 23.71V57.9197C10.882 59.3755 12.2963 62.6428 16.0182 64.0662C19.213 65.288 22.3273 65.8424 25.5407 65.2057C26.1999 66.8139 27.6959 68.9671 30.5303 70.051C35.1829 71.8303 39.6646 72.1942 44.5306 69.5254L64.5491 55.2511C64.8194 55.0893 65.36 54.3534 65.36 52.7035V18.0085C65.1893 16.755 64.0711 14.5876 60.9637 15.9462L42.2256 29.1288C41.3434 29.7218 39.4854 30.9403 39.1096 31.0698C39.0321 31.0965 38.9162 31.1497 38.7687 31.2173C38.0234 31.5592 36.4731 32.2702 35.012 31.7975C33.262 31.2315 31.5973 30.544 31.2132 29.5331C30.8291 28.5221 31.7682 27.0664 32.7498 26.6216C33.5352 26.2658 42.5529 20.3 46.9635 17.3615C47.1485 17.2806 47.6294 17.1674 48.0732 17.3615C48.5172 17.5557 50.1932 18.4129 50.9757 18.8172V12.2396C50.7662 10.6914 49.3227 8.55871 46.6046 9.89665C46.5542 9.91727 46.5032 9.93883 46.4516 9.96137L27.7135 23.1438C26.8315 23.737 24.9733 24.9555 24.5977 25.0848C24.5201 25.1115 24.4041 25.1648 24.2565 25.2324C23.511 25.5743 21.9609 26.2853 20.5001 25.8127C18.7499 25.2465 17.0854 24.5592 16.7011 23.5482C16.317 22.5373 17.2561 21.0816 18.2379 20.6368C19.0232 20.281 28.0408 14.3151 32.4514 11.3767C32.6364 11.2958 33.1173 11.1826 33.5613 11.3767C34.0051 11.5708 35.6812 12.428 36.4637 12.8324Z" fill="#B2B2B2"/>
<path d="M79.95 17.75H110.255V27.595H107.395L105.25 20.115H91.17V36.56H101.785L103.27 31.775H105.305V43.16H103.27L101.785 38.98H91.17V56.635H106.24L108.385 49.21H111.3V59H79.95V56.965L85.395 55.7V21.105L79.95 19.785V17.75ZM133.366 17.75H142.606V55.81L147.281 56.965V59H137.711V52.73C136.391 57.2767 133.256 59.55 128.306 59.55C124.859 59.55 122.072 58.3583 119.946 55.975C117.856 53.5917 116.811 50.2183 116.811 45.855C116.811 41.455 117.856 38.0267 119.946 35.57C122.072 33.1133 124.841 31.885 128.251 31.885C130.707 31.885 132.742 32.4717 134.356 33.645C136.006 34.8183 137.051 36.3583 137.491 38.265V20.555L133.366 19.73V17.75ZM129.186 34.36C124.639 34.36 122.366 38.155 122.366 45.745C122.366 53.2983 124.657 57.075 129.241 57.075C131.697 57.075 133.714 56.0483 135.291 53.995C136.904 51.9417 137.711 49.1917 137.711 45.745C137.711 42.2983 136.904 39.5483 135.291 37.495C133.714 35.405 131.679 34.36 129.186 34.36ZM150.142 32.325H159.272V48.77C159.272 51.6667 159.639 53.72 160.372 54.93C161.142 56.14 162.389 56.745 164.112 56.745C166.679 56.745 168.695 55.535 170.162 53.115C171.629 50.695 172.362 46.9917 172.362 42.005V35.075L168.347 34.36V32.325H177.477V55.7L181.822 56.965V59H172.692V51.575C171.739 54.1783 170.4 56.1767 168.677 57.57C166.99 58.9267 165.139 59.605 163.122 59.605C157.109 59.605 154.102 56.305 154.102 49.705V35.075L150.142 34.36V32.325ZM213.104 43.82H211.069L209.529 39.64H198.969V55.755L204.414 56.965V59H187.694V56.965L193.194 55.7V21.105L187.749 19.785V17.75H218.054V27.595H215.194L213.049 20.115H198.969V37.165H209.529L211.069 32.49H213.104V43.82ZM246.423 49.705V55.975C244.333 58.3583 240.96 59.55 236.303 59.55C231.683 59.55 228.255 58.34 226.018 55.92C223.782 53.4633 222.663 50.0717 222.663 45.745C222.663 41.4183 223.837 38.0267 226.183 35.57C228.567 33.0767 231.757 31.83 235.753 31.83C238.137 31.83 240.117 32.27 241.693 33.15C243.307 34.03 244.462 35.2033 245.158 36.67C246.258 39.09 246.808 41.6383 246.808 44.315H228.163C228.163 48.4583 228.64 51.6117 229.593 53.775C230.693 56.2317 232.857 57.46 236.083 57.46C237.22 57.46 238.302 57.3133 239.328 57.02C240.392 56.69 241.162 56.3783 241.638 56.085C242.115 55.7917 242.353 55.6083 242.353 55.535L244.388 49.705H246.423ZM235.643 33.975C232.527 33.975 230.4 35.405 229.263 38.265C228.713 39.5483 228.383 40.96 228.273 42.5H242.023C242.023 36.8167 239.897 33.975 235.643 33.975ZM279.961 59H270.281V53.445C268.558 57.4783 265.533 59.495 261.206 59.495C258.31 59.495 256.11 58.8717 254.606 57.625C253.103 56.3417 252.351 54.5633 252.351 52.29C252.351 49.0633 253.763 46.7533 256.586 45.36C259.446 43.93 263.975 43.16 270.171 43.05V40.685C270.171 38.0817 269.64 36.3217 268.576 35.405C267.513 34.4517 265.936 33.975 263.846 33.975C261.756 33.975 259.941 34.4517 258.401 35.405L256.586 40.85H254.551V34.635C255.468 33.865 256.733 33.2233 258.346 32.71C259.96 32.16 261.72 31.885 263.626 31.885C267.513 31.885 270.428 32.6367 272.371 34.14C274.351 35.6067 275.341 38.2283 275.341 42.005V55.7L279.961 56.965V59ZM262.636 57.185C264.983 57.185 266.816 56.2867 268.136 54.49C269.493 52.6567 270.171 49.485 270.171 44.975C263.865 44.975 260.015 45.9467 258.621 47.89C257.961 48.8067 257.631 50.1633 257.631 51.96C257.631 53.7567 258.016 55.0767 258.786 55.92C259.593 56.7633 260.876 57.185 262.636 57.185ZM293.108 32.325H301.138V34.635H293.108V51.685C293.108 53.8483 293.365 55.3517 293.878 56.195C294.391 57.0017 295.216 57.405 296.353 57.405C297.49 57.405 299.03 57.13 300.973 56.58V58.615C298.406 59.3117 296.316 59.66 294.703 59.66C290.23 59.66 287.993 56.965 287.993 51.575V34.635H283.263V32.325H287.993V26.66L293.108 23.745V32.325Z" fill="#B2B2B2"/>
</svg>
