<svg width="364" height="199" viewBox="0 0 364 199" fill="none" xmlns="http://www.w3.org/2000/svg">
<g clip-path="url(#clip0)">
<path d="M14.4506 190.568C24.3867 197.726 37.263 198.085 49.7094 197.206C51.4474 197.083 53.173 196.94 54.8827 196.784C54.8931 196.782 54.9066 196.783 54.9171 196.78C54.9993 196.772 55.0816 196.764 55.1602 196.76C55.5131 196.727 55.8661 196.694 56.2157 196.66L56.1331 196.818L55.874 197.307C55.9671 197.143 56.0602 196.983 56.1533 196.819C56.1807 196.77 56.2114 196.721 56.2387 196.672C59.463 191.061 62.6609 185.244 63.4766 178.837C64.3198 172.187 61.9501 164.657 56.0973 161.388C55.3297 160.961 54.5168 160.621 53.6737 160.373C53.3237 160.267 52.9689 160.181 52.6101 160.104C50.415 159.617 48.1297 159.723 45.9892 160.412C43.8486 161.1 41.9302 162.346 40.431 164.022C38.9318 165.698 37.906 167.743 37.4591 169.947C37.0122 172.15 37.1603 174.433 37.8882 176.561C32.926 171.473 33.8517 163.218 35.5634 156.319C37.2784 149.421 39.3546 141.744 35.8664 135.548C33.9274 132.099 30.5175 129.959 26.6907 129.097C26.5733 129.072 26.4561 129.047 26.3384 129.025C21.779 128.101 17.0389 128.932 13.0651 131.351C5.74798 135.962 1.98983 144.704 0.770095 153.268C-1.19513 167.049 3.15394 182.429 14.4506 190.568Z" fill="#F1F1F1"/>
<path d="M17.6586 168.477C17.9471 171.516 18.6773 174.498 19.8262 177.327C20.885 179.83 22.3122 182.162 24.0603 184.243C27.6315 188.539 32.3535 191.769 37.4817 193.921C41.4029 195.527 45.5114 196.63 49.7094 197.206C51.4474 197.083 53.173 196.94 54.8827 196.784C54.8931 196.782 54.9066 196.783 54.9171 196.78C54.9993 196.772 55.0816 196.764 55.1602 196.76C55.5131 196.727 55.8661 196.694 56.2157 196.66L56.1331 196.818L55.874 197.307C55.9671 197.143 56.0602 196.983 56.1533 196.819C56.1807 196.77 56.2114 196.721 56.2386 196.672C53.0914 193.536 50.7416 189.692 49.3861 185.461C48.0306 181.23 47.709 176.736 48.4481 172.355C49.2215 168.005 51.012 163.9 53.6737 160.373C53.3236 160.267 52.9689 160.181 52.6101 160.104C51.5985 161.487 50.7112 162.957 49.9585 164.496C47.2578 169.985 46.3962 176.198 47.5012 182.215C48.5285 187.66 51.088 192.699 54.879 196.74C54.5471 196.716 54.2119 196.689 53.8839 196.659C47.671 196.133 41.4708 194.797 35.8357 192.062C31.0189 189.78 26.8371 186.349 23.6586 182.07C20.2458 177.363 18.7419 171.702 18.4836 165.948C18.2097 159.787 19.009 153.519 20.4149 147.528C21.8504 141.386 24.0322 135.443 26.9114 129.831C26.9758 129.704 26.9888 129.557 26.9477 129.42C26.9066 129.284 26.8146 129.168 26.6907 129.097C26.5874 129.028 26.4608 129.002 26.3384 129.025C26.2785 129.041 26.223 129.07 26.176 129.11C26.1289 129.151 26.0916 129.201 26.0667 129.258C25.7115 129.951 25.3629 130.645 25.0276 131.346C22.2349 137.189 20.1788 143.356 18.9066 149.706C17.6715 155.831 17.0123 162.239 17.6586 168.477Z" fill="white"/>
<path d="M143.649 198.927H0.375922C0.276189 198.927 0.18054 198.887 0.110018 198.817C0.0394964 198.746 -0.00012207 198.651 -0.00012207 198.551C-0.00012207 198.451 0.0394964 198.356 0.110018 198.285C0.18054 198.215 0.276189 198.175 0.375922 198.175H143.649C143.748 198.175 143.844 198.215 143.914 198.285C143.985 198.356 144.025 198.451 144.025 198.551C144.025 198.651 143.985 198.746 143.914 198.817C143.844 198.887 143.748 198.927 143.649 198.927Z" fill="#CBCBCB"/>
<path d="M100.641 97.9471L94.1624 66.2032L91.3166 42.7571L85.012 46.8357L85.8829 72.6733L95.9457 99.4435C95.6223 100.059 95.4894 100.758 95.5639 101.449C95.6383 102.141 95.9168 102.795 96.3639 103.328C96.811 103.861 97.4065 104.249 98.0747 104.443C98.7429 104.637 99.4537 104.627 100.117 104.416C100.779 104.205 101.364 103.801 101.797 103.256C102.23 102.712 102.491 102.051 102.548 101.357C102.604 100.664 102.452 99.9694 102.113 99.3621C101.773 98.7549 101.261 98.2624 100.641 97.9471V97.9471Z" fill="#FFB7B7"/>
<path d="M40.0498 100.402L41.843 68.053L41.2491 44.4424L49.584 47.5608L50.9754 73.2504L44.9125 101.199C45.322 101.762 45.5551 102.433 45.582 103.128C45.6089 103.824 45.4285 104.511 45.0637 105.104C44.6988 105.696 44.1661 106.166 43.5331 106.455C42.9002 106.744 42.1957 106.838 41.5091 106.726C40.8226 106.613 40.185 106.299 39.6776 105.823C39.1701 105.347 38.8156 104.731 38.6592 104.053C38.5027 103.375 38.5514 102.666 38.799 102.016C39.0467 101.366 39.4821 100.804 40.0498 100.402L40.0498 100.402Z" fill="#FFB7B7"/>
<path d="M57.5064 194.451L61.7651 194.45L63.7912 178.023L57.5056 178.024L57.5064 194.451Z" fill="#FFB7B7"/>
<path d="M56.4199 193.06L64.8072 193.06H64.8076C66.2251 193.06 67.5846 193.623 68.587 194.625C69.5894 195.628 70.1525 196.987 70.1526 198.405V198.579L56.4202 198.579L56.4199 193.06Z" fill="#2F2E41"/>
<path d="M73.6375 192.566L77.8461 193.217L82.3602 177.293L76.1487 176.332L73.6375 192.566Z" fill="#FFB7B7"/>
<path d="M72.7766 191.026L81.0653 192.308L81.0657 192.308C82.4665 192.525 83.7239 193.289 84.5613 194.433C85.3986 195.577 85.7472 197.006 85.5306 198.407L85.504 198.579L71.933 196.48L72.7766 191.026Z" fill="#2F2E41"/>
<path d="M56.2552 189.546L56.2332 189.427L40.8152 106.067C39.5913 99.3751 40.5675 92.4666 43.5978 86.3756L52.9297 67.7121L80.775 71.4844L84.0612 95.2462L95.7721 140.575L95.7605 140.612L80.7563 188.272L70.9228 188.919L79.6335 146.376L63.6838 110.149L64.8088 188.898L56.2552 189.546Z" fill="#2F2E41"/>
<path d="M81.4233 74.5255L81.2395 74.2375C81.2065 74.1856 77.8242 69.0897 68.62 72.4921C59.224 75.9661 51.9436 69.2564 51.8711 69.1882L51.8351 69.1542L49.7072 50.1883L47.1952 34.7918L55.1914 33.3889L59.1226 31.0303L74.7552 30.752L78.8689 33.9875L85.6228 34.7235L86.2411 48.7525L86.2383 48.7678L81.4233 74.5255Z" fill="#3CB9FF"/>
<path d="M83.6636 50.1095V38.0968L85.5628 34.6307L85.64 34.6283C87.1352 34.6841 88.5483 35.3261 89.5737 36.4156C91.484 38.3566 92.3494 41.5904 92.1459 46.0271L92.1421 46.1082L83.6636 50.1095Z" fill="#3CB9FF"/>
<path d="M50.56 48.8038L40.8799 47.6421L40.8723 47.5306C40.542 42.7034 41.3846 39.1201 43.3766 36.8806C45.1844 34.848 47.2559 34.7249 47.3432 34.7207L47.3991 34.7181L50.0195 37.1002L50.56 48.8038Z" fill="#3CB9FF"/>
<path d="M78.5819 25.9116H53.1095C52.5855 25.911 52.0832 25.7026 51.7127 25.3321C51.3422 24.9616 51.1338 24.4592 51.1332 23.9353V14.7125C51.1332 10.8105 52.6832 7.0683 55.4424 4.30917C58.2015 1.55004 61.9437 -2.47955e-05 65.8457 -2.47955e-05C69.7477 -2.47955e-05 73.4899 1.55004 76.249 4.30917C79.0081 7.0683 80.5582 10.8105 80.5582 14.7125V23.9353C80.5576 24.4592 80.3492 24.9616 79.9787 25.3321C79.6082 25.7026 79.1059 25.911 78.5819 25.9116Z" fill="#2F2E41"/>
<path d="M75.9018 20.208C78.7593 14.9807 76.8382 8.42674 71.6109 5.56925C66.3836 2.71176 59.8296 4.63286 56.9722 9.86015C54.1147 15.0874 56.0358 21.6414 61.2631 24.4989C66.4903 27.3564 73.0443 25.4353 75.9018 20.208Z" fill="#FFB7B7"/>
<path d="M76.6901 15.3712H62.449C62.1814 15.3709 61.9232 15.273 61.7226 15.0959C61.5221 14.9188 61.393 14.6747 61.3595 14.4092L61.1751 12.9343C61.1574 12.7925 61.094 12.6603 60.9946 12.5576C60.8952 12.4549 60.7651 12.3874 60.6239 12.3652C60.4827 12.3429 60.3381 12.3672 60.2119 12.4344C60.0858 12.5016 59.9849 12.6079 59.9245 12.7374L58.9909 14.7378C58.9021 14.9268 58.7614 15.0866 58.5853 15.1988C58.4092 15.3109 58.2048 15.3707 57.996 15.3712H55.8328C55.6798 15.3713 55.5284 15.3393 55.3885 15.2774C55.2485 15.2155 55.1231 15.1251 55.0201 15.0118C54.9172 14.8986 54.8391 14.7651 54.7908 14.6199C54.7425 14.4747 54.7251 14.321 54.7398 14.1686L55.5927 5.25939C55.611 5.06878 55.6784 4.88618 55.7884 4.72944C55.8984 4.57269 56.0471 4.44718 56.2202 4.36516C62.7421 1.3205 69.3559 1.32436 75.8779 4.37674C76.0433 4.4545 76.1867 4.57229 76.2952 4.71944C76.4037 4.86659 76.4738 5.03846 76.4991 5.2195L77.7768 14.1172C77.7993 14.273 77.7879 14.4318 77.7436 14.5828C77.6993 14.7338 77.623 14.8735 77.5199 14.9925C77.4168 15.1114 77.2894 15.2068 77.1462 15.2721C77.003 15.3375 76.8474 15.3713 76.69 15.3712L76.6901 15.3712Z" fill="#2F2E41"/>
<path d="M100.674 99.9746L100.142 99.4429L123.255 76.3301H168.045L190.643 53.2654H234.854L257.16 30.7863H360.992V31.5384H257.473L235.167 54.0175H190.959L168.361 77.0822H123.567L100.674 99.9746Z" fill="#DDDDDD"/>
<path d="M191.396 67.6878C199.08 67.6878 205.31 61.4585 205.31 53.7742C205.31 46.0899 199.08 39.8606 191.396 39.8606C183.712 39.8606 177.482 46.0899 177.482 53.7742C177.482 61.4585 183.712 67.6878 191.396 67.6878Z" fill="white"/>
<path d="M257.58 34.972C259.656 34.972 261.34 33.2884 261.34 31.2116C261.34 29.1348 259.656 27.4512 257.58 27.4512C255.503 27.4512 253.819 29.1348 253.819 31.2116C253.819 33.2884 255.503 34.972 257.58 34.972Z" fill="#CBCBCB"/>
<path d="M360.24 34.972C362.316 34.972 364 33.2884 364 31.2116C364 29.1348 362.316 27.4512 360.24 27.4512C358.163 27.4512 356.479 29.1348 356.479 31.2116C356.479 33.2884 358.163 34.972 360.24 34.972Z" fill="#CBCBCB"/>
<path d="M309.098 34.972C311.174 34.972 312.858 33.2884 312.858 31.2116C312.858 29.1348 311.174 27.4512 309.098 27.4512C307.021 27.4512 305.337 29.1348 305.337 31.2116C305.337 33.2884 307.021 34.972 309.098 34.972Z" fill="#CBCBCB"/>
<path d="M191.396 68.0639C188.57 68.0639 185.807 67.2258 183.457 65.6557C181.107 64.0855 179.275 61.8538 178.194 59.2427C177.112 56.6316 176.829 53.7584 177.381 50.9865C177.932 48.2146 179.293 45.6684 181.292 43.6699C183.29 41.6715 185.836 40.3105 188.608 39.7592C191.38 39.2078 194.253 39.4908 196.864 40.5723C199.475 41.6539 201.707 43.4854 203.277 45.8353C204.847 48.1853 205.686 50.948 205.686 53.7742C205.681 57.5628 204.174 61.1949 201.495 63.8738C198.817 66.5527 195.184 68.0596 191.396 68.0639ZM191.396 40.2367C188.718 40.2367 186.101 41.0306 183.875 42.5182C181.649 44.0057 179.913 46.12 178.889 48.5936C177.864 51.0673 177.596 53.7893 178.118 56.4153C178.641 59.0413 179.93 61.4535 181.823 63.3468C183.717 65.24 186.129 66.5293 188.755 67.0517C191.381 67.574 194.103 67.306 196.576 66.2813C199.05 65.2567 201.164 63.5216 202.652 61.2953C204.139 59.0691 204.933 56.4517 204.933 53.7742C204.929 50.1851 203.502 46.7441 200.964 44.2062C198.426 41.6683 194.985 40.2407 191.396 40.2367Z" fill="#3F3D56"/>
<path d="M191.396 63.7154C196.886 63.7154 201.337 59.2646 201.337 53.7742C201.337 48.2838 196.886 43.833 191.396 43.833C185.905 43.833 181.455 48.2838 181.455 53.7742C181.455 59.2646 185.905 63.7154 191.396 63.7154Z" fill="#3CB9FF"/>
<path d="M190.448 57.9709L187.473 54.145L189.203 52.7991L190.612 54.6106L195.372 49.5862L196.963 51.0942L190.448 57.9709Z" fill="white"/>
<path d="M122.956 90.6265C130.64 90.6265 136.869 84.3972 136.869 76.7129C136.869 69.0286 130.64 62.7993 122.956 62.7993C115.272 62.7993 109.042 69.0286 109.042 76.7129C109.042 84.3972 115.272 90.6265 122.956 90.6265Z" fill="white"/>
<path d="M122.956 91.0026C120.13 91.0026 117.367 90.1645 115.017 88.5943C112.667 87.0242 110.836 84.7924 109.754 82.1813C108.673 79.5702 108.39 76.6971 108.941 73.9251C109.492 71.1532 110.853 68.607 112.852 66.6086C114.85 64.6102 117.396 63.2492 120.168 62.6978C122.94 62.1465 125.813 62.4294 128.424 63.511C131.036 64.5925 133.267 66.4241 134.837 68.774C136.408 71.1239 137.246 73.8867 137.246 76.7129C137.241 80.5015 135.735 84.1336 133.056 86.8125C130.377 89.4914 126.745 90.9983 122.956 91.0026ZM122.956 63.1753C120.279 63.1753 117.661 63.9693 115.435 65.4568C113.209 66.9444 111.474 69.0586 110.449 71.5323C109.424 74.006 109.156 76.7279 109.679 79.354C110.201 81.98 111.49 84.3922 113.384 86.2854C115.277 88.1787 117.689 89.468 120.315 89.9904C122.941 90.5127 125.663 90.2446 128.137 89.22C130.61 88.1954 132.725 86.4602 134.212 84.234C135.7 82.0077 136.494 79.3904 136.494 76.7129C136.49 73.1238 135.062 69.6828 132.524 67.1449C129.986 64.607 126.545 63.1794 122.956 63.1753Z" fill="#3F3D56"/>
<path d="M122.956 86.6541C128.446 86.6541 132.897 82.2033 132.897 76.7129C132.897 71.2225 128.446 66.7717 122.956 66.7717C117.465 66.7717 113.015 71.2225 113.015 76.7129C113.015 82.2033 117.465 86.6541 122.956 86.6541Z" fill="#3CB9FF"/>
<path d="M122.009 80.9095L119.033 77.0837L120.764 75.7378L122.173 77.5492L126.932 72.5249L128.523 74.0328L122.009 80.9095Z" fill="white"/>
</g>
<defs>
<clipPath id="clip0">
<rect width="364" height="198.927" fill="white" transform="translate(-0.00012207)"/>
</clipPath>
</defs>
</svg>
