<svg width="296" height="269" viewBox="0 0 296 269" fill="none" xmlns="http://www.w3.org/2000/svg">
<g clip-path="url(#clip0)">
<g opacity="0.5">
<path opacity="0.5" d="M215.806 18.6101H82.8288V202.342H215.806V18.6101Z" fill="url(#paint0_linear)"/>
</g>
<path d="M214.114 19.9634H84.5203V199.635H214.114V19.9634Z" fill="white"/>
<path d="M181.631 15.2195H117.342V30.791H181.631V15.2195Z" fill="url(#paint1_linear)"/>
<path d="M149.487 -0.00012207C144.523 -0.00012207 140.5 4.12116 140.5 9.2034C140.5 14.2856 144.523 18.4069 149.487 18.4069C154.451 18.4069 158.474 14.2856 158.474 9.2034C158.474 4.12116 154.451 -0.00012207 149.487 -0.00012207ZM149.487 14.5123C148.432 14.5399 147.392 14.2522 146.501 13.6859C145.61 13.1195 144.908 12.3003 144.484 11.333C144.061 10.3657 143.936 9.29415 144.125 8.25534C144.314 7.21654 144.808 6.25766 145.545 5.50125C146.282 4.74484 147.227 4.22526 148.261 4.00891C149.294 3.79257 150.368 3.88929 151.347 4.28671C152.325 4.68413 153.162 5.3642 153.752 6.24C154.342 7.11581 154.657 8.14756 154.657 9.2034C154.674 10.5924 154.139 11.9312 153.169 12.9264C152.2 13.9215 150.876 14.4918 149.487 14.5123Z" fill="url(#paint2_linear)"/>
<path d="M180.955 15.2263H118.019V30.1144H180.955V15.2263Z" fill="#3CB9FF"/>
<path d="M149.487 0.676758C147.747 0.676758 146.046 1.19272 144.599 2.1594C143.152 3.12608 142.025 4.50006 141.359 6.10759C140.693 7.71512 140.519 9.48401 140.858 11.1906C141.198 12.8971 142.036 14.4647 143.266 15.695C144.496 16.9254 146.064 17.7632 147.77 18.1027C149.477 18.4421 151.246 18.2679 152.853 17.6021C154.461 16.9362 155.835 15.8086 156.801 14.3619C157.768 12.9151 158.284 11.2142 158.284 9.47425C158.284 7.14101 157.357 4.90333 155.707 3.25348C154.058 1.60363 151.82 0.676758 149.487 0.676758ZM149.487 14.5497C148.483 14.5497 147.502 14.252 146.667 13.6943C145.832 13.1366 145.182 12.344 144.798 11.4165C144.413 10.4891 144.313 9.46862 144.509 8.48407C144.705 7.49953 145.188 6.59516 145.898 5.88534C146.608 5.17552 147.512 4.69213 148.496 4.4963C149.481 4.30046 150.502 4.40097 151.429 4.78512C152.356 5.16927 153.149 5.81981 153.707 6.65446C154.264 7.48912 154.562 8.47041 154.562 9.47425C154.562 10.8203 154.027 12.1113 153.076 13.0631C152.124 14.015 150.833 14.5497 149.487 14.5497Z" fill="#3CB9FF"/>
<path d="M118.357 49.0629H90.6113V76.8088H118.357V49.0629Z" fill="url(#paint3_linear)"/>
<path d="M118.452 104.047H90.7063V131.793H118.452V104.047Z" fill="url(#paint4_linear)"/>
<path d="M118.547 158.355H90.8008V186.101H118.547V158.355Z" fill="url(#paint5_linear)"/>
<path d="M117.342 50.0779H91.6262V75.7936H117.342V50.0779Z" fill="#69F0AE"/>
<path d="M117.342 104.555H91.6262V130.27H117.342V104.555Z" fill="#3CB9FF"/>
<path d="M117.342 159.031H91.6262V184.747H117.342V159.031Z" fill="#3CB9FF"/>
<path d="M169.507 58.0159H134.26V60.4758H169.507V58.0159Z" fill="#E0E0E0"/>
<path d="M192.459 61.7076H134.26V64.1676H192.459V61.7076Z" fill="#E0E0E0"/>
<path d="M188.361 65.3959H134.26V67.8558H188.361V65.3959Z" fill="#E0E0E0"/>
<path d="M169.507 112.493H134.26V114.953H169.507V112.493Z" fill="#E0E0E0"/>
<path d="M192.459 116.184H134.26V118.644H192.459V116.184Z" fill="#E0E0E0"/>
<path d="M188.361 119.872H134.26V122.332H188.361V119.872Z" fill="#E0E0E0"/>
<path d="M169.507 166.969H134.26V169.429H169.507V166.969Z" fill="#E0E0E0"/>
<path d="M192.459 170.661H134.26V173.121H192.459V170.661Z" fill="#E0E0E0"/>
<path d="M188.361 174.349H134.26V176.809H188.361V174.349Z" fill="#E0E0E0"/>
<path d="M98.6478 61.403L103.317 65.6867L109.932 55.9587L112.267 57.9043L103.317 69.5779L96.7022 62.1847L98.6478 61.403Z" fill="url(#paint6_linear)"/>
<path d="M99.4085 61.5823L103.469 65.3043L109.221 56.8452L111.251 58.537L103.469 68.688L97.7167 62.2591L99.4085 61.5823Z" fill="white"/>
<path d="M99.4085 116.397L103.469 120.119L109.221 111.66L111.251 113.352L103.469 123.503L97.7167 117.074L99.4085 116.397Z" fill="white"/>
<path d="M99.4085 171.213L103.469 174.935L109.221 166.476L111.251 168.167L103.469 178.318L97.7167 171.889L99.4085 171.213Z" fill="white"/>
<g opacity="0.5">
<path opacity="0.5" d="M220.375 118.766H222.405" stroke="#69F0AE" stroke-width="1.69182" stroke-miterlimit="10"/>
<path opacity="0.5" d="M226.31 118.766H271.207" stroke="#69F0AE" stroke-width="1.69182" stroke-miterlimit="10" stroke-dasharray="3.9 3.9"/>
<path opacity="0.5" d="M273.16 118.766H275.19V116.736" stroke="#69F0AE" stroke-width="1.69182" stroke-miterlimit="10"/>
<path opacity="0.5" d="M275.189 112.862V76.0409" stroke="#69F0AE" stroke-width="1.69182" stroke-miterlimit="10" stroke-dasharray="3.87 3.87"/>
<path opacity="0.5" d="M275.189 74.102V72.0718" stroke="#69F0AE" stroke-width="1.69182" stroke-miterlimit="10"/>
</g>
<path opacity="0.5" d="M78.4301 61.7516H33.0892V104.386" stroke="#69F0AE" stroke-width="1.69182" stroke-miterlimit="10" stroke-dasharray="4.06 4.06"/>
<path opacity="0.5" d="M104.485 206.91V231.272H172.158" stroke="#69F0AE" stroke-width="1.69182" stroke-miterlimit="10" stroke-dasharray="4.06 4.06"/>
<g opacity="0.5">
<path opacity="0.5" d="M295.681 36.2355L269.606 14.2113L243.938 36.1881L243.708 36.0595V36.2355H243.532L243.708 36.3336V36.4114V64.9525V65.3044H295.505L295.19 65.1285H295.681V36.2355Z" fill="url(#paint7_linear)"/>
</g>
<path d="M294.646 64.1201H244.906V36.3741L269.607 15.2263L294.646 36.3741V64.1201Z" fill="white"/>
<path d="M244.567 36.3743L269.268 50.2472L294.307 36.3743" fill="#E0E0E0"/>
<g opacity="0.5">
<path opacity="0.5" d="M269.782 49.8985L254.549 59.5521V23.347H284.663V41.7609L269.782 49.8985Z" fill="url(#paint8_linear)"/>
</g>
<path d="M269.775 50.078L255.226 59.5522V24.0239H283.987V42.0926L269.775 50.078Z" fill="#FAFAFA"/>
<path opacity="0.05" d="M244.736 63.9509H294.476L244.736 36.205V63.9509Z" fill="black"/>
<path d="M244.736 64.2891H294.476L244.736 36.5432V64.2891Z" fill="#F5F5F5"/>
<path d="M279.927 29.4377H258.948V30.7912H279.927V29.4377Z" fill="white"/>
<path d="M279.927 32.1447H258.948V33.4981H279.927V32.1447Z" fill="white"/>
<path d="M279.927 34.8514H258.948V36.2049H279.927V34.8514Z" fill="#3CB9FF"/>
<path d="M279.927 37.5583H258.948V38.9118H279.927V37.5583Z" fill="white"/>
<path d="M279.927 40.2654H258.948V41.6188H279.927V40.2654Z" fill="#3CB9FF"/>
<path opacity="0.05" d="M283.987 42.2955V41.6188L269.186 49.8444L269.589 50.0677L283.987 42.2955Z" fill="black"/>
<g opacity="0.5">
<path opacity="0.5" d="M242.019 209.786H183.16V269H242.019V209.786Z" fill="url(#paint9_linear)"/>
</g>
<path d="M240.676 211.14H184.508V267.647H240.676V211.14Z" fill="#F5F5F5"/>
<path d="M237.631 212.831H188.229V256.142H237.631V212.831Z" fill="white"/>
<path d="M237.631 242.269C223.978 242.269 212.93 238.787 212.93 234.487C199.277 234.487 188.229 237.515 188.229 241.254V257.496H237.631V242.269Z" fill="#E0E0E0"/>
<path d="M229.51 227.381C232.313 227.381 234.586 225.109 234.586 222.306C234.586 219.503 232.313 217.23 229.51 217.23C226.707 217.23 224.435 219.503 224.435 222.306C224.435 225.109 226.707 227.381 229.51 227.381Z" fill="#3CB9FF"/>
<g opacity="0.5">
<path opacity="0.5" d="M69.1251 108.192H0.0986938V157.086H69.1251V108.192Z" fill="url(#paint10_linear)"/>
</g>
<path d="M67.0956 109.63H2.12952V155.648H67.0956V109.63Z" fill="white"/>
<path d="M35.9482 121.25C35.405 121.251 34.8625 121.287 34.324 121.358L35.9482 133.769L23.4591 132.937C23.4422 133.211 23.4286 133.488 23.4286 133.769C23.4286 136.245 24.1629 138.666 25.5386 140.725C26.9142 142.783 28.8695 144.388 31.1571 145.336C33.4448 146.283 35.962 146.531 38.3906 146.048C40.8191 145.565 43.0499 144.373 44.8008 142.622C46.5517 140.871 47.744 138.64 48.2271 136.212C48.7102 133.783 48.4622 131.266 47.5147 128.978C46.5671 126.69 44.9624 124.735 42.9036 123.36C40.8448 121.984 38.4243 121.25 35.9482 121.25Z" fill="#E0E0E0"/>
<path d="M31.6172 118.99C28.7467 119.366 26.0953 120.725 24.1143 122.836C22.1333 124.947 20.9452 127.68 20.7523 130.568L33.2413 131.401L31.6172 118.99Z" fill="#3CB9FF"/>
</g>
<defs>
<linearGradient id="paint0_linear" x1="149.318" y1="202.342" x2="149.318" y2="18.6101" gradientUnits="userSpaceOnUse">
<stop stop-color="#808080" stop-opacity="0.25"/>
<stop offset="0.54" stop-color="#808080" stop-opacity="0.12"/>
<stop offset="1" stop-color="#808080" stop-opacity="0.1"/>
</linearGradient>
<linearGradient id="paint1_linear" x1="28501.1" y1="1432.23" x2="28501.1" y2="715.628" gradientUnits="userSpaceOnUse">
<stop stop-color="#808080" stop-opacity="0.25"/>
<stop offset="0.54" stop-color="#808080" stop-opacity="0.12"/>
<stop offset="1" stop-color="#808080" stop-opacity="0.1"/>
</linearGradient>
<linearGradient id="paint2_linear" x1="11009.7" y1="1967.53" x2="11009.7" y2="966.37" gradientUnits="userSpaceOnUse">
<stop stop-color="#808080" stop-opacity="0.25"/>
<stop offset="0.54" stop-color="#808080" stop-opacity="0.12"/>
<stop offset="1" stop-color="#808080" stop-opacity="0.1"/>
</linearGradient>
<linearGradient id="paint3_linear" x1="8650.23" y1="6347.39" x2="8650.23" y2="4072.22" gradientUnits="userSpaceOnUse">
<stop stop-color="#808080" stop-opacity="0.25"/>
<stop offset="0.54" stop-color="#808080" stop-opacity="0.12"/>
<stop offset="1" stop-color="#808080" stop-opacity="0.1"/>
</linearGradient>
<linearGradient id="paint4_linear" x1="8658.09" y1="10911.1" x2="8658.09" y2="8635.92" gradientUnits="userSpaceOnUse">
<stop stop-color="#808080" stop-opacity="0.25"/>
<stop offset="0.54" stop-color="#808080" stop-opacity="0.12"/>
<stop offset="1" stop-color="#808080" stop-opacity="0.1"/>
</linearGradient>
<linearGradient id="paint5_linear" x1="8665.96" y1="15418.6" x2="8665.96" y2="13143.4" gradientUnits="userSpaceOnUse">
<stop stop-color="#808080" stop-opacity="0.25"/>
<stop offset="0.54" stop-color="#808080" stop-opacity="0.12"/>
<stop offset="1" stop-color="#808080" stop-opacity="0.1"/>
</linearGradient>
<linearGradient id="paint6_linear" x1="4898.44" y1="2856.47" x2="4898.44" y2="2308.16" gradientUnits="userSpaceOnUse">
<stop stop-color="#808080" stop-opacity="0.25"/>
<stop offset="0.54" stop-color="#808080" stop-opacity="0.12"/>
<stop offset="1" stop-color="#808080" stop-opacity="0.1"/>
</linearGradient>
<linearGradient id="paint7_linear" x1="41780.1" y1="9875.18" x2="41780.1" y2="2160.12" gradientUnits="userSpaceOnUse">
<stop stop-color="#808080" stop-opacity="0.25"/>
<stop offset="0.54" stop-color="#808080" stop-opacity="0.12"/>
<stop offset="1" stop-color="#808080" stop-opacity="0.1"/>
</linearGradient>
<linearGradient id="paint8_linear" x1="24240.7" y1="6395.43" x2="24240.7" y2="2521.5" gradientUnits="userSpaceOnUse">
<stop stop-color="#808080" stop-opacity="0.25"/>
<stop offset="0.54" stop-color="#808080" stop-opacity="0.12"/>
<stop offset="1" stop-color="#808080" stop-opacity="0.1"/>
</linearGradient>
<linearGradient id="paint9_linear" x1="37146.3" y1="47284.8" x2="37146.3" y2="36922.4" gradientUnits="userSpaceOnUse">
<stop stop-color="#808080" stop-opacity="0.25"/>
<stop offset="0.54" stop-color="#808080" stop-opacity="0.12"/>
<stop offset="1" stop-color="#808080" stop-opacity="0.1"/>
</linearGradient>
<linearGradient id="paint10_linear" x1="7040.8" y1="22807.1" x2="7040.8" y2="15742" gradientUnits="userSpaceOnUse">
<stop stop-color="#808080" stop-opacity="0.25"/>
<stop offset="0.54" stop-color="#808080" stop-opacity="0.12"/>
<stop offset="1" stop-color="#808080" stop-opacity="0.1"/>
</linearGradient>
<clipPath id="clip0">
<rect width="295.582" height="269" fill="white" transform="translate(0.0985107)"/>
</clipPath>
</defs>
</svg>
