<svg width="323" height="220" viewBox="0 0 323 220" fill="none" xmlns="http://www.w3.org/2000/svg">
<g clip-path="url(#clip0)">
<path opacity="0.1" d="M174.759 32.3491C154.909 32.3177 135.784 26.1509 117.486 19.2881C99.1879 12.4253 81.0354 4.77233 61.5451 1.48925C48.9947 -0.621508 34.7614 -0.47889 24.9863 7.01715C15.582 14.2308 12.8893 26.2022 11.6001 37.2751C10.6331 45.5984 10.1996 54.3409 13.9305 61.9681C16.5233 67.265 20.9445 71.6348 24.0735 76.6864C34.961 94.257 28.5004 116.62 18.0151 134.538C13.0947 142.927 7.33007 150.979 3.61913 159.867C-0.0918073 168.755 -1.59501 178.841 2.23858 187.635C6.04365 196.355 14.6008 202.713 23.754 207.051C42.3772 215.894 64.0182 217.839 85.0801 218.629C131.711 220.38 178.413 217.26 224.992 214.122C242.229 212.964 259.543 211.795 276.417 208.335C285.787 206.415 295.431 203.554 302.06 197.233C310.475 189.213 312.163 176.077 305.999 166.616C295.657 150.731 268.513 147.662 261.069 130.496C256.97 121.047 260.45 110.245 265.593 101.157C276.628 81.678 295.668 64.2557 295.928 42.4294C296.104 27.4373 286.135 12.7846 271.292 6.22419C255.729 -0.661442 234.553 1.03287 223.705 13.7202C212.536 26.7841 192.287 32.3776 174.759 32.3491Z" fill="#3CB9FF"/>
<path d="M273.497 178.874C273.497 178.874 269.991 176.561 266.517 178.207C266.517 178.207 267.587 180.269 271.985 180.072L273.497 178.874Z" fill="#3CB9FF"/>
<path d="M273.928 179C273.928 179 274.995 183.062 272.322 185.826C272.322 185.826 270.713 184.148 272.322 180.047L273.928 179Z" fill="#3CB9FF"/>
<path d="M278.3 175.101C278.3 175.101 278.041 171.644 270.242 172.79C270.242 172.79 270.205 175.021 272.943 176.076C275.682 177.132 276.934 176.242 278.3 175.101Z" fill="#3CB9FF"/>
<path d="M278.78 175.075C278.78 175.075 282.08 176.136 279.139 183.452C279.139 183.452 276.963 182.965 276.572 180.055C276.181 177.146 277.351 176.136 278.78 175.075Z" fill="#3CB9FF"/>
<path d="M283.198 170.175C283.198 170.175 283.643 164.49 275.67 165.075C275.67 165.075 275.1 170.209 281.789 171.541L283.198 170.175Z" fill="#3CB9FF"/>
<path d="M288.466 163.757C288.466 163.757 287.371 157.316 279.404 159.236C279.404 159.236 279.373 164.807 287.163 165.294L288.466 163.757Z" fill="#3CB9FF"/>
<path d="M292.314 157.122C292.314 157.122 290.486 150.847 282.59 152.727C282.59 152.727 284.467 158.369 291.789 158.283L292.314 157.122Z" fill="#3CB9FF"/>
<path d="M295.971 150.645C295.971 150.645 294.182 144.133 286.558 146.081C286.558 146.081 289.102 152.268 295.469 151.748L295.971 150.645Z" fill="#3CB9FF"/>
<path d="M298.33 144.489C298.33 144.489 296.955 136.537 289.855 138.288C289.855 138.288 291.92 145.533 297.813 145.647L298.33 144.489Z" fill="#3CB9FF"/>
<path d="M300.537 137.053C300.537 137.053 298.889 129.023 291.695 131.348C291.695 131.348 294.516 138.933 300.03 138.148L300.537 137.053Z" fill="#3CB9FF"/>
<path d="M301.906 130.13C301.906 130.13 299.285 122.104 293.726 122.32C293.726 122.32 296.407 130.801 301.427 131.733L301.906 130.13Z" fill="#3CB9FF"/>
<path d="M302.776 123.379C302.776 123.379 299.924 113.715 295.4 114.459C295.4 114.459 297.374 121.847 302.617 124.882L302.776 123.379Z" fill="#3CB9FF"/>
<path d="M303.261 115.312C303.261 115.312 300.589 107.257 296.13 106.938C296.13 106.938 297.95 114.862 303.17 117.403L303.261 115.312Z" fill="#3CB9FF"/>
<path d="M303.812 107.802C303.812 107.802 300.478 99.7381 297.537 99.5584C297.537 99.5584 298.983 107.494 303.527 109.125L303.812 107.802Z" fill="#3CB9FF"/>
<path d="M304.18 100.808C304.18 100.808 302.12 92.0396 299.182 91.3265C299.182 91.3265 299.587 98.486 303.886 101.461L304.18 100.808Z" fill="#3CB9FF"/>
<path d="M305.289 91.6546C305.289 91.6546 303.133 84.6776 300.746 83.6137C300.746 83.6137 301.219 91.84 304.739 93.3631L305.289 91.6546Z" fill="#3CB9FF"/>
<path d="M306.211 85.6446L306.647 73.3394C306.647 73.3394 302.192 82.6239 305.883 87.8152L306.211 85.6446Z" fill="#3CB9FF"/>
<path d="M309.659 73.4164C309.659 73.4164 312.871 64.4286 313.653 63.9294C313.653 63.9294 307.349 69.7568 307.965 77.2586L309.659 73.4164Z" fill="#3CB9FF"/>
<path d="M283.415 170.135C283.415 170.135 289.068 169.393 288.897 177.385C288.897 177.385 283.788 178.216 282.122 171.609L283.415 170.135Z" fill="#3CB9FF"/>
<path d="M288.731 163.543C288.731 163.543 295.266 163.52 294.721 171.701C294.721 171.701 289.239 172.679 287.428 165.086L288.731 163.543Z" fill="#3CB9FF"/>
<path d="M292.377 157.644C292.377 157.644 298.307 154.863 302.103 162.04C302.103 162.04 296.624 164.359 291.855 158.802L292.377 157.644Z" fill="#3CB9FF"/>
<path d="M296.105 150.704C296.105 150.704 302.175 147.744 305.74 154.758C305.74 154.758 299.416 156.937 295.603 151.814L296.105 150.704Z" fill="#3CB9FF"/>
<path d="M298.253 144.66C298.253 144.66 304.097 139.078 308.761 144.726C308.761 144.726 302.791 149.318 297.982 145.904L298.253 144.66Z" fill="#3CB9FF"/>
<path d="M300.207 136.862C300.207 136.862 306.088 131.157 310.715 137.124C310.715 137.124 304.114 141.811 299.998 138.06L300.207 136.862Z" fill="#3CB9FF"/>
<path d="M301.308 129.902C301.308 129.902 305.837 122.771 311.168 124.366C311.168 124.366 306.47 131.916 301.359 131.579L301.308 129.902Z" fill="#3CB9FF"/>
<path d="M302.642 123.333C302.642 123.333 307.206 114.351 311.522 115.917C311.522 115.917 308.233 122.82 302.526 124.848L302.642 123.333Z" fill="#3CB9FF"/>
<path d="M302.956 114.859C302.956 114.859 307.648 107.79 312.044 108.652C312.044 108.652 308.21 115.82 302.503 116.904L302.956 114.859Z" fill="#3CB9FF"/>
<path d="M303.316 107.642C303.316 107.642 306.95 99.7125 309.908 99.6412C309.908 99.6412 308.162 107.519 303.558 108.977L303.316 107.642Z" fill="#3CB9FF"/>
<path d="M304.034 100.634C304.034 100.634 308.076 92.6015 311.114 92.5873C311.114 92.5873 309.046 99.4529 304.171 101.341L304.034 100.634Z" fill="#3CB9FF"/>
<path d="M304.645 92.148C304.645 92.148 307.668 85.502 310.17 84.749C310.17 84.749 308.658 92.8497 304.976 93.9108L304.645 92.148Z" fill="#3CB9FF"/>
<path d="M306.573 85.4107L313.327 75.1193C313.327 75.1193 311.599 85.2709 305.586 87.3845L306.573 85.4107Z" fill="#3CB9FF"/>
<path d="M311.211 74.2436C311.211 74.2436 319.064 68.8241 319.346 67.9456C319.346 67.9456 315.353 75.5386 307.936 76.8792L311.211 74.2436Z" fill="#3CB9FF"/>
<path d="M311.679 71.8049C311.679 71.8049 320.695 63.1365 322.997 63.1479C322.997 63.1479 315.561 63.4874 311.462 71.3428L311.679 71.8049Z" fill="#3CB9FF"/>
<path d="M304.73 93.4344L305.058 93.4772C306.753 80.2137 309.223 72.3696 312.015 71.4055L311.907 71.0946C308.949 72.1215 306.467 79.8457 304.73 93.4344Z" fill="#444053"/>
<path d="M302.24 125.144L302.737 125.187C302.839 123.949 302.919 122.68 302.973 121.419C303.447 110.44 304.183 100.363 305.147 92.8069L304.862 92.4503C303.895 100.021 302.953 110.406 302.48 121.396C302.423 122.651 302.343 123.912 302.24 125.144Z" fill="#444053"/>
<path d="M264.238 185.19C264.327 185.15 273.064 181.25 282.131 171.943C287.443 166.493 291.857 160.235 295.209 153.403C299.4 144.866 301.955 134.375 302.814 124.183L302.298 124.425C300.372 147.299 289.958 162.933 281.675 171.444C272.696 180.669 264.059 184.531 263.973 184.565L264.238 185.19Z" fill="#444053"/>
<path d="M299.131 14.2582H25.0522C24.4046 14.2582 23.7836 14.5155 23.3257 14.9734C22.8678 15.4313 22.6105 16.0523 22.6105 16.6999V23.8137H301.573V16.6999C301.573 16.0523 301.315 15.4313 300.858 14.9734C300.4 14.5155 299.779 14.2582 299.131 14.2582Z" fill="#3F3D56"/>
<path d="M22.6105 23.8137V183.9C22.6105 185.206 23.1292 186.458 24.0525 187.382C24.9758 188.305 26.228 188.824 27.5337 188.824H296.65C297.955 188.824 299.207 188.305 300.131 187.382C301.054 186.458 301.573 185.206 301.573 183.9V23.8137H22.6105Z" fill="white"/>
<path opacity="0.8" d="M27.0317 20.1028C27.6618 20.1028 28.1726 19.592 28.1726 18.9618C28.1726 18.3317 27.6618 17.8209 27.0317 17.8209C26.4016 17.8209 25.8907 18.3317 25.8907 18.9618C25.8907 19.592 26.4016 20.1028 27.0317 20.1028Z" fill="#FA5959"/>
<path opacity="0.8" d="M30.1696 20.1028C30.7998 20.1028 31.3106 19.592 31.3106 18.9618C31.3106 18.3317 30.7998 17.8209 30.1696 17.8209C29.5395 17.8209 29.0287 18.3317 29.0287 18.9618C29.0287 19.592 29.5395 20.1028 30.1696 20.1028Z" fill="#FED253"/>
<path opacity="0.8" d="M33.3071 20.1028C33.9373 20.1028 34.4481 19.592 34.4481 18.9618C34.4481 18.3317 33.9373 17.8209 33.3071 17.8209C32.677 17.8209 32.1662 18.3317 32.1662 18.9618C32.1662 19.592 32.677 20.1028 33.3071 20.1028Z" fill="#8CCF4D"/>
<g opacity="0.3">
<path opacity="0.3" d="M291.162 33.5091H33.3071V178.98H291.162V33.5091Z" stroke="#3F3D56" stroke-width="0.285237" stroke-miterlimit="10"/>
<path opacity="0.3" d="M257.504 33.5089H66.965V178.98H257.504V33.5089Z" stroke="#3F3D56" stroke-width="0.285237" stroke-miterlimit="10"/>
<path opacity="0.3" d="M223.846 33.5089H100.623V178.98H223.846V33.5089Z" stroke="#3F3D56" stroke-width="0.285237" stroke-miterlimit="10"/>
<path opacity="0.3" d="M190.188 33.5089H134.281V178.98H190.188V33.5089Z" stroke="#3F3D56" stroke-width="0.285237" stroke-miterlimit="10"/>
<path opacity="0.3" d="M162.235 33.5089V178.98" stroke="#3F3D56" stroke-width="0.285237" stroke-miterlimit="10"/>
<path opacity="0.3" d="M291.162 54.6165H33.3071V157.872H291.162V54.6165Z" stroke="#3F3D56" stroke-width="0.285237" stroke-miterlimit="10"/>
<path opacity="0.3" d="M291.162 75.4388H33.3071V137.05H291.162V75.4388Z" stroke="#3F3D56" stroke-width="0.285237" stroke-miterlimit="10"/>
<path opacity="0.3" d="M291.162 96.2611H33.3071V116.228H291.162V96.2611Z" stroke="#3F3D56" stroke-width="0.285237" stroke-miterlimit="10"/>
</g>
<path opacity="0.1" d="M93.9198 41.6382H73.668V49.0544H93.9198V41.6382Z" fill="#3F3D56"/>
<path opacity="0.1" d="M57.1244 61.8901H42.0068V69.3062H57.1244V61.8901Z" fill="#3F3D56"/>
<path opacity="0.1" d="M126.722 41.6382H106.47V49.0544H126.722V41.6382Z" fill="#3F3D56"/>
<path opacity="0.1" d="M157.528 41.6382H137.276V49.0544H157.528V41.6382Z" fill="#3F3D56"/>
<path opacity="0.1" d="M186.052 41.6382H165.8V49.0544H186.052V41.6382Z" fill="#3F3D56"/>
<path opacity="0.1" d="M217.998 41.6382H197.746V49.0544H217.998V41.6382Z" fill="#3F3D56"/>
<path opacity="0.1" d="M250.515 41.6382H230.264V49.0544H250.515V41.6382Z" fill="#3F3D56"/>
<path opacity="0.1" d="M285.029 41.6382H264.777V49.0544H285.029V41.6382Z" fill="#3F3D56"/>
<path d="M126.908 81.8424H113.75V94.5811H126.908V81.8424Z" fill="url(#paint0_linear)"/>
<path d="M126.682 82.062H113.978V94.3614H126.682V82.062Z" fill="#7CFCFF"/>
<path d="M154.017 79.0813H140.859V91.82H154.017V79.0813Z" fill="url(#paint1_linear)"/>
<path d="M153.791 79.301H141.087V91.6004H153.791V79.301Z" fill="#FFFFA5"/>
<path d="M206.215 122.437H193.057V135.176H206.215V122.437Z" fill="url(#paint2_linear)"/>
<path d="M205.99 122.657H193.285V134.956H205.99V122.657Z" fill="#FFFFA5"/>
<path d="M90.3343 59.1403H77.1763V71.879H90.3343V59.1403Z" fill="url(#paint3_linear)"/>
<path d="M90.1062 59.36H77.4017V71.6594H90.1062V59.36Z" fill="#FFFFA5"/>
<path d="M116.479 77.3955H103.321V90.1342H116.479V77.3955Z" fill="url(#paint4_linear)"/>
<path d="M116.251 77.6152H103.547V89.9146H116.251V77.6152Z" fill="#FF69B4"/>
<path d="M221.606 122.346H208.448V135.085H221.606V122.346Z" fill="url(#paint5_linear)"/>
<path d="M221.381 122.566H208.677V134.865H221.381V122.566Z" fill="#7CFCFF"/>
<path d="M244.711 59.3087H231.553V72.0474H244.711V59.3087Z" fill="url(#paint6_linear)"/>
<path d="M244.486 59.5282H231.781V71.8277H244.486V59.5282Z" fill="#7CFCFF"/>
<path d="M243.285 99.8124H230.127V112.551H243.285V99.8124Z" fill="url(#paint7_linear)"/>
<path d="M243.059 100.032H230.355V112.331H243.059V100.032Z" fill="#7CFCFF"/>
<path d="M253.268 102.665H240.11V115.403H253.268V102.665Z" fill="url(#paint8_linear)"/>
<path d="M253.043 102.884H240.338V115.184H253.043V102.884Z" fill="#7CFCFF"/>
<path d="M211.178 117.899H198.02V130.638H211.178V117.899Z" fill="url(#paint9_linear)"/>
<path d="M210.95 118.119H198.246V130.418H210.95V118.119Z" fill="#FF69B4"/>
<path d="M212.604 79.3922H199.446V92.1309H212.604V79.3922Z" fill="url(#paint10_linear)"/>
<path d="M212.376 79.6118H199.672V91.9113H212.376V79.6118Z" fill="#FF69B4"/>
<path opacity="0.1" d="M57.1244 81.8567H42.0068V89.2728H57.1244V81.8567Z" fill="#3F3D56"/>
<path opacity="0.1" d="M57.1244 102.679H42.0068V110.095H57.1244V102.679Z" fill="#3F3D56"/>
<path opacity="0.1" d="M57.1244 123.501H42.0068V130.917H57.1244V123.501Z" fill="#3F3D56"/>
<path opacity="0.1" d="M57.1244 144.324H42.0068V151.74H57.1244V144.324Z" fill="#3F3D56"/>
<path opacity="0.1" d="M57.1244 165.146H42.0068V172.562H57.1244V165.146Z" fill="#3F3D56"/>
<path d="M87.9301 100.457C88.3523 100.189 88.184 99.4701 87.7504 99.2219C87.3169 98.9738 86.7778 99.0565 86.29 99.1535C86.3108 99.0291 86.2916 98.9014 86.2352 98.7887C86.1788 98.6759 86.0882 98.5839 85.9763 98.5259V98.4175C86.2615 98.1323 86.1531 97.5618 85.8051 97.3108C85.4571 97.0598 84.9152 97.0484 84.4474 97.0712C84.4806 96.7877 84.4463 96.5003 84.3471 96.2326C84.248 95.9649 84.0868 95.7244 83.8769 95.5309C83.7952 95.4428 83.6831 95.3888 83.5631 95.3798C83.2779 95.3798 83.198 95.7449 83.1781 96.0159C83.1238 96.7275 83.0064 97.4329 82.8272 98.1238L73.9621 112.956C72.9751 114.382 76.0414 110.104 75.0545 111.544C74.5546 112.328 73.9692 113.054 73.3089 113.709C72.716 114.238 72.0527 114.683 71.3379 115.03C70.8605 115.044 70.3904 114.91 69.9916 114.648C69.4907 114.297 69.0529 113.864 68.6966 113.367C67.9238 112.385 67.225 111.346 66.6058 110.261C66.3911 109.917 66.2296 109.543 66.1266 109.151C65.9954 108.535 66.1266 107.867 65.8841 107.288C65.7809 107.073 65.6527 106.87 65.5019 106.684L64.8886 105.871V105.834C64.8202 104.63 63.8418 103.7 62.9291 102.907C62.1532 102.228 61.3118 101.521 60.2878 101.39C59.7401 101.318 59.1782 101.424 58.6305 101.355C58.1827 101.298 57.7577 101.13 57.3127 101.056C56.8845 100.998 56.4509 100.989 56.0206 101.03L55.8381 100.862C56.7848 100.462 57.5889 99.7862 58.1456 98.9224C58.5678 98.2407 58.7988 97.4534 59.1896 96.7518C59.666 95.896 60.3733 95.1887 60.901 94.3672C62.176 92.419 62.4099 89.9118 61.8937 87.6413C61.3774 85.3708 60.168 83.3085 58.7561 81.4687C56.0178 77.9261 51.4254 76.6197 47.1012 77.3043C46.816 77.3499 46.5308 77.4041 46.2455 77.4669C45.518 77.6199 44.808 77.8464 44.1262 78.1429C43.2038 78.5205 42.4033 79.1453 41.8129 79.9484C41.6538 80.1832 41.519 80.4336 41.4108 80.6958C41.3311 80.8961 41.2663 81.102 41.2168 81.3119C41.0842 81.9455 41.0486 82.5957 41.1113 83.2401C41.1284 83.4597 41.1512 83.6793 41.1769 83.899L41.2197 84.2298C41.2482 84.4495 41.2796 84.6691 41.3109 84.8887C41.3566 85.2196 41.3994 85.5505 41.4307 85.8757C41.4559 86.1058 41.4682 86.3372 41.4678 86.5688C41.4678 86.6287 41.4678 86.6857 41.4678 86.7428C41.4577 86.915 41.432 87.0859 41.3908 87.2534C41.3683 87.3455 41.3397 87.436 41.3052 87.5243C41.2025 87.7864 41.0674 88.0346 40.903 88.2631C40.6809 88.5733 40.4398 88.8695 40.1814 89.1502L39.9332 89.4354C39.8505 89.5296 39.7706 89.6265 39.6879 89.7207C39.3618 90.1009 39.0634 90.5042 38.7951 90.9272C38.6642 91.1401 38.547 91.3611 38.4443 91.589C38.3662 91.7616 38.2986 91.9388 38.2418 92.1195C38.1692 92.3618 38.1176 92.6099 38.0877 92.8611C38.0877 92.9239 38.0877 92.9866 38.0706 93.0494C38.0706 93.172 38.0706 93.2975 38.0706 93.423C38.0769 93.5473 38.0902 93.6711 38.1106 93.7939C38.1306 93.9155 38.1592 94.0356 38.1961 94.1533C38.2319 94.2725 38.2767 94.3888 38.3302 94.5012C38.3302 94.5326 38.3587 94.564 38.3758 94.5954L38.4215 94.6895C38.4528 94.7523 38.4842 94.8122 38.5127 94.8749C38.5558 94.9657 38.5874 95.0615 38.6069 95.1601C38.6069 95.1915 38.6069 95.2257 38.6069 95.26C38.6069 95.2942 38.6069 95.3341 38.6069 95.3684C38.5615 95.6549 38.411 95.9142 38.1847 96.0957C38.1277 96.1499 38.0706 96.1984 38.0107 96.2498L37.9195 96.3239L37.7341 96.4694L37.5572 96.612C37.4018 96.7422 37.2577 96.8853 37.1265 97.0399C35.5204 96.9539 33.9105 97.1117 32.3516 97.5076C31.7978 97.688 31.2221 97.7926 30.6402 97.8186C30.5006 97.8315 30.3599 97.8099 30.2306 97.7556C30.1013 97.7014 29.9873 97.6163 29.8986 97.5076C29.7998 97.2937 29.7727 97.0536 29.8216 96.8231C29.8985 95.8681 29.7419 94.9087 29.3652 94.0277C29.2741 93.7699 29.1167 93.5407 28.9088 93.3631C28.8029 93.277 28.6723 93.2267 28.5359 93.2195C28.3996 93.2123 28.2645 93.2487 28.1501 93.3232C28.6325 94.8837 28.563 96.5628 27.9533 98.0781C27.6401 98.7924 27.273 99.4818 26.8551 100.14C26.2048 101.25 25.8397 102.519 25.2606 103.669C25.9081 105.862 25.7626 108.204 26.1163 110.469C26.4329 112.577 27.1689 114.596 27.9076 116.596C28.4781 118.105 29.0714 119.679 30.2808 120.74C30.6706 121.133 31.1964 121.362 31.7498 121.379C32.1594 121.328 32.5508 121.18 32.8907 120.946C33.2435 120.753 33.5687 120.514 33.8577 120.235C33.9646 120.118 34.0601 119.991 34.1429 119.856C34.1783 120.047 34.251 120.229 34.3568 120.392C35.0528 118.892 35.8173 117.426 36.6387 115.991C36.8834 115.861 37.113 115.704 37.3233 115.523C37.3233 115.575 37.349 115.626 37.3632 115.677C37.3262 115.814 37.2919 115.963 37.2549 116.091C37.2178 116.219 37.175 116.356 37.1351 116.484C37.0951 116.613 37.0752 116.676 37.0438 116.77C37.0124 116.864 36.9668 116.998 36.924 117.112C36.8812 117.226 36.8327 117.36 36.7842 117.483C36.7357 117.605 36.7186 117.66 36.6815 117.745C36.5931 117.962 36.5018 118.173 36.3963 118.384C36.4758 118.423 36.5577 118.456 36.6416 118.484L36.6958 118.501C36.7697 118.524 36.845 118.544 36.9211 118.558H37.0038C37.0596 118.567 37.1158 118.573 37.1721 118.575H37.2349H37.4203C37.6244 118.566 37.8266 118.532 38.0221 118.473L38.1334 118.929C38.4179 119.954 38.6013 121.005 38.681 122.067C38.7352 123.265 38.527 124.483 38.7581 125.661C38.875 126.274 39.1117 126.861 39.1973 127.478C39.2525 128.058 39.242 128.642 39.1659 129.22C39.0328 130.62 38.8997 132.02 38.7666 133.422C38.7544 133.936 38.6318 134.442 38.4072 134.905C38.2104 135.247 37.8909 135.638 38.0906 135.978C38.4193 135.89 38.7539 135.826 39.0918 135.787C38.9691 136.231 38.8579 136.679 38.7523 137.13C38.6494 137.465 38.6221 137.819 38.6725 138.165C38.7438 138.491 38.9577 138.784 38.9805 139.115C39.0319 139.629 38.6753 140.082 38.4785 140.559C37.9765 141.774 38.5099 143.143 39.049 144.346L40.6235 147.918L41.9156 150.847C42.2978 151.703 42.6829 152.587 43.0566 153.466C44.7405 157.466 46.1156 161.589 47.1697 165.799C47.2049 165.99 47.2776 166.173 47.3836 166.335C47.6004 166.621 47.9969 166.712 48.3192 166.889C49.2862 167.422 49.3974 169.014 48.5132 169.676C48.6929 171.821 47.087 173.894 46.2598 175.879C44.3544 180.443 44.6995 185.595 44.0464 190.501L44.7851 190.07C44.8727 190.109 44.9536 190.162 45.0247 190.227C45.0076 190.318 44.9876 190.413 44.9648 190.512C44.8649 190.929 44.7054 191.33 44.4913 191.702C44.0606 192.44 43.4017 193.099 43.3019 193.949C43.242 194.463 43.3989 194.976 43.396 195.492C43.396 195.541 43.396 195.587 43.396 195.635C43.3304 195.572 43.2306 195.578 43.0823 195.695C42.8501 195.939 42.6892 196.242 42.6173 196.571C42.489 196.939 42.3863 197.312 42.2836 197.686L41.9014 199.004C41.7062 199.798 41.4477 200.575 41.1284 201.328C40.8553 201.833 40.6263 202.359 40.4438 202.903C40.3421 203.346 40.3028 203.801 40.3269 204.255C40.3194 204.69 40.382 205.123 40.5123 205.538C40.6835 205.947 40.938 206.316 41.2597 206.621C41.5814 206.926 41.9631 207.161 42.3806 207.31C43.2161 207.603 44.0912 207.769 44.9762 207.8C45.2031 207.83 45.4332 207.823 45.6579 207.78C45.8987 207.711 46.1228 207.594 46.3168 207.435C47.5205 206.551 48.1424 204.925 48.2508 203.442C48.2203 203.136 48.1659 202.833 48.0882 202.535C48.1623 200.912 47.9256 199.28 48.0482 197.663C48.0739 197.848 48.0996 198.031 48.1281 198.214L48.4133 200.031C48.3966 199.966 48.3632 199.907 48.3164 199.859C48.1052 200.532 48.0679 201.248 48.208 201.939C48.3502 202.627 48.5506 203.301 48.807 203.955L49.1949 205.039C49.2884 205.366 49.4454 205.672 49.657 205.938C49.9964 206.311 50.5127 206.451 51.009 206.571C52.0758 206.883 53.1742 207.074 54.2835 207.142C54.4319 207.159 54.582 207.131 54.7142 207.062C54.7821 207.011 54.8469 206.957 54.9082 206.899C55.0068 206.828 55.1118 206.767 55.222 206.716C55.6986 206.466 56.0587 206.039 56.226 205.527C56.3062 205.272 56.3312 205.003 56.2992 204.738C56.2673 204.473 56.1791 204.218 56.0406 203.99C55.9109 203.797 55.7628 203.617 55.5985 203.453L53.6474 201.385C53.3492 201.031 53.0311 200.694 52.6948 200.376C52.6546 200.335 52.6051 200.304 52.5505 200.286C52.4958 200.268 52.4377 200.264 52.381 200.273C51.8504 198.949 51.9189 197.403 52.0102 195.952C52.0387 195.518 52.2755 194.62 52.3696 193.881C52.7459 193.754 53.0965 193.561 53.405 193.31C53.7023 193.093 53.9134 192.778 54.0011 192.42C54.9852 187.395 56.5683 182.523 58.0629 177.625C58.2112 177.143 58.3482 176.658 58.4993 176.176C58.5621 175.971 58.6191 175.763 58.679 175.554C58.7389 175.346 58.7789 175.218 58.8274 175.049C58.9072 174.764 58.9871 174.479 59.0641 174.194C59.0869 174.117 59.1069 174.04 59.1297 173.963C59.1284 173.948 59.1284 173.932 59.1297 173.917C59.2238 173.566 59.3151 173.215 59.4149 172.865C59.4492 172.728 59.4863 172.596 59.5205 172.459C59.6317 172.015 59.743 171.564 59.8485 171.116C59.8659 171.054 59.8792 170.991 59.8884 170.928C59.927 170.77 59.916 170.603 59.8571 170.451C59.8286 170.393 59.7911 170.339 59.7458 170.292C59.7144 170.255 59.6802 170.218 59.646 170.183C59.6118 170.149 59.5718 170.103 59.5376 170.061C59.4475 169.95 59.3797 169.823 59.3379 169.687C59.3379 169.55 59.3379 169.402 59.3379 169.276C59.3379 169.151 59.3208 168.991 59.3123 168.843C59.3428 168.65 59.3857 168.459 59.4406 168.272C59.4748 168.161 59.5119 168.05 59.5462 167.938C59.5804 167.827 59.6317 167.653 59.6774 167.525C59.848 167.33 59.9405 167.079 59.9369 166.82C60.1138 166.379 60.3087 165.947 60.5217 165.523C60.7844 165.093 60.9616 164.616 61.0437 164.119C61.0424 163.67 60.9869 163.223 60.8782 162.787C60.593 160.933 61.4487 159.128 62.0791 157.368C62.5467 156.069 62.9017 154.733 63.1401 153.374C63.3255 152.333 63.4539 151.241 64.0101 150.339C64.1937 150.086 64.3504 149.815 64.4779 149.529C64.5643 149.231 64.6065 148.921 64.6034 148.611C64.6736 147.351 64.9783 146.116 65.5019 144.968C65.6179 144.746 65.6969 144.506 65.7358 144.258C65.7373 144.242 65.7373 144.226 65.7358 144.21V144.141L65.8813 144.118C66.1294 142.547 66.3804 140.795 66.2093 139.212C65.9867 137.379 65.0937 135.692 63.7021 134.477H63.7306C64.2212 134.229 64.4408 133.622 64.4494 133.085C64.4506 132.679 64.3604 132.278 64.1857 131.911C64.0109 131.544 63.7559 131.221 63.4396 130.966C63.2982 130.878 63.1806 130.757 63.0974 130.612C63.0501 130.464 63.0355 130.307 63.0546 130.153C63.0569 129.687 62.9206 129.231 62.6631 128.843C62.4056 128.455 62.0385 128.153 61.6084 127.974C61.5191 127.949 61.4377 127.902 61.3717 127.837C61.2984 127.711 61.276 127.562 61.3089 127.42C61.3354 126.957 61.2349 126.496 61.0182 126.086C60.8015 125.675 60.477 125.332 60.0795 125.093C60.1936 124.483 60.3077 123.844 60.1337 123.245C59.9598 122.646 59.3978 122.104 58.7817 122.189C59.2837 120.82 58.5706 119.297 58.7589 117.851C58.8416 117.229 59.0898 116.633 59.1212 116.008C59.1497 115.438 59.0099 114.827 59.2866 114.331C59.5633 113.835 60.2165 113.447 60.0482 112.905C59.9769 112.674 59.7629 112.514 59.6631 112.289C59.5633 112.063 59.9626 111.718 60.168 111.844C60.265 111.77 60.3619 111.693 60.4532 111.613C60.483 111.903 60.5403 112.189 60.6244 112.468C60.7641 112.936 60.9781 113.375 61.1235 113.84C61.346 114.551 61.4088 115.321 61.7682 115.971C62.3386 117.012 63.5452 117.528 64.361 118.393C64.8402 118.898 65.1853 119.534 65.6788 120.013C66.0535 120.363 66.4647 120.672 66.9053 120.934L69.5409 122.646C69.8142 122.844 70.1189 122.995 70.4422 123.093C70.6473 123.133 70.8583 123.129 71.0622 123.084C71.266 123.039 71.4586 122.953 71.6281 122.831C71.7976 122.709 71.9404 122.554 72.048 122.375C72.1555 122.196 72.2254 121.997 72.2535 121.79C72.0111 121.704 71.7903 121.567 71.606 121.388C71.6431 121.388 71.6802 121.388 71.7172 121.371C72.3433 121.207 72.9225 120.899 73.4087 120.472C75.2856 118.977 76.6347 116.938 77.9525 114.933C79.3331 112.831 85.9763 107.268 85.9763 107.268V105.015C86.8216 104.525 87.5714 103.886 88.1897 103.13C88.523 102.726 88.718 102.226 88.7459 101.703C88.7586 101.436 88.6866 101.172 88.5401 100.948C88.3936 100.724 88.1801 100.552 87.9301 100.457ZM32.6796 105.862C32.5522 106.682 32.3954 107.496 32.209 108.304C32.0037 109.239 31.7408 110.16 31.4217 111.062L31.3191 111.347C31.2249 111.171 31.1308 110.997 31.0338 110.817C30.8199 110.369 30.6459 109.904 30.4633 109.439L29.3623 106.473C29.2197 106.088 29.0771 105.643 29.291 105.289C29.4478 105.072 29.6666 104.908 29.9185 104.818C30.6927 104.463 31.5013 104.189 32.3317 104C32.5942 103.947 32.8533 103.878 33.1075 103.794C32.9028 104.469 32.7596 105.161 32.6796 105.862ZM33.8976 102.154C33.8609 102.088 33.8416 102.014 33.8416 101.939C33.8416 101.863 33.8609 101.789 33.8976 101.723C33.98 101.64 34.0766 101.573 34.1828 101.524L34.2656 101.467C34.1515 101.703 34.0231 101.932 33.8976 102.163V102.154ZM36.1795 98.9281C35.8557 99.1968 35.5612 99.4989 35.301 99.8295C35.0217 100.198 34.77 100.587 34.5479 100.993C34.5816 100.836 34.57 100.672 34.5145 100.52C34.459 100.369 34.3618 100.236 34.2342 100.138C34.1332 100.082 34.0377 100.017 33.949 99.9436C33.8536 99.8165 33.8127 99.6567 33.8352 99.4995C33.8576 99.3422 33.9417 99.2003 34.0688 99.105C34.3312 98.9249 34.6381 98.8204 34.9558 98.8026L36.2708 98.6087C36.2309 98.7199 36.2052 98.8283 36.1767 98.9367L36.1795 98.9281ZM48.4904 194.383C48.5135 193.988 48.4877 193.593 48.4133 193.205C48.5759 193.205 48.7385 193.205 48.8982 193.205C48.7642 193.584 48.6273 193.986 48.4904 194.383Z" fill="url(#paint11_linear)"/>
<path d="M47.1497 78.16C44.8678 78.5279 42.3292 79.4064 41.4449 81.5457C40.786 83.163 41.2966 84.9828 41.4649 86.7199C41.5287 87.1785 41.5123 87.6447 41.4164 88.0976C41.2281 88.8307 40.709 89.424 40.207 89.9916C39.5096 90.7123 38.9241 91.5334 38.4699 92.4275C38.0592 93.3403 37.9279 94.4242 38.353 95.3369C38.4975 95.5715 38.5945 95.8322 38.6382 96.1042C38.6667 96.6975 38.0449 97.074 37.5885 97.4534C35.8771 98.8796 35.9484 101.447 35.9341 103.68C35.9078 108.234 34.8969 112.729 32.9705 116.855C33.6925 117.221 34.5079 117.36 35.3103 117.256C36.1127 117.151 36.8649 116.806 37.4687 116.268C37.2315 117.282 36.8893 118.268 36.4476 119.211C37.8966 119.913 39.6451 118.761 40.3724 117.323C41.0998 115.885 41.1854 114.214 41.7016 112.688C42.2179 111.162 43.1278 109.836 43.53 108.298C43.6584 107.79 43.7382 107.248 44.0491 106.826C44.3111 106.521 44.6191 106.258 44.9619 106.048C46.4664 104.962 47.5943 103.433 48.1879 101.675C49.9621 102.066 51.7734 102.459 53.5818 102.294C55.3902 102.128 57.2385 101.31 58.1941 99.7638C58.6162 99.0821 58.8444 98.2977 59.2352 97.596C59.7144 96.7403 60.4189 96.0329 60.9466 95.2143C62.2188 93.2661 62.4527 90.7646 61.9364 88.4941C61.4201 86.2236 60.225 84.1699 58.7988 82.3301C56.0662 78.7818 51.4739 77.4668 47.1497 78.16Z" fill="#303D5C"/>
<path d="M32.7481 106.689C32.6197 107.505 32.4628 108.321 32.2803 109.128C32.0733 110.062 31.8104 110.982 31.493 111.884C31.3064 112.279 31.2211 112.714 31.2449 113.15C31.3011 113.417 31.4045 113.672 31.5501 113.903C32.5912 115.754 34.0002 117.543 34.1172 119.665C34.1457 120.193 34.1172 120.766 34.4024 121.202C35.2068 119.47 36.0948 117.781 37.0665 116.137C38.082 114.425 39.2115 112.674 39.5025 110.694C39.6185 109.765 39.606 108.825 39.4654 107.899C39.3313 106.858 39.0974 105.791 38.4642 104.958C37.7739 104.057 35.8971 102.696 34.662 102.979C33.2273 103.307 32.9306 105.529 32.7481 106.689Z" fill="#3CB9FF"/>
<path d="M69.5123 116.667C70.8757 116.111 72.2677 115.526 73.3487 114.522C74.009 113.867 74.5945 113.141 75.0944 112.357L78.3033 107.728C79.062 106.627 79.8464 105.471 80.0147 104.145C81.894 102.161 83.0262 99.5862 83.218 96.8601C83.2408 96.5892 83.3321 96.2326 83.603 96.2241C83.7229 96.233 83.835 96.287 83.9168 96.3752C84.1265 96.5683 84.2875 96.8082 84.3866 97.0754C84.4858 97.3427 84.5203 97.6296 84.4873 97.9127C84.9551 97.8898 85.4628 97.8784 85.845 98.1523C86.2272 98.4261 86.3299 99.105 85.9192 99.3303C86.0566 99.372 86.1741 99.4627 86.2492 99.5852C86.3244 99.7076 86.3521 99.8534 86.327 99.9949C86.8177 99.8979 87.3568 99.818 87.7903 100.063C88.2239 100.309 88.3893 101.027 87.97 101.296C88.2145 101.39 88.4238 101.558 88.5693 101.776C88.7148 101.994 88.7894 102.252 88.7829 102.514C88.7568 103.037 88.5616 103.537 88.2267 103.94C86.9945 105.594 84.821 106.262 83.392 107.75C82.9224 108.271 82.5013 108.833 82.1341 109.431L77.9953 115.729C76.6803 117.725 75.3311 119.77 73.4543 121.259C72.9681 121.686 72.3889 121.994 71.7628 122.158C71.4493 122.237 71.1205 122.233 70.8089 122.146C70.4974 122.06 70.2137 121.894 69.9858 121.664C69.5722 121.194 69.5094 120.523 69.4695 119.893C69.4011 118.832 69.5836 117.737 69.5123 116.667Z" fill="#EE8E9E"/>
<path d="M55.6524 204.138C55.8175 204.301 55.9656 204.481 56.0946 204.674C56.233 204.902 56.3212 205.157 56.3531 205.421C56.3851 205.686 56.3602 205.955 56.28 206.209C56.1146 206.72 55.7551 207.146 55.2788 207.395C55.1674 207.445 55.0613 207.507 54.9622 207.578C54.9015 207.638 54.8367 207.693 54.7682 207.743C54.635 207.81 54.4857 207.838 54.3375 207.823C53.2294 207.753 52.1323 207.562 51.0658 207.253C50.5752 207.13 50.0561 206.99 49.7138 206.619C49.5022 206.353 49.3452 206.048 49.2517 205.721L48.8638 204.64C48.6091 203.987 48.4097 203.313 48.2676 202.626C48.1261 201.936 48.1634 201.221 48.376 200.55C48.4722 200.67 48.5227 200.821 48.5187 200.975C48.6328 201.702 48.9183 202.393 49.3515 202.988C49.4421 203.138 49.5514 203.275 49.6767 203.396C49.9603 203.614 50.2954 203.754 50.6494 203.804C51.3307 203.952 52.0236 204.041 52.7202 204.069C52.8166 204.083 52.9148 204.071 53.0054 204.035C53.1173 203.973 53.2018 203.871 53.2422 203.75C53.3419 203.473 53.3419 203.171 53.2422 202.894C53.0539 202.367 52.5377 202.021 52.2923 201.519C52.1069 201.149 52.3608 200.741 52.7373 201.054C53.0753 201.372 53.3944 201.709 53.6929 202.064L55.6524 204.138Z" fill="#303D5C"/>
<path d="M52.067 196.645C51.9557 198.388 51.8787 200.27 52.8314 201.733C53.1766 202.258 53.6358 202.7 54.0266 203.194C54.2507 203.441 54.3992 203.746 54.4544 204.075C54.5086 204.714 53.9096 205.262 53.2792 205.382C52.6489 205.501 52.0042 205.302 51.3938 205.096C50.8162 204.953 50.2725 204.697 49.7936 204.343C48.9636 203.642 48.744 202.472 48.5785 201.4L48.1906 198.907C47.8968 197.647 48.0209 196.325 48.5443 195.142L49.1832 193.27C49.2251 193.088 49.3252 192.925 49.4685 192.805C49.6171 192.724 49.7881 192.692 49.9562 192.714C50.5666 192.746 52.1098 192.968 52.4064 193.616C52.6574 194.177 52.1098 195.974 52.067 196.645Z" fill="#EE8E9E"/>
<path opacity="0.05" d="M52.067 196.645C51.9557 198.388 51.8787 200.27 52.8314 201.733C53.1766 202.258 53.6358 202.7 54.0266 203.194C54.2507 203.441 54.3992 203.746 54.4544 204.075C54.5086 204.714 53.9096 205.262 53.2792 205.382C52.6489 205.501 52.0042 205.302 51.3938 205.096C50.8162 204.953 50.2725 204.697 49.7936 204.343C48.9636 203.642 48.744 202.472 48.5785 201.4L48.1906 198.907C47.8968 197.647 48.0209 196.325 48.5443 195.142L49.1832 193.27C49.2251 193.088 49.3252 192.925 49.4685 192.805C49.6171 192.724 49.7881 192.692 49.9562 192.714C50.5666 192.746 52.1098 192.968 52.4064 193.616C52.6574 194.177 52.1098 195.974 52.067 196.645Z" fill="black"/>
<path d="M65.7785 144.985C65.7797 145.002 65.7797 145.018 65.7785 145.034C65.7422 145.281 65.6631 145.519 65.5446 145.738C65.021 146.883 64.7153 148.116 64.6432 149.372C64.6464 149.683 64.6041 149.992 64.5177 150.291C64.3898 150.575 64.233 150.846 64.0499 151.098C63.4937 152.002 63.3654 153.095 63.18 154.13C62.941 155.484 62.586 156.814 62.1189 158.106C61.4828 159.869 60.6271 161.672 60.918 163.526C61.0267 163.962 61.0822 164.409 61.0835 164.858C61.0022 165.354 60.8249 165.83 60.5615 166.258C60.3485 166.681 60.1584 167.113 59.991 167.556C59.8056 168.03 59.6402 168.515 59.4947 169.005C59.3236 169.601 59.2095 170.309 59.6031 170.788C59.7254 170.905 59.8336 171.036 59.9254 171.179C59.9995 171.397 59.9995 171.634 59.9254 171.852C59.6991 172.803 59.4576 173.754 59.2009 174.704C59.0012 175.446 58.7902 176.182 58.5734 176.918C56.9704 182.3 55.1505 187.628 54.078 193.142C53.924 193.935 52.9057 194.503 52.1185 194.677C51.722 194.761 51.3111 194.751 50.9195 194.646C50.5278 194.542 50.1665 194.346 49.8651 194.075C49.8109 194.026 49.7595 193.972 49.7111 193.921C48.8839 193.031 48.7612 191.665 48.824 190.432C49.1092 184.759 51.9616 179.565 53.3193 174.051C53.8104 172.057 54.1065 170.021 54.2035 167.97C54.5202 161.124 54.6485 153.885 52.7118 147.304C52.3096 145.935 51.8332 144.389 52.5577 143.163C53.0141 142.387 53.8613 141.928 54.6999 141.597C56.4101 140.93 58.2363 140.612 60.0711 140.661C61.906 140.71 63.7126 141.125 65.3849 141.882C65.3876 142.019 65.3819 142.156 65.3677 142.293C65.2951 142.93 65.3693 143.576 65.5845 144.181C65.6953 144.436 65.7609 144.708 65.7785 144.985Z" fill="#303D5C"/>
<path d="M42.3264 198.399L41.9641 199.717C41.7712 200.509 41.5136 201.285 41.194 202.036C40.9209 202.54 40.6919 203.067 40.5094 203.61C40.4078 204.053 40.3684 204.508 40.3925 204.962C40.385 205.396 40.4476 205.829 40.5779 206.243C40.7487 206.651 41.0028 207.02 41.324 207.324C41.6452 207.629 42.0265 207.863 42.4433 208.011C43.2787 208.305 44.154 208.47 45.039 208.499C45.2657 208.531 45.4959 208.525 45.7207 208.482C45.9614 208.413 46.1856 208.295 46.3796 208.137C47.5833 207.256 48.2023 205.63 48.3107 204.144C48.2796 203.797 48.2117 203.455 48.1082 203.122C48.014 202.997 47.1041 203.51 47.4949 203.941C48.0654 204.574 46.3853 204.246 45.5296 204.192C45.1537 204.16 44.7809 204.099 44.4143 204.01L43.0281 203.724C42.5746 203.627 42.0526 203.47 41.8871 203.037C41.7217 202.603 42.0754 202.084 42.3492 201.662C43.0737 200.541 43.262 199.169 43.4303 197.846C43.4616 197.586 43.7868 195.9 43.1165 196.419C42.8864 196.665 42.7259 196.967 42.6516 197.295C42.5289 197.652 42.4262 198.025 42.3264 198.399Z" fill="#303D5C"/>
<path opacity="0.05" d="M59.5888 170.791C59.1952 170.312 59.3036 169.604 59.4833 169.008C59.546 168.786 59.6173 168.566 59.6915 168.346L54.2492 166.504C54.2292 166.994 54.2064 167.479 54.1836 167.964C54.0887 170.016 53.7935 172.054 53.3022 174.048C51.9416 179.559 49.0864 184.753 48.8068 190.424C48.7412 191.73 48.881 193.191 49.848 194.069C50.1488 194.34 50.5095 194.536 50.9007 194.641C51.2918 194.747 51.7023 194.758 52.0985 194.674C52.8886 194.5 53.904 193.929 54.0609 193.136C55.1391 187.623 56.9504 182.297 58.5563 176.909C59.0564 175.238 59.5071 173.553 59.9083 171.855C59.9824 171.637 59.9824 171.402 59.9083 171.184C59.819 171.04 59.7116 170.908 59.5888 170.791Z" fill="black"/>
<path d="M44.5511 192.42C44.1204 193.162 43.4643 193.818 43.3645 194.668C43.3046 195.179 43.4615 195.692 43.4586 196.208C43.4376 196.636 43.3618 197.058 43.2333 197.466C42.7028 199.381 42.0923 201.269 41.4021 203.131C41.2886 203.371 41.2385 203.636 41.2566 203.901C41.3251 204.338 41.7501 204.626 42.1551 204.8C43.4529 205.353 44.9133 205.316 46.3224 205.259C46.7322 205.276 47.1384 205.177 47.4947 204.974C47.9996 204.629 48.1251 203.947 48.1565 203.336C48.2535 201.568 47.954 199.791 48.1565 198.034C48.2278 197.392 48.3619 196.762 48.4617 196.126C48.6015 195.241 48.6728 194.311 48.3818 193.464C48.1409 192.856 47.8039 192.291 47.3835 191.79C47.0126 191.247 46.5434 190.779 46.0001 190.409C45.8347 190.312 45.364 190.01 45.1957 190.198C45.1102 190.295 45.1472 190.555 45.1358 190.675C45.1137 190.859 45.0813 191.042 45.0389 191.222C44.9346 191.643 44.7703 192.046 44.5511 192.42Z" fill="#EE8E9E"/>
<path opacity="0.05" d="M55.0078 147.193C54.7539 147.538 54.8053 148.017 54.908 148.434C55.0877 149.187 55.39 149.909 55.6353 150.642C56.0368 151.958 56.3493 153.3 56.5709 154.658C56.7991 155.884 57.284 157.251 57.0872 158.486C58.5749 161.317 59.553 164.389 59.9766 167.559C60.0879 168.372 58.2823 169.422 58.3166 170.24C58.385 171.872 59.6857 172.003 58.7273 173.304C58.6788 173.369 59.0867 174.827 59.0325 174.89C58.6417 175.36 58.1454 175.745 57.7261 176.176C57.1853 176.789 56.7226 177.466 56.3484 178.193C53.8668 182.677 50.2786 187.76 51.3853 192.766C51.4078 192.946 51.3745 193.129 51.2898 193.289C51.2052 193.45 51.0732 193.581 50.9118 193.664C50.5842 193.822 50.2256 193.904 49.8621 193.906H49.691C48.8638 193.017 48.7411 191.65 48.8039 190.418C49.0891 184.745 51.9415 179.55 53.2992 174.037C53.7903 172.043 54.0864 170.007 54.1835 167.956C54.5001 161.11 54.6284 153.871 52.6917 147.29C52.2895 145.921 51.8131 144.375 52.5376 143.148C52.994 142.373 53.8412 141.913 54.6798 141.583C56.39 140.916 58.2162 140.598 60.0511 140.647C61.8859 140.696 63.6925 141.111 65.3648 141.868C65.3676 142.005 65.3618 142.142 65.3477 142.278C65.275 142.916 65.3492 143.562 65.5644 144.167C65.684 144.426 65.7565 144.704 65.7784 144.988C65.7784 144.988 65.8753 143.884 65.8725 143.901C63.6619 144.218 61.3287 145.664 59.0981 145.992C57.9417 146.116 56.8024 146.366 55.7009 146.74C55.4326 146.824 55.1927 146.981 55.0078 147.193Z" fill="black"/>
<path d="M39.6078 135.048C39.3092 135.999 39.0459 136.959 38.8177 137.929C38.7161 138.264 38.6889 138.617 38.7378 138.964C38.8091 139.289 39.0231 139.58 39.0459 139.911C39.0972 140.424 38.7407 140.878 38.5439 141.354C38.0418 142.567 38.5781 143.936 39.1143 145.137L40.6888 148.702L41.9838 151.629C42.3689 152.499 42.7511 153.369 43.1248 154.244C44.8077 158.24 46.1818 162.358 47.235 166.564C47.2705 166.754 47.3421 166.936 47.4461 167.1C47.6657 167.385 48.0622 167.476 48.3817 167.653C49.3515 168.184 49.4627 169.775 48.5757 170.437C48.7582 172.579 47.1495 174.647 46.3251 176.632C44.4197 181.196 44.7649 186.331 44.1117 191.237L44.8505 190.803C45.5607 191.128 45.535 192.135 45.9172 192.817C46.4877 193.841 47.8911 193.983 49.0549 193.906C49.4175 193.905 49.7752 193.822 50.1017 193.664C50.2634 193.581 50.3956 193.45 50.4803 193.29C50.565 193.129 50.5981 192.946 50.5752 192.766C49.4713 187.76 53.0567 182.677 55.5412 178.193C55.9143 177.466 56.3761 176.789 56.916 176.176C57.3382 175.731 57.8316 175.357 58.2252 174.89C59.3206 173.575 59.4603 171.721 59.3862 170.009C59.2122 165.985 58.1505 162.049 56.2771 158.483C56.4767 157.251 55.9918 155.884 55.7636 154.658C55.5412 153.3 55.2258 151.959 54.8195 150.645C54.5742 149.906 54.2747 149.187 54.0921 148.434C53.9923 148.017 53.9381 147.538 54.192 147.193C54.3795 146.98 54.6224 146.823 54.8937 146.74C55.9951 146.366 57.1344 146.116 58.2908 145.992L65.9438 144.894C66.1891 143.322 66.4401 141.571 66.2689 139.991C66.085 138.527 65.4754 137.148 64.5155 136.027C63.5557 134.906 62.2879 134.092 60.8694 133.684C60.5357 133.596 60.1449 133.539 59.8711 133.75C53.118 132.424 46.1366 132.871 39.6078 135.048Z" fill="#303D5C"/>
<path d="M46.5477 93.714C46.6592 94.4611 46.5429 95.2245 46.214 95.9046C45.9917 96.276 45.7014 96.6021 45.3582 96.8658C44.6183 97.4608 43.758 97.888 42.8367 98.118C42.2948 98.2549 41.6958 98.3462 41.3278 98.7769C40.7916 99.4244 41.151 100.406 41.6131 101.113C42.406 102.345 43.507 103.461 44.919 103.846C46.0599 104.154 47.2494 103.965 48.4017 104.165C49.2375 104.311 50.0247 104.656 50.8491 104.852C52.0221 105.121 53.2435 105.092 54.4026 104.769C55.5617 104.446 56.6217 103.838 57.4865 103.001C56.26 102.06 54.9879 101.059 54.3489 99.6497C53.8992 98.6413 53.8145 97.5078 54.1093 96.4437C54.3946 95.3997 55.0649 94.3843 54.8595 93.3061C54.6541 92.2279 53.6045 91.5062 52.5776 91.1468C51.6348 90.8605 50.666 90.6684 49.6853 90.5735C49.1462 90.4993 45.7233 89.7435 45.5094 90.1171C45.3896 90.3282 46.0999 91.5775 46.1883 91.8542C46.3968 92.4536 46.5178 93.08 46.5477 93.714Z" fill="#EE8E9E"/>
<path d="M50.8635 96.2126C54.6978 96.2126 57.8061 93.1043 57.8061 89.2699C57.8061 85.4356 54.6978 82.3273 50.8635 82.3273C47.0291 82.3273 43.9208 85.4356 43.9208 89.2699C43.9208 93.1043 47.0291 96.2126 50.8635 96.2126Z" fill="#EE8E9E"/>
<path d="M47.1951 100.745L51.9044 101.538C53.0619 101.774 54.2402 101.892 55.4214 101.892C56.0663 101.828 56.7161 101.828 57.361 101.892C57.806 101.966 58.231 102.134 58.6759 102.191C59.2265 102.26 59.7855 102.154 60.336 102.225C61.3572 102.357 62.1986 103.064 62.9745 103.74C63.8844 104.533 64.8627 105.451 64.9341 106.664C64.9468 106.801 64.9273 106.94 64.877 107.069C64.7876 107.214 64.668 107.339 64.5262 107.434C63.6705 108.144 63.177 109.202 62.5609 110.138C61.9265 111.103 61.1361 111.956 60.2219 112.662C60.0166 112.531 59.6258 112.876 59.7142 113.104C59.8026 113.333 60.028 113.489 60.1021 113.721C60.2704 114.254 59.6115 114.648 59.3377 115.147C59.0639 115.646 59.2036 116.253 59.1751 116.821C59.1409 117.446 58.8899 118.042 58.8129 118.661C58.6218 120.107 59.3377 121.63 58.8328 122.996C59.4518 122.919 60.0109 123.453 60.1849 124.049C60.3588 124.645 60.2476 125.287 60.1307 125.897C60.5282 126.135 60.8531 126.477 61.0703 126.887C61.2874 127.296 61.3886 127.757 61.3629 128.219C61.3386 128.274 61.327 128.333 61.3287 128.393C61.3304 128.453 61.3455 128.511 61.3729 128.564C61.4003 128.617 61.4392 128.664 61.4868 128.7C61.5345 128.736 61.5896 128.761 61.6481 128.773C62.0775 128.951 62.4441 129.254 62.7015 129.641C62.959 130.029 63.0956 130.484 63.0943 130.949C63.0752 131.104 63.0898 131.262 63.1371 131.411C63.2202 131.554 63.3366 131.674 63.4765 131.762C63.7929 132.016 64.0479 132.338 64.2227 132.705C64.3975 133.071 64.4876 133.472 64.4862 133.878C64.4862 134.429 64.258 135.019 63.7703 135.267C62.772 135.775 61.7023 135.972 60.607 136.209C59.5977 136.447 58.576 136.629 57.5464 136.753C56.5977 136.831 55.6457 136.861 54.694 136.842L48.396 136.816C46.6247 136.816 44.8533 136.816 43.0877 136.682C41.439 136.571 39.7533 136.366 38.156 136.799C37.9563 136.46 38.2758 136.069 38.4726 135.729C38.6982 135.267 38.8208 134.761 38.832 134.246L39.2313 130.05C39.3073 129.473 39.3178 128.89 39.2627 128.31C39.1771 127.691 38.9432 127.107 38.8234 126.493C38.5952 125.318 38.8035 124.103 38.7493 122.905C38.6678 121.844 38.4834 120.793 38.1988 119.768L36.9494 114.633C36.7497 113.809 36.6442 112.851 36.3362 112.066C35.3759 109.594 34.369 107.149 33.3155 104.73C33.2774 104.624 33.2627 104.511 33.2726 104.398C33.2824 104.286 33.3165 104.177 33.3725 104.08L34.4137 102.214C34.6922 101.684 35.0107 101.176 35.3663 100.694C36.2456 99.5817 37.4908 98.8177 38.8805 98.5373C40.272 98.2652 41.7148 98.4787 42.9679 99.142C43.4528 99.4016 43.9035 99.7125 44.3941 99.9692C45.2356 100.369 46.2624 100.808 47.1951 100.745Z" fill="#3CB9FF"/>
<path d="M63.9044 105.317L65.5445 107.505C65.6953 107.691 65.8235 107.894 65.9267 108.11C66.172 108.68 66.038 109.354 66.1692 109.967C66.2714 110.359 66.434 110.734 66.6512 111.076C67.2678 112.161 67.9648 113.197 68.7363 114.177C69.0928 114.675 69.5317 115.108 70.0342 115.458C70.2858 115.632 70.572 115.749 70.8732 115.803C71.1743 115.857 71.4836 115.845 71.7798 115.769C71.532 115.865 71.3287 116.05 71.2093 116.288C70.5847 117.526 70.539 118.992 70.8043 120.349C70.8789 120.815 71.0333 121.265 71.2607 121.679C71.4884 122.096 71.8591 122.417 72.3046 122.583C72.2766 122.79 72.2067 122.989 72.0991 123.167C71.9915 123.346 71.8486 123.501 71.6791 123.623C71.5095 123.745 71.3169 123.831 71.1131 123.876C70.9092 123.92 70.6983 123.923 70.4934 123.884C70.1705 123.787 69.8666 123.635 69.5949 123.436L66.9593 121.724C66.5194 121.461 66.1083 121.152 65.7328 120.803C65.2393 120.312 64.897 119.691 64.4178 119.186C63.602 118.33 62.4041 117.805 61.8279 116.767C61.4656 116.117 61.4029 115.341 61.1804 114.639C61.0349 114.174 60.821 113.735 60.6812 113.267C60.2477 111.824 60.5614 110.241 61.2203 108.886C61.8792 107.531 62.9289 106.47 63.9044 105.317Z" fill="#3CB9FF"/>
<path d="M57.7234 85.3109C57.0809 84.3144 56.2518 83.4514 55.2818 82.7695C53.984 81.8025 52.4922 80.9981 50.8749 80.9069C50.1987 80.8724 49.5229 80.9822 48.8925 81.2292C48.8611 79.2696 48.3762 77.9632 47.1497 78.16C44.8678 78.528 42.3292 79.4065 41.4449 81.5458C40.786 83.1631 41.2966 84.9829 41.4649 86.72C41.5287 87.1786 41.5123 87.6447 41.4164 88.0977C41.2281 88.8307 40.709 89.424 40.207 89.9917C39.5096 90.7124 38.9241 91.5334 38.4699 92.4276C38.0592 93.3403 37.9279 94.4242 38.353 95.337C38.4975 95.5715 38.5945 95.8323 38.6382 96.1043C38.6667 96.6976 38.0449 97.0741 37.5885 97.4535C35.8771 98.8797 35.9484 101.447 35.9341 103.68C35.9078 108.234 34.8969 112.729 32.9705 116.855C33.6925 117.221 34.5079 117.36 35.3103 117.256C36.1127 117.151 36.8649 116.807 37.4687 116.268C37.2315 117.282 36.8893 118.268 36.4476 119.211C37.8966 119.913 39.6451 118.761 40.3724 117.323C41.0998 115.886 41.1854 114.214 41.7016 112.688C42.2179 111.162 43.1278 109.836 43.53 108.298C43.6584 107.79 43.7382 107.249 44.0491 106.826C44.3111 106.521 44.6191 106.258 44.9619 106.048C46.4565 104.975 44.2545 96.8488 44.8392 95.1031C45.695 95.2942 47.3066 91.1098 48.2165 86.8312C48.851 87.05 49.5279 87.1174 50.1932 87.028C50.4244 86.9779 50.6617 86.9616 50.8977 86.9796C51.1168 87.0245 51.3257 87.1096 51.5138 87.2306C52.1871 87.6437 52.8908 88.0051 53.6189 88.3116C55.1249 88.8821 56.7793 88.7994 58.3852 88.7195C58.6027 87.5405 58.3663 86.3229 57.7234 85.3109Z" fill="#303D5C"/>
<g opacity="0.1">
<path opacity="0.1" d="M33.7863 116.855C35.7185 112.734 36.7345 108.243 36.7642 103.692C36.7784 101.467 36.7043 98.8825 38.4186 97.4649C38.8749 97.0855 39.4968 96.709 39.4682 96.1157C39.4234 95.844 39.3265 95.5834 39.183 95.3484C38.758 94.4413 38.8978 93.3517 39.2971 92.439C39.7513 91.5442 40.3379 90.723 41.037 90.003C41.5362 89.4326 42.0582 88.8421 42.2436 88.1091C42.3392 87.6561 42.3566 87.1902 42.2949 86.7314C42.1238 84.9943 41.6161 83.1745 42.275 81.5572C43.1307 79.4863 45.5238 78.5992 47.7487 78.2113C47.5552 78.1496 47.3496 78.1359 47.1497 78.1714C44.8678 78.5394 42.3292 79.4179 41.4449 81.5572C40.786 83.1745 41.2966 84.9943 41.4649 86.7314C41.5287 87.1899 41.5123 87.6561 41.4164 88.1091C41.2281 88.8421 40.709 89.4354 40.207 90.003C39.5096 90.7237 38.9241 91.5448 38.4699 92.439C38.0592 93.3517 37.9279 94.4356 38.353 95.3484C38.4975 95.5829 38.5945 95.8437 38.6382 96.1157C38.6667 96.709 38.0449 97.0855 37.5885 97.4649C35.8771 98.891 35.9484 101.458 35.9341 103.692C35.9062 108.242 34.8953 112.732 32.9705 116.855C33.6492 117.206 34.4158 117.35 35.1754 117.269C34.69 117.222 34.2182 117.082 33.7863 116.855Z" fill="black"/>
<path opacity="0.1" d="M37.2631 119.2C37.7019 118.256 38.0413 117.27 38.2757 116.256C37.9828 116.524 37.6498 116.745 37.2888 116.909C37.0663 117.692 36.7801 118.455 36.4331 119.191C36.8503 119.39 37.32 119.45 37.7737 119.362C37.5974 119.33 37.4258 119.275 37.2631 119.2Z" fill="black"/>
<path opacity="0.1" d="M49.7082 81.2291C50.1324 81.064 50.5781 80.9602 51.0317 80.9211H50.8748C50.4818 80.9008 50.0879 80.9305 49.7025 81.0095C49.7053 81.0722 49.7082 81.1493 49.7082 81.2291Z" fill="black"/>
<path opacity="0.1" d="M54.4345 88.303C53.7073 87.9965 53.0046 87.6351 52.3323 87.2219C52.1431 87.1009 51.9333 87.0158 51.7133 86.9709C51.4976 86.9515 51.2803 86.965 51.0687 87.0109C51.2232 87.0672 51.3722 87.1379 51.5136 87.2219C52.1869 87.6351 52.8906 87.9965 53.6187 88.303C54.7524 88.6769 55.9469 88.8318 57.1385 88.7594C56.218 88.7591 55.3041 88.6048 54.4345 88.303Z" fill="black"/>
<path opacity="0.1" d="M49.0319 86.8227C49.0319 86.8854 49.0062 86.9482 48.9919 87.0109C49.3337 87.0618 49.6804 87.0713 50.0245 87.0394C49.6866 87.0044 49.3537 86.9316 49.0319 86.8227Z" fill="black"/>
</g>
<path d="M34.5819 119.02C34.6216 119.388 34.5809 119.759 34.4627 120.11C34.3445 120.46 34.1516 120.78 33.8973 121.048C33.6082 121.327 33.283 121.566 32.9304 121.759C32.5902 121.992 32.1988 122.139 31.7894 122.189C31.2376 122.171 30.7133 121.944 30.3233 121.553C29.1139 120.492 28.5092 118.92 27.9501 117.412C27.2114 115.415 26.4754 113.398 26.1588 111.29C25.8194 109.031 25.9649 106.692 25.3174 104.499C25.8879 103.358 26.2587 102.086 26.9119 100.979C27.3264 100.319 27.6934 99.6313 28.01 98.9196C28.6166 97.4044 28.685 95.7271 28.204 94.1675C28.3184 94.0929 28.4535 94.0566 28.5899 94.0638C28.7262 94.071 28.8568 94.1213 28.9627 94.2074C29.17 94.3855 29.3273 94.6146 29.4191 94.872C29.7957 95.752 29.9524 96.7104 29.8755 97.6645C29.8267 97.8941 29.8537 98.1333 29.9525 98.3462C30.0409 98.4554 30.1548 98.5411 30.2841 98.5958C30.4134 98.6505 30.5542 98.6726 30.6941 98.66C31.2757 98.6312 31.851 98.5267 32.4055 98.3491C34.1287 97.9094 35.9133 97.7619 37.6853 97.9127C38.0423 97.9232 38.3931 98.0087 38.715 98.1637C38.8741 98.2431 39.008 98.3651 39.1017 98.5163C39.1954 98.6674 39.2452 98.8416 39.2455 99.0194L35.024 99.6384C34.7062 99.6561 34.3994 99.7607 34.1369 99.9407C34.0107 100.036 33.9272 100.177 33.9047 100.334C33.8823 100.49 33.9227 100.65 34.0171 100.776C34.1063 100.849 34.2018 100.914 34.3024 100.97C34.4106 101.052 34.4978 101.159 34.5567 101.281C34.6157 101.403 34.6446 101.538 34.6413 101.674C34.638 101.809 34.6024 101.942 34.5375 102.062C34.4726 102.181 34.3803 102.283 34.2681 102.36C34.1619 102.409 34.0653 102.476 33.9829 102.559C33.8118 102.79 34.0399 103.095 34.1141 103.375C34.1461 103.581 34.1147 103.792 34.024 103.98C33.9333 104.168 33.7877 104.324 33.6064 104.427C33.2403 104.628 32.8414 104.763 32.4284 104.824C31.5994 105.015 30.7919 105.289 30.0181 105.643C29.7662 105.732 29.5474 105.897 29.3906 106.113C29.1824 106.467 29.3193 106.912 29.4619 107.297L30.5629 110.258C30.734 110.723 30.908 111.188 31.1334 111.635C31.4186 112.206 31.758 112.759 32.0461 113.347C32.3342 113.934 32.5225 114.445 32.7336 115.004C33.2841 116.513 34.3936 117.426 34.5819 119.02Z" fill="#EE8E9E"/>
<path d="M85.8337 99.8124H72.6757V112.551H85.8337V99.8124Z" fill="url(#paint12_linear)"/>
<path d="M85.608 100.032H72.9035V112.331H85.608V100.032Z" fill="#7CFCFF"/>
<path d="M83.4059 99.0622C83.1712 99.2367 83.0015 99.4847 82.9239 99.7667C82.9059 99.8248 82.907 99.8872 82.927 99.9447C82.947 100.002 82.9849 100.052 83.0351 100.086C83.0982 100.106 83.166 100.106 83.2291 100.086C83.5449 100.03 83.8402 99.8914 84.0848 99.684C83.9878 99.7355 83.9016 99.8052 83.8309 99.8893C83.7961 99.9319 83.7744 99.9837 83.7683 100.038C83.7623 100.093 83.7721 100.148 83.7967 100.197C83.8318 100.24 83.8752 100.275 83.9242 100.3C83.9733 100.325 84.027 100.339 84.0819 100.343C84.4889 100.417 84.9073 100.397 85.3056 100.286C85.12 100.355 84.9482 100.456 84.7979 100.585C84.7232 100.651 84.6638 100.732 84.6239 100.824C84.584 100.915 84.5645 101.014 84.5668 101.113C84.5671 101.15 84.5755 101.187 84.5912 101.221C84.6069 101.255 84.6297 101.285 84.6581 101.31C84.6996 101.336 84.7463 101.353 84.795 101.358C85.1725 101.425 85.5586 101.425 85.936 101.358C86.0333 101.354 86.1281 101.326 86.2118 101.277C86.2955 101.227 86.3654 101.157 86.4152 101.073C86.4345 100.979 86.4347 100.881 86.4156 100.787C86.3964 100.692 86.3585 100.602 86.3039 100.523C86.1016 100.087 86.0039 99.6105 86.0187 99.1306C86.0311 99.0337 86.0173 98.9352 85.9788 98.8454C85.9159 98.7583 85.827 98.6934 85.7249 98.66C85.3227 98.4831 84.7751 98.2378 84.3272 98.3747C83.9779 98.541 83.6648 98.7746 83.4059 99.0622Z" fill="#EE8E9E"/>
</g>
<defs>
<linearGradient id="paint0_linear" x1="120.33" y1="94.5811" x2="120.33" y2="81.8424" gradientUnits="userSpaceOnUse">
<stop stop-color="#808080" stop-opacity="0.25"/>
<stop offset="0.54" stop-color="#808080" stop-opacity="0.12"/>
<stop offset="1" stop-color="#808080" stop-opacity="0.1"/>
</linearGradient>
<linearGradient id="paint1_linear" x1="6942.24" y1="4165.65" x2="6942.24" y2="3596.74" gradientUnits="userSpaceOnUse">
<stop stop-color="#808080" stop-opacity="0.25"/>
<stop offset="0.54" stop-color="#808080" stop-opacity="0.12"/>
<stop offset="1" stop-color="#808080" stop-opacity="0.1"/>
</linearGradient>
<linearGradient id="paint2_linear" x1="9402.34" y1="6145.29" x2="9402.34" y2="5576.38" gradientUnits="userSpaceOnUse">
<stop stop-color="#808080" stop-opacity="0.25"/>
<stop offset="0.54" stop-color="#808080" stop-opacity="0.12"/>
<stop offset="1" stop-color="#808080" stop-opacity="0.1"/>
</linearGradient>
<linearGradient id="paint3_linear" x1="3940.76" y1="3255.15" x2="3940.76" y2="2686.24" gradientUnits="userSpaceOnUse">
<stop stop-color="#808080" stop-opacity="0.25"/>
<stop offset="0.54" stop-color="#808080" stop-opacity="0.12"/>
<stop offset="1" stop-color="#808080" stop-opacity="0.1"/>
</linearGradient>
<linearGradient id="paint4_linear" x1="5172.96" y1="4088.69" x2="5172.96" y2="3519.78" gradientUnits="userSpaceOnUse">
<stop stop-color="#808080" stop-opacity="0.25"/>
<stop offset="0.54" stop-color="#808080" stop-opacity="0.12"/>
<stop offset="1" stop-color="#808080" stop-opacity="0.1"/>
</linearGradient>
<linearGradient id="paint5_linear" x1="10127.7" y1="6141.13" x2="10127.7" y2="5572.22" gradientUnits="userSpaceOnUse">
<stop stop-color="#808080" stop-opacity="0.25"/>
<stop offset="0.54" stop-color="#808080" stop-opacity="0.12"/>
<stop offset="1" stop-color="#808080" stop-opacity="0.1"/>
</linearGradient>
<linearGradient id="paint6_linear" x1="11216.6" y1="3262.84" x2="11216.6" y2="2693.93" gradientUnits="userSpaceOnUse">
<stop stop-color="#808080" stop-opacity="0.25"/>
<stop offset="0.54" stop-color="#808080" stop-opacity="0.12"/>
<stop offset="1" stop-color="#808080" stop-opacity="0.1"/>
</linearGradient>
<linearGradient id="paint7_linear" x1="11149.4" y1="5112.24" x2="11149.4" y2="4543.33" gradientUnits="userSpaceOnUse">
<stop stop-color="#808080" stop-opacity="0.25"/>
<stop offset="0.54" stop-color="#808080" stop-opacity="0.12"/>
<stop offset="1" stop-color="#808080" stop-opacity="0.1"/>
</linearGradient>
<linearGradient id="paint8_linear" x1="11619.9" y1="5242.48" x2="11619.9" y2="4673.57" gradientUnits="userSpaceOnUse">
<stop stop-color="#808080" stop-opacity="0.25"/>
<stop offset="0.54" stop-color="#808080" stop-opacity="0.12"/>
<stop offset="1" stop-color="#808080" stop-opacity="0.1"/>
</linearGradient>
<linearGradient id="paint9_linear" x1="9636.12" y1="5938.09" x2="9636.12" y2="5369.18" gradientUnits="userSpaceOnUse">
<stop stop-color="#808080" stop-opacity="0.25"/>
<stop offset="0.54" stop-color="#808080" stop-opacity="0.12"/>
<stop offset="1" stop-color="#808080" stop-opacity="0.1"/>
</linearGradient>
<linearGradient id="paint10_linear" x1="9703.34" y1="4179.85" x2="9703.34" y2="3610.94" gradientUnits="userSpaceOnUse">
<stop stop-color="#808080" stop-opacity="0.25"/>
<stop offset="0.54" stop-color="#808080" stop-opacity="0.12"/>
<stop offset="1" stop-color="#808080" stop-opacity="0.1"/>
</linearGradient>
<linearGradient id="paint11_linear" x1="7788.42" y1="73890.4" x2="21924.4" y2="73890.4" gradientUnits="userSpaceOnUse">
<stop stop-color="#808080" stop-opacity="0.25"/>
<stop offset="0.54" stop-color="#808080" stop-opacity="0.12"/>
<stop offset="1" stop-color="#808080" stop-opacity="0.1"/>
</linearGradient>
<linearGradient id="paint12_linear" x1="3728.76" y1="5112.24" x2="3728.76" y2="4543.33" gradientUnits="userSpaceOnUse">
<stop stop-color="#808080" stop-opacity="0.25"/>
<stop offset="0.54" stop-color="#808080" stop-opacity="0.12"/>
<stop offset="1" stop-color="#808080" stop-opacity="0.1"/>
</linearGradient>
<clipPath id="clip0">
<rect width="323" height="218.814" fill="white" transform="translate(-0.00012207 0.315918)"/>
</clipPath>
</defs>
</svg>
