<svg width="350" height="238" viewBox="0 0 350 238" fill="none" xmlns="http://www.w3.org/2000/svg">
<g clip-path="url(#clip0)">
<path d="M107.874 206.812C84.0094 206.812 60.8834 198.537 42.436 183.398C23.9886 168.259 11.3612 147.191 6.70548 123.786C2.04972 100.38 5.65364 76.0839 16.9031 55.0374C28.1527 33.9909 46.3517 17.4962 68.3995 8.36369C90.4472 -0.768815 114.979 -1.97404 137.816 4.95337C160.653 11.8808 180.381 26.5122 193.639 46.3546C206.898 66.1971 212.866 90.0228 210.527 113.772C208.188 137.522 197.686 159.725 180.811 176.6C171.255 186.208 159.889 193.826 147.369 199.012C134.849 204.198 121.425 206.849 107.874 206.812ZM107.874 1.29971C51.4311 1.29971 5.51152 47.2191 5.51152 103.662C5.51152 160.105 51.4311 206.024 107.874 206.024C164.316 206.024 210.236 160.105 210.236 103.662C210.236 47.2191 164.316 1.29971 107.874 1.29971Z" fill="#DDDDDD"/>
<path d="M48.8188 233.977C75.7807 233.977 97.6377 212.12 97.6377 185.158C97.6377 158.196 75.7807 136.339 48.8188 136.339C21.8568 136.339 -0.00012207 158.196 -0.00012207 185.158C-0.00012207 212.12 21.8568 233.977 48.8188 233.977Z" fill="#F2F2F2"/>
<path d="M161.614 136.311L161.602 136.316L110.763 164.625L55.0926 136.79L54.1333 136.311L57.0226 78.5254L107.296 42.6985L107.851 43.0454L159.88 75.6361L161.614 136.311Z" fill="#3CB9FF"/>
<path opacity="0.3" d="M161.602 136.317L110.763 164.626L55.0927 136.79L104.406 102.218L161.602 136.317Z" fill="black"/>
<path opacity="0.1" d="M161.614 136.311L104.407 102.218L107.851 43.0454L159.881 75.6362L161.614 136.311Z" fill="black"/>
<path d="M56.2825 96.3564L56 95.9565L106.834 60.0755L160.534 93.7433L160.274 94.1583L106.85 60.6634L56.2825 96.3564Z" fill="#F2F2F2"/>
<path d="M55.2976 115.988L55.0228 115.583L105.599 81.2453L105.732 81.3205L160.579 112.406L160.338 112.832L105.622 81.8213L55.2976 115.988Z" fill="#F2F2F2"/>
<path d="M74.5948 146.685L74.3369 146.269L125.309 114.684V54.1346H125.799V114.957L74.5948 146.685Z" fill="#F2F2F2"/>
<path d="M94.6014 156.687L94.3413 156.272L143.422 125.488V65.4799H143.911V125.759L94.6014 156.687Z" fill="#F2F2F2"/>
<path d="M143.237 146.691L86.1561 114.976L86.1642 114.823L89.1691 55.4302L89.6579 55.4552L86.6607 114.695L143.475 146.263L143.237 146.691Z" fill="#F2F2F2"/>
<path d="M125.278 156.696L68.8383 127.119L68.847 126.962L72.1741 67.54L72.663 67.5674L69.345 126.832L125.506 156.263L125.278 156.696Z" fill="#F2F2F2"/>
<path d="M171.26 42.6384C182.132 42.6384 190.945 33.8251 190.945 22.9534C190.945 12.0816 182.132 3.26831 171.26 3.26831C160.388 3.26831 151.575 12.0816 151.575 22.9534C151.575 33.8251 160.388 42.6384 171.26 42.6384Z" fill="#3F3D56"/>
<path d="M350 233.19H11.4172V233.977H350V233.19Z" fill="#2F2E41"/>
<path d="M310.691 127.304L315.19 139.629C315.19 139.629 310.495 153.715 315.19 154.106C319.885 154.498 320.472 140.608 320.472 140.608L317.929 125.739L310.691 127.304Z" fill="#FFB9B9"/>
<path d="M312.842 87.004L316.168 90.3298V106.176C316.168 106.176 318.124 109.111 317.733 109.893C317.342 110.676 316.951 110.676 317.342 111.263C317.733 111.849 318.124 112.241 317.733 112.632C317.543 112.886 317.44 113.195 317.44 113.512C317.44 113.83 317.543 114.139 317.733 114.393C318.124 114.784 318.907 115.371 318.32 115.958C317.733 116.545 316.951 116.153 317.733 118.305C318.516 120.457 319.885 121.044 319.494 121.827C319.103 122.609 319.103 124.566 319.103 124.566L310.69 125.739L308.93 103.633L312.842 87.004Z" fill="#D0CDE1"/>
<path d="M319.494 124.37L309.712 124.761L310.104 128.87L318.712 127.304L319.494 124.37Z" fill="#3F3D56"/>
<path d="M292.595 66.5601L291.421 78.2984L303.354 80.059L304.235 73.3095L305.115 66.5601H292.595Z" fill="#FFB9B9"/>
<path opacity="0.1" d="M292.595 66.5601L291.421 78.2984L303.354 80.059L304.235 73.3095L305.115 66.5601H292.595Z" fill="black"/>
<path d="M266.673 122.414L273.325 136.695C273.325 136.695 274.498 143.346 276.259 143.542C278.02 143.738 279.781 136.695 279.781 136.695L277.433 132.978L274.694 122.414L266.673 122.414Z" fill="#FFB9B9"/>
<path d="M280.563 135.325L275.085 143.933C275.085 143.933 269.803 225.904 270.586 225.317C271.368 224.73 273.911 224.535 274.89 222.969C275.868 221.404 281.932 222.969 281.932 222.969L285.454 219.252V216.318C285.454 215.731 292.497 170.931 292.497 170.931V182.278C292.497 182.278 290.345 223.948 293.866 223.556C297.387 223.165 304.626 220.818 304.626 220.818C304.626 220.818 314.995 142.955 311.864 140.021C308.734 137.086 307.365 130.435 307.365 130.435L280.563 135.325Z" fill="#2F2E41"/>
<path d="M299.148 70.375C304.334 70.375 308.538 66.1708 308.538 60.9846C308.538 55.7984 304.334 51.5942 299.148 51.5942C293.962 51.5942 289.758 55.7984 289.758 60.9846C289.758 66.1708 293.962 70.375 299.148 70.375Z" fill="#FFB9B9"/>
<path d="M278.215 80.1567L276.846 79.3741C276.846 79.3741 270.781 83.4825 268.825 92.6773C266.869 101.872 265.499 104.22 265.499 104.22C265.499 104.22 263.543 104.611 264.912 105.98C266.282 107.35 266.282 107.154 265.108 107.937C263.934 108.719 263.152 107.154 263.934 108.719C264.717 110.284 265.695 109.893 264.912 110.871C264.13 111.849 262.76 111.849 263.543 112.632C264.325 113.414 262.76 115.175 263.739 115.958C264.717 116.74 265.108 116.936 265.108 118.305C265.102 119.105 265.234 119.899 265.499 120.653H275.672C275.672 120.653 273.716 116.936 274.303 116.153C274.89 115.371 275.085 114.588 274.694 114.197C274.303 113.806 273.129 114.588 274.303 113.61C275.477 112.632 275.868 113.219 275.477 112.045C275.085 110.871 274.303 111.458 275.085 110.871C275.868 110.284 276.455 110.48 276.063 109.893C275.672 109.306 274.89 109.306 275.672 108.915C276.455 108.524 277.042 108.915 276.846 107.937C276.65 106.959 276.455 107.35 276.846 106.959C277.237 106.567 281.346 93.2642 281.346 92.8729C281.346 92.4816 278.215 80.1567 278.215 80.1567Z" fill="#D0CDE1"/>
<path d="M276.26 119.87L263.934 120.653L267.065 123.588L275.673 123.783L276.26 119.87Z" fill="#3F3D56"/>
<path d="M279.78 134.543L277.237 139.238C277.237 139.238 284.867 140.216 287.606 141.195C290.345 142.173 297.388 143.542 297.388 143.542L299.148 136.695L279.78 134.543Z" fill="#3F3D56"/>
<path d="M302.083 136.695L304.235 143.151L312.843 141.39L311.864 135.326L302.083 136.695Z" fill="#3F3D56"/>
<path d="M305.604 73.5052C305.604 73.5052 305.017 73.1139 303.648 73.8965C302.278 74.679 297.779 75.0703 295.627 72.7227C293.475 70.3751 291.91 68.4187 291.323 68.81C290.736 69.2012 290.345 73.7009 290.345 73.7009L288.388 75.2659L276.846 79.3742L277.824 105.785L279.585 111.849C279.585 111.849 278.215 116.545 279.976 119.284C281.737 122.022 278.998 123.001 278.998 123.001C278.998 123.001 278.411 123.783 278.802 125.739C279.194 127.696 278.411 134.934 278.411 134.934C278.411 134.934 295.04 142.368 312.451 135.912L310.495 128.478L309.517 111.849C309.517 111.849 310.495 109.111 310.299 107.937C310.104 106.763 316.168 90.3297 316.168 90.3297C316.168 90.3297 315.19 82.1131 310.104 80.3524C305.017 78.5917 304.235 76.831 304.235 76.831C304.235 76.831 306.582 74.2877 305.604 73.5052Z" fill="#D0CDE1"/>
<path d="M289.692 62.1875C289.692 62.1875 288.717 60.7248 289.092 59.1496C289.316 58.2552 289.405 57.3323 289.355 56.4117C289.774 55.047 290.301 53.7177 290.93 52.4361C291.717 51.0109 291.342 50.4108 293.818 49.9607C296.293 49.5106 295.281 46.2851 301.806 49.7732C302.027 50.0806 302.333 50.3159 302.687 50.4494C303.041 50.5829 303.426 50.6086 303.794 50.5233C305.144 50.2607 305.632 52.136 305.632 52.136C305.632 52.136 306.532 51.6109 306.87 52.3611C307.207 53.1112 309.614 51.9109 309.614 56.9741C309.614 62.0374 306.875 66.5602 306.875 66.5602C306.875 66.5602 307.076 58.0432 302.613 57.1805C298.15 56.3179 293.349 53.805 292.186 57.0305C291.559 58.8408 290.722 60.5716 289.692 62.1875Z" fill="#2F2E41"/>
<path d="M306.973 64.2125C307.46 64.2125 307.854 63.687 307.854 63.0387C307.854 62.3905 307.46 61.8649 306.973 61.8649C306.487 61.8649 306.093 62.3905 306.093 63.0387C306.093 63.687 306.487 64.2125 306.973 64.2125Z" fill="#FFB9B9"/>
<path d="M301.985 220.124L303.361 224.252C303.361 224.252 303.361 228.379 304.736 230.443C306.112 232.507 307.488 236.979 301.985 237.323C296.481 237.667 294.073 235.603 294.073 235.603C294.073 235.603 295.105 232.851 294.073 231.819C293.042 230.787 294.073 228.723 294.073 228.723L295.105 220.468L301.985 220.124Z" fill="#2F2E41"/>
<path d="M275.184 220.124L273.808 224.252C273.808 224.252 273.808 228.379 272.432 230.443C271.056 232.507 269.68 236.979 275.184 237.323C280.687 237.667 283.095 235.603 283.095 235.603C283.095 235.603 282.063 232.851 283.095 231.819C284.127 230.787 283.095 228.723 283.095 228.723L282.063 220.468L275.184 220.124Z" fill="#2F2E41"/>
</g>
<defs>
<clipPath id="clip0">
<rect width="350" height="236.849" fill="white" transform="translate(-0.00012207 0.512207)"/>
</clipPath>
</defs>
</svg>
