<svg width="327" height="214" viewBox="0 0 327 214" fill="none" xmlns="http://www.w3.org/2000/svg">
<g clip-path="url(#clip0)">
<path d="M54.7059 139.964C54.7059 139.964 58.6846 146.274 57.2636 147.983C55.8427 149.691 67.9241 149.734 67.9241 149.734C67.9241 149.734 66.1094 140.554 66.6435 138.442L54.7059 139.964Z" fill="#FFB8B8"/>
<path d="M61.0641 142.251C67.9544 142.251 73.54 136.665 73.54 129.775C73.54 122.884 67.9544 117.299 61.0641 117.299C54.1739 117.299 48.5882 122.884 48.5882 129.775C48.5882 136.665 54.1739 142.251 61.0641 142.251Z" fill="#2F2E41"/>
<path d="M90.4076 197.397V204.794L97.8034 203.253L97.1873 198.014L90.4076 197.397Z" fill="#FFB8B8"/>
<path d="M116.602 198.63L137.249 202.02L132.01 209.724C132.01 209.724 117.526 204.793 113.828 204.793C110.13 204.793 116.602 198.63 116.602 198.63Z" fill="#FFB8B8"/>
<path d="M69.76 183.838C69.76 183.838 85.1682 165.965 90.0989 166.889C95.0295 167.814 97.1867 173.361 97.1867 173.361L99.9602 200.787C99.9602 200.787 90.0989 201.712 90.0989 200.787C90.0989 199.863 88.2499 180.14 88.2499 180.14C88.2499 180.14 73.7661 212.189 66.062 190.926L69.76 183.838Z" fill="#D0CDE1"/>
<path d="M44.7988 195.857C44.7988 195.857 45.107 212.002 54.3519 212.926C63.5969 213.851 73.7664 206.026 73.7664 206.026L90.4073 198.054C90.4073 198.054 110.13 208.492 115.985 205.718C115.985 205.718 122.148 199.247 118.142 197.398C114.136 195.549 117.834 197.398 117.834 197.398L94.1053 185.071C94.1053 185.071 89.4828 183.838 81.4705 187.228C73.4582 190.618 62.6724 192.159 62.6724 192.159L44.7988 195.857Z" fill="#D0CDE1"/>
<path d="M60.2072 143.161C65.313 143.161 69.4521 139.021 69.4521 133.916C69.4521 128.81 65.313 124.671 60.2072 124.671C55.1013 124.671 50.9622 128.81 50.9622 133.916C50.9622 139.021 55.1013 143.161 60.2072 143.161Z" fill="#FFB8B8"/>
<path d="M73.4583 159.801L72.842 172.744C72.842 172.744 73.1502 189.693 70.3767 190.926C68.9745 191.548 66.1579 192.8 63.5539 194.168C61.6001 195.191 59.7666 196.276 58.7434 197.209C58.4722 197.44 58.2383 197.712 58.0501 198.014C56.8174 200.171 48.8051 199.863 46.9561 198.322C45.1071 196.781 46.3398 200.171 44.7989 200.787C43.3074 201.385 41.2396 196.498 42.5062 189.2C42.5463 188.957 42.5925 188.71 42.6418 188.461C44.0563 181.388 41.8344 164.448 42.1765 157.903C42.1964 157.403 42.2489 156.905 42.3336 156.411C43.2581 151.481 55.0547 141.447 57.2611 145.721C59.9792 150.997 66.2226 146.177 67.295 143.777C73.4583 143.469 75.6155 150.865 75.6155 150.865L73.4583 159.801Z" fill="#3CB9FF"/>
<path d="M98.4197 202.02C98.4197 202.02 93.4891 203.869 91.9482 203.561C90.4074 203.253 88.8666 204.485 88.8666 206.334C88.8666 208.183 87.0176 212.498 89.7911 212.806C92.5646 213.114 103.967 212.498 106.432 213.422C106.432 213.422 117.526 213.73 116.601 209.108C115.677 204.485 111.054 204.794 111.054 204.794C111.054 204.794 98.4197 204.177 98.4197 202.02Z" fill="#2F2E41"/>
<path d="M134.475 202.944C134.475 202.944 135.091 201.095 136.016 201.095C136.94 201.095 144.336 202.328 145.261 202.02C146.185 201.712 156.971 201.095 155.122 206.334C153.273 211.573 147.11 212.189 147.11 212.189C147.11 212.189 136.016 210.957 134.475 211.265C132.934 211.573 127.387 211.265 128.312 209.724C129.236 208.183 135.091 205.41 134.475 202.944Z" fill="#2F2E41"/>
<path d="M106.424 158.681L108.115 165.655C108.134 165.732 108.131 165.814 108.106 165.89L100.437 189.856C100.407 189.951 100.345 190.032 100.262 190.087C100.178 190.142 100.079 190.166 99.9796 190.157C99.8804 190.147 99.7876 190.103 99.7166 190.033C99.6456 189.964 99.6008 189.871 99.5895 189.772L98.5286 180.436C98.5215 180.374 98.5279 180.311 98.5472 180.252L105.587 158.648C105.616 158.558 105.674 158.48 105.752 158.426C105.83 158.372 105.923 158.344 106.018 158.348C106.112 158.352 106.203 158.386 106.277 158.446C106.35 158.506 106.402 158.588 106.424 158.681Z" fill="#3F3D56"/>
<path d="M105.802 159.27L107.363 165.253L100.599 187.106L99.0379 180.342L105.802 159.27Z" fill="white"/>
<path d="M71.7219 191.789C71.9821 192.569 98.778 191.529 99.0381 191.269C99.265 190.943 99.4568 190.594 99.6105 190.228C99.855 189.708 100.079 189.187 100.079 189.187L99.0381 180.764L72.5024 179.822C72.5024 179.822 71.839 186.96 71.7037 190.228C71.6576 190.748 71.6637 191.271 71.7219 191.789Z" fill="#3F3D56"/>
<path opacity="0.1" d="M95.6559 181.903L96.1762 189.188H84.4694V181.903H95.6559Z" fill="black"/>
<path opacity="0.1" d="M80.5672 184.245L80.6371 184.231L80.3068 187.366H73.8029V184.245H80.5672Z" fill="black"/>
<path opacity="0.1" d="M71.7219 191.789C71.9821 192.569 98.778 191.529 99.0381 191.269C99.265 190.943 99.4568 190.594 99.6105 190.228H71.7037C71.6576 190.748 71.6637 191.271 71.7219 191.789Z" fill="black"/>
<path d="M63.1312 119.613C65.0515 119.613 66.6081 118.057 66.6081 116.136C66.6081 114.216 65.0515 112.659 63.1312 112.659C61.211 112.659 59.6543 114.216 59.6543 116.136C59.6543 118.057 61.211 119.613 63.1312 119.613Z" fill="#2F2E41"/>
<path d="M62.0857 119.921C62.0857 119.921 58.5334 125.83 50.2731 128.042C42.0128 130.253 50.2056 142.666 50.2056 142.666C50.2056 142.666 47.2264 138.153 51.5235 133.372C55.8207 128.592 62.7358 125.324 62.0857 119.921Z" fill="#2F2E41"/>
<path opacity="0.1" d="M63.5538 194.168C62.7927 195.607 61.899 197.102 61.748 197.706C61.6463 198.116 60.5184 197.878 58.7434 197.209C55.1841 195.863 49.0146 192.778 43.2581 189.693C42.9927 189.553 42.741 189.388 42.5062 189.2C42.5462 188.957 42.5925 188.71 42.6417 188.461C44.0562 181.388 41.8344 164.448 42.1764 157.903L44.7989 157.028L50.0377 161.958V182.914C50.0377 182.914 63.597 190.31 64.5215 190.926C64.993 191.24 64.3427 192.673 63.5538 194.168Z" fill="black"/>
<path d="M74.9992 177.367L83.3196 181.681C83.3196 181.681 88.2503 176.442 91.3319 180.449C94.4136 184.455 82.3952 185.687 82.3952 185.687C82.3952 185.687 71.9175 183.222 71.6094 179.832C71.3012 176.442 74.9992 177.367 74.9992 177.367Z" fill="#FFB8B8"/>
<path d="M61.1315 188.769L66.0622 190.002C66.0622 190.002 71.6091 183.222 77.4643 185.687C83.3194 188.153 70.0683 193.083 70.0683 193.083C70.0683 193.083 62.9805 196.781 60.207 193.7C57.4335 190.618 61.1315 188.769 61.1315 188.769Z" fill="#FFB8B8"/>
<path d="M71.9177 148.091C72.2259 148.399 75.6157 150.865 75.6157 150.865C75.6157 150.865 76.5402 162.575 75.3076 165.04C74.0749 167.505 73.1504 167.505 74.0749 168.738C74.9994 169.971 76.2321 169.046 74.9994 171.203C73.7667 173.361 72.5341 173.052 73.4586 173.977C74.3831 174.901 74.0749 175.21 74.0749 175.21L77.7729 178.291C77.7729 178.291 75.5041 181.905 72.6323 181.639C69.7606 181.373 67.2953 167.505 67.2953 167.505L71.9177 148.091Z" fill="#3CB9FF"/>
<path d="M44.7989 155.487L42.0254 156.412C42.0254 156.412 34.6295 183.53 43.2581 188.153C51.8867 192.775 61.4399 197.398 61.748 196.165C62.0562 194.932 65.446 190.002 64.5215 189.385C63.597 188.769 50.0378 181.373 50.0378 181.373V160.418L44.7989 155.487Z" fill="#3CB9FF"/>
<path opacity="0.1" d="M48.9589 166.735L48.3428 181.527L64.6755 189.231L49.5753 181.527L48.9589 166.735Z" fill="black"/>
<path d="M286.64 49.2562V73.4424C286.64 73.6659 286.551 73.88 286.393 74.038C286.235 74.1961 286.021 74.2851 285.797 74.2857H285.197V200.28C285.197 203.767 283.812 207.11 281.346 209.576C278.881 212.041 275.537 213.426 272.051 213.426H193.324C191.598 213.426 189.888 213.086 188.294 212.425C186.699 211.765 185.25 210.796 184.03 209.575C182.809 208.355 181.841 206.905 181.181 205.311C180.521 203.716 180.181 202.006 180.181 200.28V78.7046H179.747C179.589 78.7048 179.438 78.6426 179.326 78.5314C179.214 78.4203 179.151 78.2694 179.15 78.1117V64.3468C179.15 64.2685 179.166 64.1909 179.196 64.1185C179.226 64.0461 179.269 63.9804 179.325 63.9249C179.38 63.8695 179.446 63.8256 179.518 63.7956C179.591 63.7657 179.668 63.7502 179.747 63.7502H180.181V58.5654H179.743C179.578 58.5648 179.419 58.4985 179.302 58.3811C179.186 58.2638 179.12 58.1049 179.121 57.9394V44.3623C179.121 44.1973 179.187 44.0393 179.303 43.9227C179.42 43.8061 179.578 43.7404 179.743 43.7399H180.181V36.6623H179.736C179.663 36.6624 179.591 36.6482 179.524 36.6204C179.457 36.5927 179.396 36.552 179.345 36.5007C179.294 36.4494 179.253 36.3885 179.225 36.3214C179.197 36.2544 179.183 36.1825 179.183 36.1099V28.7009C179.183 28.5539 179.241 28.4129 179.344 28.3086C179.448 28.2044 179.589 28.1455 179.736 28.1448H180.181V13.1426C180.181 9.657 181.566 6.31421 184.031 3.84952C186.496 1.38483 189.838 0.000126955 193.324 1.3451e-10H272.051C275.537 -1.57577e-05 278.88 1.38452 281.345 3.84914C283.81 6.31375 285.196 9.65662 285.197 13.1426V48.4129H285.797C286.021 48.4135 286.235 48.5026 286.393 48.6606C286.551 48.8186 286.64 49.0327 286.64 49.2562Z" fill="#3F3D56"/>
<path d="M236.48 6.74146H223.687C223.171 6.74146 222.751 7.16053 222.751 7.67749V8.78319C222.751 9.30015 223.171 9.71922 223.687 9.71922H236.48C236.997 9.71922 237.416 9.30015 237.416 8.78319V7.67749C237.416 7.16053 236.997 6.74146 236.48 6.74146Z" fill="#E6E8EC"/>
<path d="M241.323 9.91927C242.256 9.91927 243.012 9.16307 243.012 8.23026C243.012 7.29745 242.256 6.54126 241.323 6.54126C240.39 6.54126 239.634 7.29745 239.634 8.23026C239.634 9.16307 240.39 9.91927 241.323 9.91927Z" fill="#E6E8EC"/>
<path d="M278.902 15.7423V201.37C278.901 203.582 278.022 205.702 276.458 207.265C274.893 208.829 272.773 209.707 270.561 209.707H195.2C194.105 209.709 193.019 209.495 192.007 209.076C190.994 208.658 190.074 208.044 189.299 207.27C188.525 206.495 187.91 205.575 187.492 204.563C187.073 203.551 186.858 202.466 186.859 201.37V15.7423C186.859 14.647 187.075 13.5624 187.494 12.5504C187.913 11.5385 188.528 10.619 189.302 9.84445C190.077 9.06993 190.996 8.45556 192.008 8.03642C193.02 7.61727 194.105 7.40157 195.2 7.40161H206.479V8.84881C206.479 10.6702 207.203 12.4171 208.491 13.705C209.779 14.993 211.526 15.7165 213.347 15.7165H251.674C253.495 15.7165 255.242 14.993 256.53 13.705C257.818 12.4171 258.542 10.6702 258.542 8.84881V7.40161H270.561C271.657 7.40126 272.741 7.61675 273.753 8.03579C274.765 8.45482 275.685 9.06918 276.46 9.84376C277.234 10.6183 277.849 11.5379 278.268 12.5501C278.687 13.5622 278.902 14.6469 278.902 15.7423Z" fill="white"/>
<path d="M271.332 129.606H194.737V139.549H271.332V129.606Z" fill="#E6E6E6"/>
<path d="M271.332 147.282H194.737V157.225H271.332V147.282Z" fill="#E6E6E6"/>
<path d="M271.332 164.958H194.737V174.9H271.332V164.958Z" fill="#E6E6E6"/>
<path d="M262.862 40.8596C266.929 40.8596 270.227 37.5623 270.227 33.4947C270.227 29.4272 266.929 26.1299 262.862 26.1299C258.794 26.1299 255.497 29.4272 255.497 33.4947C255.497 37.5623 258.794 40.8596 262.862 40.8596Z" fill="#3CB9FF"/>
<path d="M271.178 58.1672H194.583V108.985H271.178V58.1672Z" fill="#E6E6E6"/>
<path d="M225.083 86.7396C227.32 95.0067 234.98 100.127 234.98 100.127C234.98 100.127 239.014 91.8431 236.778 83.576C234.541 75.309 226.881 70.189 226.881 70.189C226.881 70.189 222.847 78.4726 225.083 86.7396Z" fill="#3F3D56"/>
<path d="M228.37 84.963C234.506 90.9368 235.256 100.12 235.256 100.12C235.256 100.12 226.056 99.6177 219.919 93.6439C213.782 87.67 213.033 78.4868 213.033 78.4868C213.033 78.4868 222.233 78.9891 228.37 84.963Z" fill="#3CB9FF"/>
<path d="M245.428 86.7396C243.192 95.0067 235.532 100.127 235.532 100.127C235.532 100.127 231.498 91.8431 233.734 83.576C235.97 75.309 243.631 70.189 243.631 70.189C243.631 70.189 247.665 78.4725 245.428 86.7396Z" fill="#3F3D56"/>
<path d="M242.142 84.963C236.005 90.9368 235.256 100.12 235.256 100.12C235.256 100.12 244.456 99.6177 250.593 93.6439C256.729 87.67 257.479 78.4868 257.479 78.4868C257.479 78.4868 248.279 78.9891 242.142 84.963Z" fill="#3CB9FF"/>
<path d="M327 213.022H0V213.847H327V213.022Z" fill="#3F3D56"/>
</g>
<defs>
<clipPath id="clip0">
<rect width="327" height="213.847" fill="white"/>
</clipPath>
</defs>
</svg>
