<svg width="326" height="198" viewBox="0 0 326 198" fill="none" xmlns="http://www.w3.org/2000/svg">
<g clip-path="url(#clip0)">
<path d="M284.06 5.48325e-09H4.0228C2.95616 0.000969972 1.93349 0.425128 1.17928 1.17937C0.425061 1.93361 0.000935716 2.9563 0 4.02294V193.784C0.000935716 194.85 0.425061 195.873 1.17928 196.627C1.93349 197.382 2.95616 197.806 4.0228 197.807H284.06C284.641 197.807 285.216 197.68 285.744 197.437C286.272 197.193 286.741 196.838 287.119 196.395C287.151 196.36 287.18 196.323 287.206 196.284C287.446 195.991 287.641 195.662 287.783 195.311C287.985 194.827 288.089 194.308 288.087 193.784V4.02294C288.086 2.95555 287.661 1.93228 286.906 1.17795C286.151 0.423627 285.127 -5.56536e-05 284.06 5.48325e-09ZM286.939 193.784C286.939 194.345 286.774 194.894 286.463 195.362C286.188 195.773 285.813 196.109 285.375 196.34C284.968 196.55 284.517 196.659 284.06 196.658H4.0228C3.2608 196.657 2.53028 196.354 1.99147 195.815C1.45265 195.276 1.14954 194.546 1.14862 193.784V4.02294C1.14954 3.26094 1.45265 2.53042 1.99147 1.9916C2.53028 1.45279 3.2608 1.14968 4.0228 1.14875H284.06C284.822 1.14865 285.554 1.45129 286.094 1.99019C286.634 2.52909 286.937 3.26019 286.939 4.02294V193.784Z" fill="#3F3D56"/>
<path d="M287.51 16.1235H0.573059V17.2736H287.51V16.1235Z" fill="#3F3D56"/>
<path d="M10.3491 12.0756C12.2546 12.0756 13.7993 10.5309 13.7993 8.62544C13.7993 6.71998 12.2546 5.17529 10.3491 5.17529C8.44367 5.17529 6.89899 6.71998 6.89899 8.62544C6.89899 10.5309 8.44367 12.0756 10.3491 12.0756Z" fill="#3F3D56"/>
<path d="M20.268 12.0756C22.1734 12.0756 23.7181 10.5309 23.7181 8.62544C23.7181 6.71998 22.1734 5.17529 20.268 5.17529C18.3625 5.17529 16.8178 6.71998 16.8178 8.62544C16.8178 10.5309 18.3625 12.0756 20.268 12.0756Z" fill="#3F3D56"/>
<path d="M30.1873 12.0756C32.0927 12.0756 33.6374 10.5309 33.6374 8.62544C33.6374 6.71998 32.0927 5.17529 30.1873 5.17529C28.2818 5.17529 26.7371 6.71998 26.7371 8.62544C26.7371 10.5309 28.2818 12.0756 30.1873 12.0756Z" fill="#3F3D56"/>
<path d="M34.625 88.4609H24.4753C23.9249 88.4603 23.3972 88.2414 23.008 87.8522C22.6188 87.463 22.3999 86.9353 22.3993 86.3848V76.2352C22.3999 75.6848 22.6188 75.1571 23.008 74.7679C23.3972 74.3787 23.9249 74.1598 24.4753 74.1592H34.625C35.1754 74.1598 35.7031 74.3787 36.0923 74.7679C36.4815 75.1571 36.7004 75.6848 36.701 76.2352V86.3848C36.7004 86.9353 36.4815 87.463 36.0923 87.8522C35.7031 88.2414 35.1754 88.4603 34.625 88.4609Z" fill="#3CB9FF"/>
<path d="M34.625 114.758H24.4753C23.9249 114.757 23.3972 114.538 23.008 114.149C22.6188 113.76 22.3999 113.232 22.3993 112.682V102.532C22.3999 101.982 22.6188 101.454 23.008 101.065C23.3972 100.676 23.9249 100.457 24.4753 100.456H34.625C35.1754 100.457 35.7031 100.676 36.0923 101.065C36.4815 101.454 36.7004 101.982 36.701 102.532V112.682C36.7004 113.232 36.4815 113.76 36.0923 114.149C35.7031 114.538 35.1754 114.757 34.625 114.758Z" fill="#3F3D56"/>
<path d="M34.625 141.055H24.4753C23.9249 141.054 23.3972 140.835 23.008 140.446C22.6188 140.057 22.3999 139.529 22.3993 138.979V128.829C22.3999 128.279 22.6188 127.751 23.008 127.362C23.3972 126.972 23.9249 126.754 24.4753 126.753H34.625C35.1754 126.754 35.7031 126.972 36.0923 127.362C36.4815 127.751 36.7004 128.279 36.701 128.829V138.979C36.7004 139.529 36.4815 140.057 36.0923 140.446C35.7031 140.835 35.1754 141.054 34.625 141.055Z" fill="#CCCCCC"/>
<path d="M101.059 83.3865H52.1563C51.6057 83.3865 51.0777 83.1678 50.6883 82.7784C50.299 82.3891 50.0803 81.861 50.0803 81.3104C50.0803 80.7598 50.299 80.2318 50.6883 79.8424C51.0777 79.4531 51.6057 79.2344 52.1563 79.2344H101.059C101.61 79.2344 102.138 79.4531 102.527 79.8424C102.916 80.2318 103.135 80.7598 103.135 81.3104C103.135 81.861 102.916 82.3891 102.527 82.7784C102.138 83.1678 101.61 83.3865 101.059 83.3865Z" fill="#CCCCCC"/>
<path d="M101.059 109.683H52.1563C51.6057 109.683 51.0777 109.464 50.6883 109.075C50.299 108.686 50.0803 108.158 50.0803 107.607C50.0803 107.056 50.299 106.528 50.6883 106.139C51.0777 105.75 51.6057 105.531 52.1563 105.531H101.059C101.61 105.531 102.138 105.75 102.527 106.139C102.916 106.528 103.135 107.056 103.135 107.607C103.135 108.158 102.916 108.686 102.527 109.075C102.138 109.464 101.61 109.683 101.059 109.683Z" fill="#CCCCCC"/>
<path d="M101.059 135.98H52.1563C51.6057 135.98 51.0777 135.761 50.6883 135.372C50.299 134.982 50.0803 134.454 50.0803 133.904C50.0803 133.353 50.299 132.825 50.6883 132.436C51.0777 132.046 51.6057 131.828 52.1563 131.828H101.059C101.61 131.828 102.138 132.046 102.527 132.436C102.916 132.825 103.135 133.353 103.135 133.904C103.135 134.454 102.916 134.982 102.527 135.372C102.138 135.761 101.61 135.98 101.059 135.98Z" fill="#CCCCCC"/>
<path d="M268.882 79.2665C269.109 79.37 269.326 79.4915 269.533 79.6297L290.226 70.7981L290.964 65.3472L299.232 65.2966L298.744 77.7983L271.432 85.021C271.375 85.2109 271.306 85.397 271.226 85.5785C270.831 86.4211 270.196 87.1282 269.4 87.611C268.605 88.0939 267.685 88.331 266.755 88.2925C265.825 88.254 264.928 87.9416 264.175 87.3947C263.422 86.8477 262.848 86.0905 262.524 85.2182C262.2 84.3458 262.141 83.3973 262.354 82.4916C262.568 81.5859 263.044 80.7635 263.724 80.1276C264.403 79.4917 265.255 79.0708 266.173 78.9176C267.091 78.7644 268.033 78.8858 268.882 79.2665Z" fill="#FFB8B8"/>
<path d="M302.239 192.555L296.583 192.554L293.892 170.738L302.24 170.739L302.239 192.555Z" fill="#FFB8B8"/>
<path d="M292.543 190.938H303.451V197.806H285.675C285.675 196.904 285.853 196.011 286.198 195.178C286.543 194.344 287.049 193.587 287.687 192.95C288.324 192.312 289.081 191.806 289.915 191.461C290.748 191.116 291.641 190.938 292.543 190.938Z" fill="#2F2E41"/>
<path d="M324.236 190.956L318.608 191.511L313.791 170.064L322.098 169.245L324.236 190.956Z" fill="#FFB8B8"/>
<path d="M314.429 190.298L325.284 189.229L325.957 196.064L308.267 197.806C308.178 196.909 308.268 196.003 308.53 195.139C308.791 194.276 309.221 193.473 309.793 192.776C310.365 192.079 311.069 191.501 311.864 191.076C312.66 190.651 313.531 190.387 314.429 190.298Z" fill="#2F2E41"/>
<path d="M303.814 42.2079C310.072 42.2079 315.145 37.1348 315.145 30.8768C315.145 24.6188 310.072 19.5457 303.814 19.5457C297.556 19.5457 292.482 24.6188 292.482 30.8768C292.482 37.1348 297.556 42.2079 303.814 42.2079Z" fill="#FFB8B8"/>
<path d="M295.319 188.143C294.833 188.144 294.362 187.973 293.989 187.661C293.617 187.349 293.366 186.916 293.282 186.437C290.355 170.186 280.785 117.048 280.556 115.576C280.551 115.542 280.549 115.508 280.549 115.474V111.512C280.549 111.368 280.594 111.227 280.678 111.11L281.942 109.339C282.002 109.254 282.081 109.183 282.173 109.133C282.264 109.083 282.366 109.055 282.47 109.051C289.677 108.713 313.28 107.722 314.421 109.147C315.566 110.579 315.161 114.917 315.069 115.772L315.073 115.861L325.677 183.677C325.76 184.218 325.627 184.77 325.306 185.213C324.986 185.656 324.503 185.955 323.964 186.046L317.34 187.137C316.847 187.216 316.342 187.116 315.916 186.854C315.491 186.592 315.173 186.186 315.022 185.71C312.973 179.164 306.104 157.145 303.724 148.624C303.709 148.57 303.675 148.523 303.628 148.493C303.581 148.462 303.525 148.449 303.469 148.457C303.414 148.465 303.363 148.493 303.327 148.535C303.29 148.578 303.271 148.632 303.271 148.688C303.39 156.81 303.678 177.533 303.777 184.69L303.788 185.461C303.792 185.983 303.601 186.487 303.251 186.875C302.901 187.262 302.419 187.505 301.9 187.554L295.513 188.134C295.448 188.14 295.383 188.143 295.319 188.143Z" fill="#2F2E41"/>
<path d="M296.622 46.6637C294.645 47.8392 293.462 49.9994 292.783 52.1976C291.526 56.2672 290.769 60.4748 290.529 64.7275L289.812 77.4607L280.928 111.217C288.628 117.732 293.069 116.251 303.433 110.923C313.797 105.594 314.982 112.699 314.982 112.699L317.054 83.9767L320.015 52.5903C319.351 51.7899 318.598 51.0666 317.772 50.4339C315.035 48.3056 311.851 46.8263 308.459 46.1075C305.068 45.3886 301.557 45.4489 298.192 46.2839L296.622 46.6637Z" fill="#B3B3B3"/>
<path d="M293.737 86.0837C293.976 86.1736 294.207 86.2822 294.429 86.4085L314.889 76.1679L315.229 70.62L323.669 70.0381L324.121 82.6848L296.779 91.7269C296.555 92.6845 296.046 93.5514 295.318 94.2123C294.59 94.8733 293.678 95.297 292.704 95.427C291.729 95.5571 290.738 95.3874 289.862 94.9404C288.986 94.4935 288.267 93.7905 287.801 92.9249C287.334 92.0594 287.142 91.0724 287.25 90.0951C287.358 89.1178 287.761 88.1965 288.406 87.4539C289.05 86.7112 289.905 86.1824 290.858 85.9376C291.81 85.6929 292.814 85.7438 293.737 86.0837H293.737Z" fill="#FFB8B8"/>
<path d="M319.867 52.7336C324.901 54.5103 325.788 73.7588 325.788 73.7588C319.866 70.5015 312.759 75.8317 312.759 75.8317C312.759 75.8317 311.278 70.7977 309.502 64.2832C308.965 62.4508 308.901 60.5125 309.315 58.6486C309.729 56.7847 310.608 55.056 311.87 53.6232C311.87 53.6232 314.833 50.9557 319.867 52.7336Z" fill="#B3B3B3"/>
<path d="M313.973 33.8734C312.562 32.7438 310.635 34.7969 310.635 34.7969L309.506 24.6318C309.506 24.6318 302.447 25.4774 297.929 24.3497C293.411 23.2219 292.706 28.4442 292.706 28.4442C292.473 26.3347 292.425 24.2088 292.564 22.091C292.847 19.5497 296.517 17.0085 303.012 15.3142C309.506 13.6198 312.894 20.9615 312.894 20.9615C317.412 23.2201 315.385 35.0029 313.973 33.8734Z" fill="#2F2E41"/>
<path d="M271.181 108.53C271.254 107.308 271.295 106.078 271.295 104.839C271.295 88.6878 264.879 73.1982 253.459 61.7777C242.038 50.3572 226.549 43.9412 210.398 43.9412V108.53H271.181Z" fill="#3CB9FF"/>
<path d="M205.784 114.066V49.4773C193.897 49.4768 182.269 52.9554 172.335 59.4842C162.401 66.013 154.596 75.3064 149.88 86.2184C145.165 97.1305 143.746 109.184 145.799 120.893C147.852 132.601 153.287 143.453 161.434 152.11C169.581 160.767 180.083 166.85 191.646 169.609C203.208 172.369 215.326 171.684 226.503 167.639C237.681 163.594 247.431 156.366 254.55 146.846C261.67 137.326 265.847 125.931 266.567 114.066H205.784Z" fill="#3F3D56"/>
</g>
<defs>
<clipPath id="clip0">
<rect width="325.957" height="197.807" fill="white"/>
</clipPath>
</defs>
</svg>
