<svg width="325" height="223" viewBox="0 0 325 223" fill="none" xmlns="http://www.w3.org/2000/svg">
<g clip-path="url(#clip0)">
<path d="M162.5 222.557C252.246 222.557 325 217.991 325 212.358C325 206.725 252.246 202.158 162.5 202.158C72.7537 202.158 0 206.725 0 212.358C0 217.991 72.7537 222.557 162.5 222.557Z" fill="#D0CDE1"/>
<path d="M257.005 0.497803H67.9952V77.6029H257.005V0.497803Z" fill="#3F3D56"/>
<path d="M95.1596 29.202H81.0679C80.1062 23.6428 80.1062 17.9597 81.0679 12.4004H95.1596C93.572 17.8884 93.572 23.714 95.1596 29.202Z" fill="#FF6584"/>
<path d="M124.509 24.496H138.601C139.563 18.9367 139.563 13.2536 138.601 7.69434H124.509C126.097 13.1824 126.097 19.0079 124.509 24.496Z" fill="#3CB9FF"/>
<path d="M212.909 32.4085C220.356 32.4868 227.794 32.2569 235.225 31.7188L234.732 31.071C233.515 34.1532 233.549 37.4017 233.71 40.6622C233.75 41.4791 234.007 42.5807 233.841 43.3898C233.632 44.4073 232.719 44.1641 231.811 44.1935C229.81 44.2582 227.808 44.3047 225.807 44.3329C223.916 44.3597 222.025 44.3702 220.135 44.3645C219.245 44.3617 218.355 44.3554 217.465 44.3456C216.421 44.3339 215.233 44.6373 214.963 43.4271C214.791 42.652 214.965 41.6324 214.965 40.8352L214.967 37.9193L214.971 32.0873C214.966 31.9547 214.91 31.829 214.815 31.7367C214.719 31.6445 214.592 31.593 214.459 31.593C214.326 31.593 214.199 31.6445 214.103 31.7367C214.008 31.829 213.952 31.9547 213.947 32.0873L213.943 39.2152L213.94 42.4552C213.94 43.0987 213.806 43.8762 214.047 44.4872C214.599 45.8926 216.988 45.3653 218.133 45.3759C220.468 45.3973 222.804 45.3938 225.139 45.3652C227.475 45.3369 229.81 45.2839 232.144 45.2062C233.15 45.1728 234.541 45.4015 234.846 44.1612C235.06 43.2916 234.811 42.1578 234.765 41.2704C234.713 40.2578 234.657 39.245 234.644 38.2309C234.612 35.8628 234.844 33.5591 235.719 31.3431C235.739 31.2672 235.742 31.1875 235.727 31.1103C235.712 31.0331 235.679 30.9604 235.631 30.8979C235.584 30.8353 235.522 30.7845 235.452 30.7494C235.381 30.7142 235.304 30.6958 235.225 30.6953C227.798 31.2333 220.359 31.4632 212.909 31.385C212.777 31.3896 212.651 31.4455 212.559 31.541C212.466 31.6365 212.415 31.764 212.415 31.8968C212.415 32.0295 212.466 32.1571 212.559 32.2525C212.651 32.348 212.777 32.4039 212.909 32.4085L212.909 32.4085Z" fill="#F1F1F1"/>
<path d="M215.031 32.9646C218.219 34.0926 221.326 35.4346 224.333 36.9814C227.03 38.3754 230.562 39.8982 232.418 42.3897C232.807 42.9119 233.696 42.4021 233.302 41.8731C231.406 39.3289 228.143 37.8318 225.401 36.3857C222.145 34.6768 218.771 33.2037 215.304 31.9776C214.682 31.7563 214.414 32.7449 215.031 32.9646Z" fill="#F1F1F1"/>
<path d="M235.051 31.1419C231.669 32.5883 228.803 35.3748 225.781 37.4397C222.509 39.6746 219.14 41.7546 215.674 43.6795C215.098 44.0007 215.614 44.8851 216.19 44.5633C219.649 42.6317 223.018 40.5518 226.297 38.3234C229.319 36.259 232.186 33.4717 235.568 32.0257C236.172 31.7675 235.651 30.8855 235.051 31.1419Z" fill="#F1F1F1"/>
<path d="M146.686 34.3181C153.585 34.4231 160.484 34.3956 167.383 34.2356C168.041 34.2203 168.043 33.1968 167.383 33.2121C160.485 33.3721 153.586 33.3996 146.686 33.2946C146.553 33.2992 146.427 33.3552 146.335 33.4506C146.243 33.5461 146.191 33.6736 146.191 33.8064C146.191 33.9391 146.243 34.0667 146.335 34.1621C146.427 34.2576 146.553 34.3135 146.686 34.3181Z" fill="#F1F1F1"/>
<path d="M147.266 38.9588C154.359 39.072 161.451 39.0415 168.544 38.8675C169.201 38.8513 169.203 37.8277 168.544 37.8439C161.452 38.018 154.359 38.0485 147.266 37.9353C147.133 37.9399 147.008 37.9959 146.915 38.0913C146.823 38.1868 146.772 38.3144 146.772 38.4471C146.772 38.5798 146.823 38.7074 146.915 38.8028C147.008 38.8983 147.133 38.9542 147.266 38.9588Z" fill="#F1F1F1"/>
<path d="M146.489 43.9691L166.607 43.0349C167.263 43.0045 167.266 41.9808 166.607 42.0114L146.489 42.9456C145.834 42.9761 145.83 43.9998 146.489 43.9691Z" fill="#F1F1F1"/>
<path d="M177.826 39.1026H196.974C197.107 39.098 197.233 39.0421 197.325 38.9466C197.417 38.8511 197.469 38.7236 197.469 38.5909C197.469 38.4581 197.417 38.3306 197.325 38.2351C197.233 38.1396 197.107 38.0837 196.974 38.0791H177.826C177.693 38.0837 177.567 38.1396 177.475 38.2351C177.383 38.3306 177.331 38.4581 177.331 38.5909C177.331 38.7236 177.383 38.8511 177.475 38.9466C177.567 39.0421 177.693 39.098 177.826 39.1026Z" fill="#F1F1F1"/>
<path d="M196.136 33.2512L199.127 35.9819C199.47 36.2942 200.411 36.939 200.623 37.3473C201.063 38.1916 200.591 37.999 199.837 38.2915C197.987 39.028 196.281 40.087 194.8 41.4192C194.305 41.8555 195.031 42.5771 195.524 42.1429C196.875 40.9291 198.426 39.9598 200.109 39.2785C200.713 39.0397 201.858 38.8999 202.145 38.181C202.496 37.3011 201.378 36.6518 200.848 36.1684L196.859 32.5274C196.374 32.0841 195.648 32.8059 196.136 33.2512Z" fill="#F1F1F1"/>
<path d="M149.665 73.2059H163.757C164.718 67.6467 164.718 61.9636 163.757 56.4043H149.665C151.252 61.8923 151.252 67.7179 149.665 73.2059Z" fill="#3CB9FF"/>
<path d="M90.9828 60.5826H105.074C106.036 55.0234 106.036 49.3403 105.074 43.781H90.9828C92.5703 49.269 92.5703 55.0946 90.9828 60.5826Z" fill="#3CB9FF"/>
<path d="M180.029 23.7357H194.121C195.082 18.1764 195.082 12.4933 194.121 6.93408H180.029C181.617 12.4221 181.617 18.2477 180.029 23.7357Z" fill="#3CB9FF"/>
<path d="M320.191 194.904L322.027 202.252L313.946 204.456L313.211 196.741L320.191 194.904Z" fill="#FBBEBE"/>
<path d="M290.802 204.089V211.069L282.72 212.538L281.251 208.864L284.19 202.619L290.802 204.089Z" fill="#FBBEBE"/>
<path d="M306.965 128.045L305.863 137.964L306.598 157.067C306.743 157.063 306.888 157.09 307.023 157.144C307.158 157.198 307.281 157.28 307.384 157.382C307.487 157.485 307.568 157.608 307.622 157.743C307.676 157.878 307.703 158.023 307.7 158.169C307.7 159.271 306.598 158.903 307.7 159.638C308.291 160.04 308.904 160.407 309.536 160.74L321.292 196.374C321.292 196.374 318.353 200.048 312.843 198.946L311.741 195.272C311.741 195.272 309.536 193.068 309.536 191.966C309.536 190.864 310.271 190.496 309.536 189.394C308.802 188.292 297.781 165.883 297.781 165.883L292.638 156.699L291.168 169.189C291.168 169.189 294.107 184.986 293.373 192.333C292.638 199.68 291.168 207.395 291.168 207.395L282.352 205.925C282.312 204.74 281.929 203.592 281.25 202.619C280.148 201.15 278.678 201.517 280.148 200.415C281.617 199.313 283.454 200.415 281.984 198.946C280.515 197.476 280.515 196.007 280.515 196.007V194.905L278.311 166.618L274.27 129.515L306.965 128.045Z" fill="#2F2E41"/>
<path d="M281.985 61.1858C287.463 61.1858 291.904 56.7451 291.904 51.2671C291.904 45.7891 287.463 41.3484 281.985 41.3484C276.507 41.3484 272.066 45.7891 272.066 51.2671C272.066 56.7451 276.507 61.1858 281.985 61.1858Z" fill="#FBBEBE"/>
<path d="M290.618 51.4504L294.659 61.3695L285.107 68.349L279.23 58.0632L290.618 51.4504Z" fill="#FBBEBE"/>
<path d="M291.169 58.9813L294.843 57.1445L297.047 62.2876C297.047 62.2876 311.374 66.6959 310.272 86.9007C309.17 107.105 306.598 114.82 306.598 114.82C306.598 114.82 312.844 128.045 309.17 129.514C305.496 130.984 274.271 136.494 273.536 131.351C272.801 126.208 276.108 96.0847 276.108 96.0847C276.108 96.0847 275.006 74.4104 284.19 70.0021L282.353 65.9612L291.169 58.9813Z" fill="#D0CDE1"/>
<path d="M270.964 130.249C270.964 130.249 262.515 139.066 267.29 141.27C272.066 143.474 275.005 131.351 275.005 131.351L270.964 130.249Z" fill="#FBBEBE"/>
<path d="M288.23 209.232L292.271 207.762C292.271 207.762 296.679 217.681 293.006 217.681H283.455C283.455 217.681 277.944 215.844 275.005 215.844C272.066 215.844 266.556 210.334 270.597 207.762C274.638 205.191 279.781 205.926 279.781 205.926L281.25 202.619L283.087 207.762C283.087 207.762 285.291 211.436 288.23 209.232Z" fill="#2F2E41"/>
<path d="M317.986 201.15C317.986 201.15 320.287 199.698 321.525 200.24C322.762 200.782 323.497 206.66 323.497 206.66C323.497 206.66 327.17 211.068 319.089 211.803C311.007 212.538 309.17 211.068 308.435 208.864C307.7 206.66 309.17 204.456 309.17 204.456L311.374 203.721C311.374 203.721 313.945 201.884 313.211 201.15C312.476 200.415 313.211 198.946 313.211 198.946C313.211 198.946 315.782 204.089 317.986 201.15Z" fill="#2F2E41"/>
<path d="M285.378 51.1083C285.337 50.7873 285.265 50.4711 285.162 50.1644C284.629 49.046 282.549 49.3724 282.178 48.1902C282.106 47.9588 282.121 47.7071 282.05 47.4753C281.869 46.8841 281.173 46.591 280.556 46.6193C279.943 46.7039 279.342 46.8587 278.765 47.0805C277.311 47.4929 275.765 47.3355 274.263 47.1747C273.594 47.1522 272.937 46.9813 272.341 46.6744C271.773 46.3245 271.363 45.62 271.57 44.9851C271.768 44.3764 272.435 44.0419 272.734 43.4759C273.21 42.5773 272.628 41.4166 273.014 40.4759C273.633 38.9669 275.976 39.2699 277.166 38.1545C277.454 37.8838 277.662 37.5377 277.939 37.2547C278.761 36.4151 280.058 36.2526 281.227 36.3684C282.396 36.4842 283.544 36.8275 284.719 36.8067C285.833 36.787 287 36.4478 288.026 36.881C288.63 37.1899 289.16 37.6252 289.58 38.1574L292.212 41.0443C292.574 41.3851 292.852 41.8044 293.026 42.2698C293.184 42.8229 293.038 43.4168 293.106 43.9882C293.26 45.2913 294.48 46.2756 294.645 47.5775C294.678 47.9812 294.658 48.3876 294.587 48.7863L294.218 51.5049C294.199 51.77 294.129 52.0289 294.01 52.2667C293.903 52.4499 293.741 52.5946 293.62 52.7692C293.279 53.2622 293.31 53.9138 293.141 54.4887C292.972 55.0636 292.364 55.6325 291.833 55.3554C291.486 55.1747 291.257 53.6798 290.836 53.2917C290.25 52.7511 289.943 52.8178 289.219 52.8269C287.769 52.8452 285.842 52.9696 285.378 51.1083Z" fill="#2F2E41"/>
<path d="M287.128 72.5738C287.128 72.5738 298.149 76.9821 294.843 86.9009C291.536 96.8196 282.72 127.31 282.72 127.31L277.577 129.882L276.107 133.923L269.127 131.351L270.229 125.841C270.229 125.841 270.597 125.474 270.597 124.004C270.597 122.535 269.127 122.167 270.964 122.167C272.801 122.167 272.801 120.331 272.801 120.331L279.413 79.1863C279.413 79.1863 279.413 72.2065 287.128 72.5738Z" fill="#D0CDE1"/>
<path opacity="0.1" d="M295.394 88.9214L284.005 127.861L279.23 132.637L281.985 127.678L295.394 88.9214Z" fill="black"/>
<path d="M22.124 65.6055L33.6685 67.5298L37.5166 49.2508L28.217 45.4026L22.124 65.6055Z" fill="#2F2E41"/>
<path d="M37.9978 61.918C43.4882 61.918 47.939 57.4672 47.939 51.9768C47.939 46.4865 43.4882 42.0356 37.9978 42.0356C32.5075 42.0356 28.0566 46.4865 28.0566 51.9768C28.0566 57.4672 32.5075 61.918 37.9978 61.918Z" fill="#A0616A"/>
<path d="M33.6689 57.5884C33.6689 57.5884 34.631 69.7743 27.2553 70.7364C19.8795 71.6984 33.6689 93.5049 37.1964 93.1842C40.724 92.8635 47.1376 69.4537 47.1376 69.4537C47.1376 69.4537 38.7999 63.6814 41.686 58.5504L33.6689 57.5884Z" fill="#A0616A"/>
<path d="M21.3224 102.003C21.3224 102.003 22.6052 111.303 26.4534 111.303C30.3016 111.303 23.8879 100.72 23.8879 100.72L21.3224 102.003Z" fill="#A0616A"/>
<path d="M77.4418 111.303C77.4418 111.303 87.0623 119.32 85.7796 121.886C84.4968 124.451 76.1591 119 75.5177 112.586L77.4418 111.303Z" fill="#A0616A"/>
<path d="M19.3981 142.089L13.3051 164.857L6.57077 192.436H12.9844C12.9844 192.436 15.2292 183.777 19.3981 179.288C19.3981 179.288 23.567 172.233 23.567 167.423L33.5082 144.013L19.3981 142.089Z" fill="#A0616A"/>
<path d="M45.6941 143.372L47.6182 164.857C47.6182 164.857 47.2975 180.25 47.6182 183.778C47.9389 187.305 47.6182 192.436 47.6182 192.436H53.3905C53.3905 192.436 58.8421 173.516 57.2387 163.254L59.4835 139.203L45.6941 143.372Z" fill="#A0616A"/>
<path d="M37.9977 84.3656C37.9977 84.3656 29.3578 77.5185 31.5933 67.9544C31.5933 67.9544 22.9256 68.3314 19.3981 71.8589C15.8706 75.3865 20.3602 87.2517 20.3602 87.2517C20.3602 87.2517 28.0566 100.079 26.7738 105.851C25.4911 111.624 11.7017 142.089 16.1913 144.013C20.6808 145.937 47.9389 152.671 61.7283 141.447C61.7283 141.447 65.2558 109.7 51.1457 99.4377V91.4206C51.1457 91.4206 53.7112 89.1758 52.4285 83.4036C52.4285 83.4036 57.8801 73.4624 54.6732 71.5383C51.4664 69.6142 44.1001 66.7944 44.1001 66.7944C44.1001 66.7944 44.7321 81.1588 37.9977 84.3656Z" fill="#2F2E41"/>
<path d="M21.3222 71.859C21.3222 71.859 17.1534 71.2176 12.9845 77.3106C8.8156 83.4036 -2.08762 93.0241 3.0433 97.8343C8.17422 102.645 21.9636 105.851 21.9636 105.851L25.1704 100.079L11.3811 93.3448L22.9257 84.6863L21.3222 71.859Z" fill="#2F2E41"/>
<path d="M53.0696 71.8589C53.0696 71.8589 57.5592 71.8589 59.4833 77.3105C61.4074 82.7621 72.6313 101.362 72.6313 101.362L79.0449 111.303L74.5554 116.434L62.0487 102.324L50.1834 82.7621L53.0696 71.8589Z" fill="#2F2E41"/>
<path d="M14.2674 191.794H5.28825L3.36415 207.508C3.36415 207.508 -1.76677 215.846 5.92962 214.884C13.626 213.922 11.0605 205.263 11.0605 205.263L12.9846 202.056L13.626 208.791L14.2674 208.47V201.094C14.2674 201.094 17.7949 197.887 14.2674 191.794Z" fill="#2F2E41"/>
<path d="M54.9943 191.795L46.6566 191.153L45.0532 209.112C45.0532 209.112 44.0911 215.846 49.8634 214.884C55.6357 213.922 53.7116 208.47 53.7116 208.47V198.529L54.9943 191.795Z" fill="#2F2E41"/>
<path d="M30.7823 41.875C30.7823 41.875 26.1105 43.4322 25.8733 49.5823C25.8492 50.5659 25.9583 51.5482 26.1976 52.5026C26.4606 53.6175 26.6297 56.0163 24.591 59.1511C23.2259 61.2208 21.9788 63.3659 20.8558 65.5763L20.8412 65.6055L25.9721 66.2469L27.0631 57.742C27.592 53.6186 28.7252 49.5956 30.4261 45.8023L30.4617 45.7232C30.4617 45.7232 32.7064 49.892 37.196 49.892L35.5926 48.2886C35.5926 48.2886 42.6476 51.1748 45.2131 51.1748C45.2131 51.1748 47.1372 52.4575 45.2131 54.3816C43.289 56.3057 39.4408 60.7953 41.6856 64.3228C43.9303 67.8503 42.0062 68.8124 42.0062 68.8124L45.5338 66.8883L47.1372 65.9262V67.2089L55.4749 66.2469C55.4749 66.2469 57.7197 65.9262 52.9095 60.4746C52.9095 60.4746 51.6392 58.3576 52.195 56.5316C52.6516 55.144 52.7716 53.6676 52.5451 52.2244C51.4675 46.2126 47.2395 34.2605 30.7823 41.875Z" fill="#2F2E41"/>
<path d="M213.051 221.932C213.007 221.861 211.978 220.142 211.621 216.573C211.294 213.299 211.504 207.781 214.366 200.083C219.788 185.499 213.117 173.732 213.048 173.615L213.378 173.424C214.662 175.882 215.59 178.511 216.133 181.231C217.477 187.565 216.988 194.15 214.723 200.215C209.31 214.774 213.334 221.666 213.375 221.734L213.051 221.932Z" fill="#3F3D56"/>
<path d="M210.93 172.758C212.296 172.758 213.403 171.651 213.403 170.286C213.403 168.92 212.296 167.813 210.93 167.813C209.565 167.813 208.458 168.92 208.458 170.286C208.458 171.651 209.565 172.758 210.93 172.758Z" fill="#3F3D56"/>
<path d="M218.728 181.889C220.094 181.889 221.201 180.782 221.201 179.416C221.201 178.05 220.094 176.943 218.728 176.943C217.363 176.943 216.256 178.05 216.256 179.416C216.256 180.782 217.363 181.889 218.728 181.889Z" fill="#3F3D56"/>
<path d="M213.403 187.975C214.769 187.975 215.876 186.868 215.876 185.503C215.876 184.137 214.769 183.03 213.403 183.03C212.037 183.03 210.93 184.137 210.93 185.503C210.93 186.868 212.037 187.975 213.403 187.975Z" fill="#3CB9FF"/>
<path d="M219.87 193.111C221.236 193.111 222.343 192.004 222.343 190.638C222.343 189.273 221.236 188.166 219.87 188.166C218.504 188.166 217.397 189.273 217.397 190.638C217.397 192.004 218.504 193.111 219.87 193.111Z" fill="#3CB9FF"/>
<path d="M211.501 201.1C212.867 201.1 213.974 199.993 213.974 198.627C213.974 197.262 212.867 196.155 211.501 196.155C210.135 196.155 209.028 197.262 209.028 198.627C209.028 199.993 210.135 201.1 211.501 201.1Z" fill="#3F3D56"/>
<path d="M214.544 222.023C214.544 222.023 212.072 215.936 219.49 211.371L214.544 222.023Z" fill="#3F3D56"/>
<path d="M211.503 221.912C211.503 221.912 210.378 215.44 201.668 215.495L211.503 221.912Z" fill="#3F3D56"/>
<path d="M113.385 203.957C113.341 203.886 112.312 202.167 111.955 198.599C111.628 195.324 111.838 189.806 114.7 182.108C120.122 167.524 113.451 155.757 113.383 155.64L113.712 155.449C114.996 157.907 115.924 160.536 116.468 163.256C117.811 169.59 117.322 176.175 115.057 182.24C109.644 196.799 113.668 203.691 113.71 203.759L113.385 203.957Z" fill="#D0CDE1"/>
<path d="M111.265 154.784C112.631 154.784 113.738 153.677 113.738 152.311C113.738 150.946 112.631 149.839 111.265 149.839C109.899 149.839 108.792 150.946 108.792 152.311C108.792 153.677 109.899 154.784 111.265 154.784Z" fill="#3F3D56"/>
<path d="M119.063 163.914C120.429 163.914 121.536 162.807 121.536 161.441C121.536 160.075 120.429 158.968 119.063 158.968C117.697 158.968 116.59 160.075 116.59 161.441C116.59 162.807 117.697 163.914 119.063 163.914Z" fill="#3F3D56"/>
<path d="M113.738 170C115.103 170 116.21 168.893 116.21 167.528C116.21 166.162 115.103 165.055 113.738 165.055C112.372 165.055 111.265 166.162 111.265 167.528C111.265 168.893 112.372 170 113.738 170Z" fill="#D0CDE1"/>
<path d="M120.205 175.136C121.57 175.136 122.677 174.029 122.677 172.664C122.677 171.298 121.57 170.191 120.205 170.191C118.839 170.191 117.732 171.298 117.732 172.664C117.732 174.029 118.839 175.136 120.205 175.136Z" fill="#D0CDE1"/>
<path d="M111.835 183.125C113.201 183.125 114.308 182.018 114.308 180.652C114.308 179.287 113.201 178.179 111.835 178.179C110.47 178.179 109.363 179.287 109.363 180.652C109.363 182.018 110.47 183.125 111.835 183.125Z" fill="#3F3D56"/>
<path d="M114.879 204.048C114.879 204.048 112.406 197.961 119.824 193.396L114.879 204.048Z" fill="#D0CDE1"/>
<path d="M111.838 203.938C111.838 203.938 110.712 197.465 102.002 197.52L111.838 203.938Z" fill="#D0CDE1"/>
</g>
<defs>
<clipPath id="clip0">
<rect width="325" height="222.06" fill="white" transform="translate(0 0.497803)"/>
</clipPath>
</defs>
</svg>
