<svg width="340" height="187" viewBox="0 0 340 187" fill="none" xmlns="http://www.w3.org/2000/svg">
<g clip-path="url(#clip0)">
<path d="M337.953 0.1521H69.7494V171.922H337.953V0.1521Z" fill="#E6E6E6"/>
<path d="M190.29 23.2178H93.4653V122.711H190.29V23.2178Z" fill="white"/>
<path d="M323.329 25.1477H226.504V145.988H323.329V25.1477Z" fill="white"/>
<path d="M322.039 184.41C331.619 184.41 339.384 183.3 339.384 181.932C339.384 180.563 331.619 179.454 322.039 179.454C312.46 179.454 304.695 180.563 304.695 181.932C304.695 183.3 312.46 184.41 322.039 184.41Z" fill="#E6E6E6"/>
<path d="M148.63 184.466C158.209 184.466 165.975 183.356 165.975 181.988C165.975 180.619 158.209 179.51 148.63 179.51C139.051 179.51 131.286 180.619 131.286 181.988C131.286 183.356 139.051 184.466 148.63 184.466Z" fill="#E6E6E6"/>
<path d="M39.8069 181.416C61.7916 181.416 79.6138 180.563 79.6138 179.51C79.6138 178.458 61.7916 177.604 39.8069 177.604C17.8221 177.604 0 178.458 0 179.51C0 180.563 17.8221 181.416 39.8069 181.416Z" fill="#E6E6E6"/>
<path d="M337.838 0H69.6342V11.3943H337.838V0Z" fill="#3CB9FF"/>
<path d="M78.1022 7.93706C79.2685 7.93706 80.214 6.99156 80.214 5.82522C80.214 4.65888 79.2685 3.71338 78.1022 3.71338C76.9359 3.71338 75.9904 4.65888 75.9904 5.82522C75.9904 6.99156 76.9359 7.93706 78.1022 7.93706Z" fill="#E6E6E6"/>
<path d="M86.1176 7.93706C87.2839 7.93706 88.2294 6.99156 88.2294 5.82522C88.2294 4.65888 87.2839 3.71338 86.1176 3.71338C84.9512 3.71338 84.0057 4.65888 84.0057 5.82522C84.0057 6.99156 84.9512 7.93706 86.1176 7.93706Z" fill="#E6E6E6"/>
<path d="M94.1339 7.93706C95.3003 7.93706 96.2458 6.99156 96.2458 5.82522C96.2458 4.65888 95.3003 3.71338 94.1339 3.71338C92.9676 3.71338 92.0221 4.65888 92.0221 5.82522C92.0221 6.99156 92.9676 7.93706 94.1339 7.93706Z" fill="#E6E6E6"/>
<path d="M301.982 57.5608H301.396V41.493C301.396 40.2717 301.155 39.0625 300.688 37.9342C300.221 36.8059 299.536 35.7807 298.672 34.9172C297.808 34.0536 296.783 33.3686 295.655 32.9012C294.527 32.4339 293.317 32.1934 292.096 32.1934H258.054C256.833 32.1934 255.624 32.4339 254.495 32.9012C253.367 33.3686 252.342 34.0536 251.478 34.9172C250.615 35.7807 249.93 36.8059 249.463 37.9342C248.995 39.0625 248.755 40.2717 248.755 41.493V129.642C248.755 130.864 248.995 132.073 249.463 133.201C249.93 134.329 250.615 135.355 251.478 136.218C252.342 137.082 253.367 137.767 254.495 138.234C255.624 138.701 256.833 138.942 258.054 138.942H292.096C293.317 138.942 294.527 138.701 295.655 138.234C296.783 137.767 297.808 137.082 298.672 136.218C299.536 135.355 300.221 134.329 300.688 133.201C301.155 132.073 301.396 130.864 301.396 129.642V68.9981H301.982V57.5608Z" fill="#3F3D56"/>
<path d="M292.09 34.6128H287.646C287.851 35.1138 287.929 35.6574 287.873 36.1956C287.818 36.7338 287.631 37.2503 287.33 37.6993C287.028 38.1484 286.62 38.5164 286.143 38.7708C285.665 39.0253 285.132 39.1584 284.591 39.1584H265.089C264.548 39.1584 264.015 39.0253 263.538 38.7708C263.06 38.5164 262.653 38.1484 262.351 37.6993C262.049 37.2502 261.862 36.7338 261.807 36.1956C261.752 35.6574 261.83 35.1138 262.034 34.6128H257.884C256.972 34.6128 256.069 34.7924 255.226 35.1414C254.384 35.4904 253.618 36.002 252.973 36.6469C252.328 37.2918 251.817 38.0574 251.468 38.9C251.119 39.7425 250.939 40.6456 250.939 41.5576V129.578C250.939 130.49 251.119 131.393 251.468 132.235C251.817 133.078 252.328 133.843 252.973 134.488C253.618 135.133 254.384 135.645 255.226 135.994C256.069 136.343 256.972 136.522 257.884 136.522H292.09C293.002 136.522 293.905 136.343 294.748 135.994C295.59 135.645 296.356 135.133 297.001 134.488C297.646 133.843 298.157 133.078 298.506 132.235C298.855 131.393 299.035 130.49 299.035 129.578V41.5576C299.035 39.7157 298.303 37.9493 297.001 36.6469C295.698 35.3445 293.932 34.6128 292.09 34.6128Z" fill="white"/>
<path d="M175.594 86.0657H108.295V89.1354H175.594V86.0657Z" fill="#E6E6E6"/>
<path d="M175.594 95.9768H108.295V99.0465H175.594V95.9768Z" fill="#3CB9FF"/>
<path d="M175.594 105.888H108.295V108.957H175.594V105.888Z" fill="#E6E6E6"/>
<path d="M295.013 92.7637H255.725V95.8334H295.013V92.7637Z" fill="#E6E6E6"/>
<path d="M295.013 102.293H255.725V105.363H295.013V102.293Z" fill="#E6E6E6"/>
<path d="M295.013 111.823H255.725V114.893H295.013V111.823Z" fill="#E6E6E6"/>
<path d="M299.12 159.491V152.943H292.572V159.491H299.12Z" fill="#3F3D56"/>
<path d="M288.571 159.491V152.943H282.023V159.491H288.571Z" fill="#3CB9FF"/>
<path d="M278.021 159.491V152.943H271.473V159.491H278.021Z" fill="#3F3D56"/>
<path d="M267.471 159.491V152.943H260.923V159.491H267.471Z" fill="#3F3D56"/>
<path d="M256.922 159.491V152.943H250.374V159.491H256.922Z" fill="#3F3D56"/>
<path d="M285.9 52.9832H264.074V74.8098H285.9V52.9832Z" fill="#3CB9FF"/>
<path d="M133.27 105.056L132.988 105.621L132.14 101.384C132.14 101.384 131.01 96.8633 133.27 96.8633C135.53 96.8633 134.965 101.384 134.965 101.384V104.491L133.27 105.056Z" fill="#A0616A"/>
<path d="M170.338 104.478L170.621 105.043L171.468 100.805C171.468 100.805 172.598 96.2844 170.338 96.2844C168.078 96.2844 168.643 100.805 168.643 100.805V103.912L170.338 104.478Z" fill="#A0616A"/>
<path d="M145.7 136.828L142.31 157.735L144.005 178.076L147.96 176.381L147.395 161.125L151.351 148.976L152.198 163.385L150.503 178.358L155.588 178.924L159.261 148.129L158.979 137.676L145.7 136.828Z" fill="#2F2E41"/>
<path d="M145.701 175.533L143.724 178.641V185.585C143.724 185.785 143.795 185.979 143.924 186.131C144.054 186.283 144.234 186.385 144.431 186.416C145.4 186.575 147.088 186.689 147.679 185.704C148.526 184.292 147.961 181.184 147.961 181.184C147.961 181.184 149.091 178.924 148.526 177.229C147.961 175.533 147.396 175.251 147.396 175.251L145.701 175.533Z" fill="#2F2E41"/>
<path d="M154.176 178.359L154.741 179.206C154.741 179.206 155.589 180.054 155.024 180.619C154.609 181.058 154.231 181.53 153.894 182.031C153.894 182.031 150.786 182.879 150.786 181.749V178.076L154.176 178.359Z" fill="#2F2E41"/>
<path d="M153.158 113.834C155.226 113.834 156.903 112.157 156.903 110.089C156.903 108.02 155.226 106.344 153.158 106.344C151.089 106.344 149.413 108.02 149.413 110.089C149.413 112.157 151.089 113.834 153.158 113.834Z" fill="#A0616A"/>
<path d="M150.645 111.26L150.363 116.628L155.448 116.911L155.166 111.542L150.645 111.26Z" fill="#A0616A"/>
<path d="M156.154 117.052L155.352 115.092C155.352 115.092 151.634 113.661 150.504 115.074L149.939 116.769L145.418 115.639L142.876 121.289L145.136 137.393C145.136 137.393 151.069 145.021 158.979 137.676L161.24 122.42L159.544 116.487L156.154 117.052Z" fill="#575A89"/>
<path d="M158.979 117.617L159.544 116.486L165.195 113.096L168.643 102.889L171.312 104.032L168.302 116.204L160.109 123.832L158.979 117.617Z" fill="#575A89"/>
<path d="M145.983 116.204L145.419 115.639L139.485 111.966L135.248 103.491L131.858 104.621L135.53 115.074L144.571 122.42L145.983 116.204Z" fill="#575A89"/>
<path d="M155.938 104.354L156.55 104.048L155.631 103.741V103.435C155.631 103.435 151.039 101.598 150.427 104.66C149.637 105.722 149.21 107.01 149.21 108.334C149.21 109.657 149.637 110.946 150.427 112.008V112.926L155.325 113.538L155.938 111.701C155.938 111.701 158.999 106.191 155.938 104.354Z" fill="#2F2E41"/>
<path d="M43.8721 137.16L42.7836 137.704C42.7836 137.704 38.4297 139.699 39.6996 140.788C40.9695 141.876 44.4163 139.699 44.4163 139.699L45.142 138.792L43.8721 137.16Z" fill="#FFB8B8"/>
<path d="M75.719 136.889L72.3545 159.474L67.2747 175.257L64.5537 173.987L67.0932 152.399L59.8367 146.231L60.381 137.16L75.719 136.889Z" fill="#2F2E41"/>
<path d="M64.1908 174.531C64.1908 174.531 67.2749 172.898 67.4563 175.257L67.0935 177.615C67.0935 177.615 68.182 181.788 64.5537 180.881C60.9254 179.974 63.4652 177.252 63.4652 177.252L64.1908 174.531Z" fill="#2F2E41"/>
<path d="M62.1951 144.235L59.8367 146.23C59.8367 146.23 59.8367 158.567 61.4694 160.381C63.1021 162.195 73.4428 171.447 73.8056 171.81C74.1684 172.173 75.8012 168.182 75.8012 168.182L66.0048 156.752L66.7304 149.677L62.1951 144.235Z" fill="#2F2E41"/>
<path d="M74.7129 167.637C74.7129 167.637 77.6156 167.093 77.6156 169.088C77.6517 170.666 77.7728 172.241 77.9784 173.805C77.9784 173.805 78.7041 180.155 76.3457 179.248C73.9873 178.341 73.0802 171.991 73.0802 171.991C73.2996 171.463 73.6807 171.019 74.1687 170.721C74.8943 170.358 74.7129 167.637 74.7129 167.637Z" fill="#2F2E41"/>
<path d="M65.6418 109.948L66.1862 116.66L64.7349 119.2L60.7438 115.39L60.3809 110.311L65.6418 109.948Z" fill="#FFB8B8"/>
<path d="M62.376 112.124C64.7807 112.124 66.73 110.175 66.73 107.77C66.73 105.366 64.7807 103.416 62.376 103.416C59.9714 103.416 58.0221 105.366 58.0221 107.77C58.0221 110.175 59.9714 112.124 62.376 112.124Z" fill="#FFB8B8"/>
<path d="M64.1907 116.479L66.0048 111.218L69.2702 114.846L75.257 137.885L70.7214 140.607L68.7262 137.704L68.3633 141.514L59.4737 139.7L58.7483 115.39L60.5613 112.836L64.1907 116.479Z" fill="#D0CDE1"/>
<path d="M61.651 142.24L60.5627 112.851L58.2042 114.665L53.8501 117.567L56.7529 127.908L57.6598 138.793L61.651 142.24Z" fill="#2F2E41"/>
<path d="M55.1201 117.748L53.8499 117.567L50.2216 128.27L42.9651 137.341L45.6865 140.244L54.0313 132.08L57.1156 125.368L55.1201 117.748Z" fill="#2F2E41"/>
<path d="M74.9319 137.326L74.6843 138.517C74.6843 138.517 73.5519 143.171 75.1931 142.849C76.8344 142.527 77.2623 138.473 77.2623 138.473L77.0002 137.341L74.9319 137.326Z" fill="#FFB8B8"/>
<path d="M65.7213 110.923L74.7127 114.483L73.6244 125.367L75.8014 137.341L73.6244 139.699L65.575 112.465L65.7213 110.923Z" fill="#2F2E41"/>
<path d="M62.6048 100.458L63.8828 99.8191V100.458L64.7349 100.032V101.097C64.7349 101.097 67.9299 103.44 67.2909 106.209C66.6519 108.978 66.6519 109.191 66.6519 109.191C66.6519 109.191 65.844 103.925 62.649 104.777C59.4539 105.629 59.1968 105.783 58.3448 108.126L58.1136 109.131C58.1136 109.131 54.5107 100.884 62.6048 100.458Z" fill="#2F2E41"/>
<path d="M73.4427 114.483H74.8939L77.2524 127.182V138.248L74.3499 137.704L71.9915 121.014L73.4427 114.483Z" fill="#2F2E41"/>
<path d="M54.8381 141.338H1.34766V178.51H54.8381V141.338Z" fill="#3CB9FF"/>
<path d="M28.0925 148.591C25.8511 148.591 23.66 149.256 21.7964 150.501C19.9327 151.746 18.4802 153.516 17.6224 155.587C16.7647 157.658 16.5403 159.937 16.9775 162.135C17.4148 164.333 18.4941 166.353 20.079 167.937C21.664 169.522 23.6833 170.602 25.8816 171.039C28.0799 171.476 30.3585 171.252 32.4293 170.394C34.5001 169.536 36.27 168.084 37.5153 166.22C38.7606 164.356 39.4252 162.165 39.4252 159.924C39.4164 156.921 38.2196 154.044 36.0962 151.92C33.9728 149.797 31.0954 148.6 28.0925 148.591ZM28.0925 151.991C28.7649 151.991 29.4222 152.191 29.9813 152.564C30.5404 152.938 30.9762 153.469 31.2335 154.09C31.4908 154.711 31.5582 155.395 31.427 156.054C31.2958 156.714 30.972 157.32 30.4965 157.795C30.0211 158.27 29.4153 158.594 28.7558 158.725C28.0963 158.857 27.4127 158.789 26.7914 158.532C26.1702 158.275 25.6392 157.839 25.2656 157.28C24.8921 156.721 24.6927 156.063 24.6927 155.391C24.6957 154.49 25.0548 153.627 25.6918 152.99C26.3287 152.353 27.1917 151.994 28.0925 151.991ZM28.0925 168.358C26.7494 168.352 25.4281 168.018 24.2432 167.386C23.0583 166.754 22.0456 165.842 21.2928 164.73C21.3473 162.463 25.8259 161.215 28.0925 161.215C30.359 161.215 34.8376 162.463 34.8921 164.73C34.1385 165.841 33.1256 166.752 31.9409 167.384C30.7562 168.017 29.4353 168.351 28.0925 168.358Z" fill="white"/>
<path d="M175.423 34.6538H108.332V73.1551H175.423V34.6538Z" fill="#E6E6E6"/>
<path d="M308.087 111.018L308.398 109.013C308.398 109.013 310.21 104.894 308.778 104.672C307.345 104.45 306.151 108.372 306.151 108.372L306.675 112.559L308.087 111.018Z" fill="#FFB8B8"/>
<path d="M322.752 122.385L309.95 119.814L308.463 110.49L304.695 110.199L304.879 122.254L316.001 128.085L322.752 122.385Z" fill="#575A89"/>
<path opacity="0.2" d="M322.752 122.385L309.95 119.814L308.463 110.49L304.695 110.199L304.879 122.254L316.001 128.085L322.752 122.385Z" fill="black"/>
<path d="M287.926 108.552H327.214V105.483H287.926V108.552Z" fill="#3CB9FF"/>
<path d="M305.586 110.331L305.589 108.302C305.589 108.302 306.754 103.955 305.304 103.954C303.855 103.952 303.27 108.009 303.27 108.009L304.424 112.069L305.586 110.331Z" fill="#FFB8B8"/>
<path d="M322.249 116.142L324.005 115.714C324.675 115.715 325.337 115.567 325.943 115.28C326.549 114.994 327.084 114.576 327.509 114.058C327.933 113.539 328.238 112.933 328.399 112.282C328.561 111.632 328.576 110.954 328.443 110.297C328.444 109.521 328.292 108.752 327.996 108.034C327.7 107.317 327.265 106.665 326.717 106.115C326.169 105.566 325.518 105.13 324.801 104.832C324.085 104.534 323.316 104.38 322.54 104.379C321.764 104.378 320.995 104.53 320.278 104.826C319.561 105.122 318.908 105.557 318.359 106.105C317.809 106.653 317.373 107.304 317.075 108.021C316.777 108.737 316.624 109.506 316.623 110.282C316.395 111.073 316.38 111.909 316.577 112.707C316.775 113.506 317.179 114.238 317.749 114.832C318.318 115.425 319.034 115.859 319.824 116.088C320.613 116.318 321.45 116.337 322.249 116.142Z" fill="#2F2E41"/>
<path d="M311.919 145.412L313.349 161.067L315.938 176.433L320.286 176.438L319.725 161.364L317.429 143.1L311.919 145.412Z" fill="#2F2E41"/>
<path d="M316.52 175.563L313.619 177.299C313.619 177.299 308.981 177.873 309.848 179.323C310.716 180.773 320.862 179.917 320.863 179.337C320.864 178.757 320.578 175.568 319.998 175.568L316.52 175.563Z" fill="#2F2E41"/>
<path d="M324.753 144.059C324.753 144.059 324.671 146.297 322.638 149.773L322.914 160.498L333.333 173.845L329.56 177.029L316.825 162.52L313.658 145.124L317.721 141.071L324.753 144.059Z" fill="#2F2E41"/>
<path d="M332.463 173.844C332.463 173.844 335.941 174.429 335.36 175.877C334.778 177.326 333.32 183.991 329.553 183.116C329.553 183.116 327.814 183.114 328.395 181.955C328.745 181.259 329.132 180.582 329.557 179.928L329.562 176.16L332.463 173.844Z" fill="#2F2E41"/>
<path d="M320.367 116.437C322.768 116.437 324.715 114.49 324.715 112.089C324.715 109.688 322.768 107.741 320.367 107.741C317.966 107.741 316.019 109.688 316.019 112.089C316.019 114.49 317.966 116.437 320.367 116.437Z" fill="#FFB8B8"/>
<path d="M322.392 114.99L322.386 119.917L317.748 119.911L318.334 114.985L322.392 114.99Z" fill="#FFB8B8"/>
<path d="M316.591 118.171L317.997 117.826L322.389 118.178C322.389 118.178 324.704 120.5 324.414 121.08C324.123 121.659 322.656 135.86 322.656 135.86L325.252 146.009L315.976 146.577L311.339 145.991L312.231 127.731C312.231 127.731 310.209 122.801 312.819 121.355C314.294 120.581 315.581 119.495 316.591 118.171Z" fill="#575A89"/>
<path d="M321.807 119.337L308.764 118.741L305.877 109.752L302.108 110.037L304.122 121.924L316.002 125.997L321.807 119.337Z" fill="#575A89"/>
<path d="M328.76 108.885C330.31 108.885 331.565 107.629 331.565 106.08C331.565 104.531 330.31 103.275 328.76 103.275C327.211 103.275 325.955 104.531 325.955 106.08C325.955 107.629 327.211 108.885 328.76 108.885Z" fill="#2F2E41"/>
<path d="M326.172 104.573C326.172 104.158 326.264 103.748 326.442 103.373C326.62 102.998 326.879 102.667 327.2 102.405C327.521 102.142 327.897 101.954 328.299 101.854C328.702 101.754 329.122 101.744 329.529 101.826C329.17 101.657 328.779 101.565 328.382 101.558C327.985 101.551 327.591 101.628 327.226 101.784C326.862 101.94 326.534 102.173 326.266 102.465C325.997 102.757 325.794 103.103 325.669 103.48C325.544 103.857 325.501 104.256 325.542 104.651C325.583 105.046 325.708 105.428 325.907 105.771C326.107 106.114 326.377 106.411 326.7 106.642C327.023 106.873 327.391 107.032 327.78 107.11C327.299 106.884 326.892 106.525 326.607 106.075C326.322 105.626 326.171 105.105 326.172 104.573Z" fill="#2F2E41"/>
<path d="M323.765 106.163L319.983 105.467L317.075 107.29C316.359 107.738 315.788 108.382 315.428 109.145C315.068 109.908 314.934 110.758 315.042 111.595L317.955 110.857L318.607 109.221L319.384 110.495L322.536 116.005L325.726 114.269L327.759 111.083L323.765 106.163Z" fill="#2F2E41"/>
<path d="M108.522 34.3233L108.142 34.9844L175.234 73.4856L175.613 72.8245L108.522 34.3233Z" fill="white"/>
<path d="M175.236 34.3259L108.141 72.822L108.521 73.4832L175.615 34.9871L175.236 34.3259Z" fill="white"/>
<path d="M264.513 52.6822L263.974 53.2212L285.703 74.9496L286.242 74.4106L264.513 52.6822Z" fill="white"/>
<path d="M285.703 52.682L263.974 74.4104L264.513 74.9495L286.242 53.221L285.703 52.682Z" fill="white"/>
</g>
<defs>
<clipPath id="clip0">
<rect width="339.384" height="186.521" fill="white"/>
</clipPath>
</defs>
</svg>
