<svg width="273" height="216" viewBox="0 0 273 216" fill="none" xmlns="http://www.w3.org/2000/svg">
<g clip-path="url(#clip0)">
<path d="M273 4.60669H109.281V82.2945H273V4.60669Z" fill="#E6E6E6"/>
<path d="M268.319 11.2686H113.962V76.0859H268.319V11.2686Z" fill="white"/>
<path d="M272.93 0.118164H109.211V7.07346H272.93V0.118164Z" fill="#3CB9FF"/>
<path d="M114.379 5.49747C115.091 5.49747 115.668 4.9203 115.668 4.20833C115.668 3.49636 115.091 2.91919 114.379 2.91919C113.667 2.91919 113.09 3.49636 113.09 4.20833C113.09 4.9203 113.667 5.49747 114.379 5.49747Z" fill="white"/>
<path d="M119.273 5.49747C119.985 5.49747 120.562 4.9203 120.562 4.20833C120.562 3.49636 119.985 2.91919 119.273 2.91919C118.561 2.91919 117.984 3.49636 117.984 4.20833C117.984 4.9203 118.561 5.49747 119.273 5.49747Z" fill="white"/>
<path d="M124.166 5.49747C124.878 5.49747 125.455 4.9203 125.455 4.20833C125.455 3.49636 124.878 2.91919 124.166 2.91919C123.454 2.91919 122.877 3.49636 122.877 4.20833C122.877 4.9203 123.454 5.49747 124.166 5.49747Z" fill="white"/>
<path d="M231.979 21.7571H206.316V65.5984H231.979V21.7571Z" fill="#F2F2F2"/>
<path d="M202.065 21.7561H150.301V33.8239H202.065V21.7561Z" fill="#3CB9FF"/>
<path d="M202.065 37.1848H150.301V50.1692H202.065V37.1848Z" fill="#F2F2F2"/>
<path d="M202.065 53.5298H150.301V65.5976H202.065V53.5298Z" fill="#F2F2F2"/>
<path d="M78.1106 129.748C78.1155 128.859 77.9326 127.98 77.5739 127.166C77.2151 126.353 76.6887 125.625 76.0289 125.03C75.3691 124.434 74.591 123.985 73.7454 123.711C72.8999 123.437 72.0061 123.345 71.1225 123.441C70.8429 123.472 70.5659 123.523 70.2934 123.593L48.9424 105.292L50.2183 98.4151L39.6948 95.0046L36.5219 106.026C36.1466 107.348 36.2077 108.757 36.6963 110.042C37.1848 111.327 38.0747 112.421 39.2339 113.16L65.4993 129.772C65.4994 129.979 65.5102 130.186 65.5315 130.391C65.6274 131.275 65.909 132.128 66.3577 132.895C66.8065 133.663 67.4123 134.326 68.1354 134.843C68.8586 135.36 69.6828 135.718 70.554 135.894C71.4253 136.07 72.3239 136.06 73.191 135.865C73.4431 135.809 73.6913 135.737 73.9343 135.65C75.15 135.211 76.2019 134.41 76.9485 133.354C77.6951 132.299 78.1006 131.041 78.1106 129.748Z" fill="#9F616A"/>
<path d="M25.0297 150.973H52.558C52.558 151.764 80.9293 152.407 80.9293 152.407C81.3746 152.742 81.7805 153.127 82.1391 153.553C83.2167 154.839 83.8057 156.463 83.8022 158.141V159.287C83.8015 161.188 83.0461 163.011 81.7021 164.355C80.3581 165.699 78.5355 166.454 76.6348 166.455H25.0297C23.1293 166.453 21.3072 165.697 19.9634 164.354C18.6196 163.01 17.864 161.188 17.8623 159.287V158.141C17.8649 156.24 18.6209 154.419 19.9645 153.075C21.3081 151.732 23.1296 150.976 25.0297 150.973Z" fill="#3F3D56"/>
<path d="M54.974 166.17H47.5199V214.335H54.974V166.17Z" fill="#3F3D56"/>
<path d="M76.1894 214.934C76.1894 215.836 64.8939 215.283 50.9602 215.283C37.0266 215.283 25.7311 215.836 25.7311 214.934C25.7311 214.032 37.0266 206.881 50.9602 206.881C64.8939 206.881 76.1894 214.032 76.1894 214.934Z" fill="#3F3D56"/>
<path d="M69.461 208.428L76.4902 208.427L79.8345 190.195L69.4596 190.196L69.461 208.428Z" fill="#9F616A"/>
<path d="M67.6677 215.242L90.3341 215.241V214.954C90.3341 213.796 90.106 212.649 89.6626 211.578C89.2193 210.508 88.5694 209.535 87.7502 208.716C86.931 207.897 85.9585 207.247 84.8881 206.804C83.8178 206.36 82.6706 206.132 81.512 206.132H81.5111L67.6673 206.133L67.6677 215.242Z" fill="#2F2E41"/>
<path d="M79.9742 197.121L93.9884 165.695C95.1584 163.047 95.2878 160.054 94.3507 157.314C93.4137 154.575 91.4789 152.288 88.9319 150.911L58.5345 134.611L44.6635 133.431L31.8685 132.268L31.7762 132.424C31.6582 132.623 28.9072 137.375 30.7668 142.585C32.1773 146.538 35.8463 149.625 41.6719 151.761C55.2695 156.747 70.9774 161.008 77.0997 162.608C77.3702 162.677 77.6231 162.803 77.8416 162.977C78.0601 163.151 78.2394 163.369 78.3675 163.617C78.496 163.863 78.5724 164.132 78.5917 164.408C78.6111 164.684 78.5731 164.961 78.4801 165.222L65.4604 194.473C65.3244 194.844 65.2755 195.242 65.3173 195.635C65.3591 196.028 65.4906 196.406 65.7017 196.74C65.9127 197.074 66.1977 197.355 66.5345 197.561C66.8714 197.768 67.2512 197.894 67.6446 197.931L77.3731 198.639C77.4557 198.647 77.5379 198.651 77.6197 198.651C78.118 198.651 78.6055 198.506 79.0233 198.235C79.4412 197.963 79.7714 197.577 79.9742 197.121Z" fill="#CBCBCB"/>
<path d="M64.8729 208.428L71.902 208.427L75.2468 190.195L64.8718 190.196L64.8729 208.428Z" fill="#9F616A"/>
<path d="M63.0804 215.242L85.7468 215.241V214.954C85.7468 213.796 85.5186 212.649 85.0753 211.578C84.6319 210.508 83.9821 209.535 83.1629 208.716C82.3437 207.897 81.3711 207.247 80.3008 206.804C79.2304 206.36 78.0832 206.132 76.9247 206.132H76.9238L63.08 206.133L63.0804 215.242Z" fill="#2F2E41"/>
<path d="M74.8136 198.842L88.8278 167.415C89.9978 164.767 90.1272 161.774 89.1901 159.035C88.2531 156.295 86.3183 154.008 83.7713 152.631L53.3739 136.331L39.5029 135.151L29.4812 134.282L29.4826 134.144C29.3646 134.344 26.6135 139.095 28.4731 144.306C29.8837 148.258 30.6858 151.345 36.5114 153.481C50.1089 158.467 65.8168 162.728 71.9391 164.328C72.2096 164.398 72.4625 164.523 72.681 164.697C72.8995 164.871 73.0788 165.089 73.2069 165.338C73.3354 165.583 73.4118 165.852 73.4311 166.128C73.4505 166.404 73.4125 166.682 73.3195 166.942L60.2998 196.194C60.1638 196.565 60.1149 196.962 60.1567 197.355C60.1985 197.748 60.33 198.126 60.5411 198.46C60.7521 198.794 61.0371 199.075 61.3739 199.281C61.7108 199.488 62.0906 199.614 62.484 199.651L72.2125 200.359C72.2951 200.367 72.3773 200.371 72.4591 200.371C72.9574 200.371 73.4449 200.226 73.8627 199.955C74.2806 199.683 74.6108 199.297 74.8136 198.842Z" fill="#CBCBCB"/>
<path d="M48.4033 134.855C49.0752 134.38 58.7243 139.442 60.4445 135.429C52.4171 115.36 57.9488 106.694 53.0316 95.1856C52.1655 93.2006 50.8608 91.4378 49.2155 90.0296C47.5702 88.6214 45.6271 87.6044 43.5323 87.0551L30.7747 86.4111L30.7086 86.4431C27.8297 87.8531 25.4819 90.1534 24.0133 93.0028C22.5447 95.8522 22.0334 99.0991 22.5554 102.262C22.6008 114.787 30.0946 124.339 27.4743 133.423C27.3644 133.803 27.3323 134.201 27.38 134.594C27.4277 134.986 27.5541 135.365 27.7517 135.708C27.9433 136.039 28.2007 136.327 28.5079 136.554C28.8152 136.782 29.1658 136.945 29.5383 137.032L46.3836 134.784C46.7771 134.878 47.186 134.887 47.5832 134.81C47.9803 134.733 48.3565 134.572 48.6867 134.339L48.4033 134.855Z" fill="#2F2E41"/>
<path d="M35.0322 81.6461C42.8101 81.6461 49.1153 75.3409 49.1153 67.563C49.1153 59.7852 42.8101 53.48 35.0322 53.48C27.2544 53.48 20.9492 59.7852 20.9492 67.563C20.9492 75.3409 27.2544 81.6461 35.0322 81.6461Z" fill="#9F616A"/>
<path d="M30.5465 80.4896C31.2948 80.817 32.8271 74.8547 32.1407 73.6622C31.1199 71.8887 31.1802 71.9014 30.5026 70.7281C29.825 69.5548 29.6733 67.9488 30.5509 66.9165C31.4284 65.8841 33.4591 66.021 33.8596 67.3154C33.6019 64.8568 36.0338 62.8805 38.4426 62.3251C40.8515 61.7698 43.3924 62.1146 45.8145 61.6204C48.6255 61.0468 51.5503 58.6905 50.4287 55.5994C50.2363 55.0847 49.9481 54.6111 49.5795 54.2037C48.2837 52.7467 46.4711 52.1246 44.6988 51.523C41.0118 50.2716 37.224 49.0045 33.333 49.1427C26.9396 49.3697 20.8963 53.7892 18.7423 59.813C18.4742 60.5647 18.2664 61.3365 18.1211 62.1211C16.7855 69.3024 20.9558 76.3859 27.729 79.1205L30.5465 80.4896Z" fill="#2F2E41"/>
<path d="M104.401 103.136L106.016 112.725C106.034 112.832 106.022 112.942 105.982 113.043L93.3117 144.701C93.2616 144.826 93.1699 144.931 93.0521 144.997C92.9343 145.063 92.7974 145.086 92.6643 145.063C92.5312 145.041 92.4099 144.973 92.3207 144.872C92.2314 144.77 92.1796 144.641 92.174 144.506L91.6372 131.784C91.6337 131.7 91.6483 131.616 91.6801 131.537L103.272 103.012C103.32 102.893 103.406 102.793 103.516 102.727C103.627 102.661 103.756 102.633 103.883 102.647C104.011 102.661 104.131 102.717 104.224 102.805C104.317 102.893 104.38 103.009 104.401 103.136Z" fill="#3F3D56"/>
<path d="M103.504 103.872L105.038 112.111L93.7947 140.999L92.3349 131.706L103.504 103.872Z" fill="#3CB9FF"/>
<path d="M54.311 144.554C54.5876 145.634 90.9081 146.803 91.2848 146.476C91.6227 146.057 91.9155 145.604 92.1584 145.124C92.539 144.445 92.8915 143.763 92.8915 143.763L92.2945 132.276L56.5162 128.453C56.5162 128.453 54.9333 138.038 54.4364 142.442C54.3242 143.14 54.2821 143.847 54.311 144.554Z" fill="#3F3D56"/>
<path opacity="0.1" d="M87.6134 133.491L87.6166 143.388L71.792 142.263L72.4922 132.416L87.6134 133.491Z" fill="black"/>
<path opacity="0.1" d="M66.9925 135.206L67.0882 135.194L66.341 139.401L57.5494 138.776L57.8496 134.556L66.9925 135.206Z" fill="black"/>
<path opacity="0.1" d="M54.311 144.554C54.5876 145.634 90.9081 146.802 91.2848 146.476C91.6227 146.057 91.9155 145.604 92.1584 145.124L54.4364 142.442C54.3242 143.14 54.2821 143.847 54.311 144.554Z" fill="black"/>
<path d="M39.727 127.401L70.3649 133.118C70.4415 133.31 70.528 133.498 70.6239 133.681C71.0402 134.464 71.6167 135.151 72.3158 135.697C73.0149 136.243 73.821 136.635 74.6818 136.849C75.546 137.067 76.4466 137.097 77.3235 136.938C78.2003 136.779 79.0331 136.435 79.7662 135.928C81.0939 135.016 82.0227 133.632 82.3622 132.057C82.7016 130.483 82.426 128.838 81.5918 127.46C80.7576 126.083 79.428 125.076 77.8756 124.647C76.3231 124.219 74.6655 124.4 73.2423 125.154C72.9944 125.287 72.7561 125.437 72.529 125.603L45.9177 116.512L44.5557 109.652L33.5175 110.382L34.6612 121.883C34.8 123.225 35.3678 124.487 36.2803 125.481C37.1929 126.475 38.4016 127.148 39.727 127.401Z" fill="#9F616A"/>
<path d="M33.1438 115.512L49.1831 110.24L45.4417 99.4973C44.9449 98.0708 43.9598 96.8658 42.6605 96.0954C41.3612 95.3249 39.8314 95.0385 38.3414 95.2868C36.8342 95.5381 35.4664 96.3199 34.4852 97.4913C33.504 98.6627 32.9739 100.146 32.9908 101.674L33.1438 115.512Z" fill="#2F2E41"/>
<path d="M134.891 215.804H0.353117C0.259465 215.804 0.169648 215.766 0.103425 215.7C0.0372031 215.634 0 215.544 0 215.451C0 215.357 0.0372031 215.267 0.103425 215.201C0.169648 215.135 0.259465 215.097 0.353117 215.097H134.891C134.984 215.097 135.074 215.135 135.141 215.201C135.207 215.267 135.244 215.357 135.244 215.451C135.244 215.544 135.207 215.634 135.141 215.7C135.074 215.766 134.984 215.804 134.891 215.804Z" fill="#CBCBCB"/>
<path d="M187.226 204.678C193.678 208.017 196.547 215.289 196.547 215.289C196.547 215.289 188.954 217.145 182.502 213.806C176.049 210.466 173.18 203.195 173.18 203.195C173.18 203.195 180.773 201.338 187.226 204.678Z" fill="#F1F1F1"/>
<path d="M185.162 207.084C189.012 213.245 196.492 215.516 196.492 215.516C196.492 215.516 197.728 207.798 193.878 201.637C190.027 195.475 182.548 193.204 182.548 193.204C182.548 193.204 181.311 200.922 185.162 207.084Z" fill="#F1F1F1"/>
<path d="M208.339 215.664H168.084C167.99 215.664 167.9 215.626 167.834 215.56C167.768 215.494 167.731 215.404 167.731 215.31C167.731 215.217 167.768 215.127 167.834 215.061C167.9 214.994 167.99 214.957 168.084 214.957H208.339C208.433 214.957 208.523 214.994 208.589 215.061C208.655 215.127 208.692 215.217 208.692 215.31C208.692 215.404 208.655 215.494 208.589 215.56C208.523 215.626 208.433 215.664 208.339 215.664Z" fill="#CBCBCB"/>
</g>
<defs>
<clipPath id="clip0">
<rect width="273" height="215.685" fill="white" transform="translate(0 0.118164)"/>
</clipPath>
</defs>
</svg>
