<svg width="46" height="35" viewBox="0 0 46 35" fill="none" xmlns="http://www.w3.org/2000/svg">
<path d="M5.58848 30.7048C4.82399 32.6714 6.2747 34.7918 8.38462 34.7918H11.4472C12.6846 34.7918 13.795 34.0321 14.2434 32.8788L19.6292 19.0245C19.7639 18.6779 19.833 18.3093 19.833 17.9375V3.2085C19.833 1.55164 18.4899 0.208496 16.833 0.208496H3.83301C2.17615 0.208496 0.833008 1.55164 0.833008 3.2085V15.5001C0.833008 17.157 2.17615 18.5001 3.83301 18.5001H5.94806C8.05799 18.5001 9.5087 20.6206 8.74421 22.5871L5.58848 30.7048ZM30.9218 30.7048C30.1573 32.6714 31.608 34.7918 33.718 34.7918H36.7805C38.0179 34.7918 39.1283 34.0321 39.5767 32.8788L44.9625 19.0245C45.0972 18.6779 45.1663 18.3093 45.1663 17.9375V3.2085C45.1663 1.55164 43.8232 0.208496 42.1663 0.208496H29.1663C27.5095 0.208496 26.1663 1.55164 26.1663 3.2085V15.5001C26.1663 17.157 27.5095 18.5001 29.1663 18.5001H31.2814C33.3913 18.5001 34.842 20.6206 34.0775 22.5871L30.9218 30.7048Z" fill="#F9B06A" fill-opacity="0.8"/>
</svg>
