<svg width="53" height="55" viewBox="0 0 53 55" fill="none" xmlns="http://www.w3.org/2000/svg">
<path d="M3.99512 14.5199L26.2087 1.7583L48.4221 14.5199V40.0432L26.2087 52.8049L3.99512 40.0432V14.5199Z" fill="url(#paint0_linear)"/>
<path d="M37.1501 27.2588L31.6687 36.7072L26.1873 27.2588H37.1501Z" fill="url(#paint1_linear)"/>
<path d="M26.2043 27.2866L20.7229 36.7347L15.2415 27.2866H26.2043Z" fill="url(#paint2_linear)"/>
<path d="M31.6899 36.736H20.7271L26.2085 27.2886L31.6899 36.736Z" fill="url(#paint3_linear)"/>
<path d="M37.1793 27.2814L31.6977 17.833L26.2163 27.2814H37.1793Z" fill="url(#paint4_linear)"/>
<path d="M26.2102 27.2863L20.7288 17.8379L15.2473 27.2863H26.2102Z" fill="url(#paint5_linear)"/>
<path d="M31.6959 17.8364H20.7329L26.2143 27.2837L31.6959 17.8364Z" fill="url(#paint6_linear)"/>
<path d="M31.6956 17.8364L42.5649 17.8839V27.2907L31.6956 17.8364Z" fill="url(#paint7_linear)"/>
<path d="M42.5649 36.6784V27.2907L31.6956 17.8364L42.5649 36.6784Z" fill="url(#paint8_linear)"/>
<path d="M9.85083 36.6782L20.727 36.7357L9.85083 27.2905V36.6782Z" fill="url(#paint9_linear)"/>
<path d="M9.85083 27.2911V17.8843L20.727 36.7363L9.85083 27.2911Z" fill="url(#paint10_linear)"/>
<path d="M20.7329 17.8361L26.2081 8.48633L34.3867 13.1849L20.7329 17.8361Z" fill="url(#paint11_linear)"/>
<path d="M20.7329 17.8362L34.3867 13.1851L42.5651 17.8837L20.7329 17.8362Z" fill="url(#paint12_linear)"/>
<path d="M31.69 36.7358L26.2081 46.0753L18.0798 41.4055L31.69 36.7358Z" fill="url(#paint13_linear)"/>
<path d="M9.85083 36.6782L18.0797 41.4054L31.6898 36.7357L9.85083 36.6782Z" fill="url(#paint14_linear)"/>
<path d="M37.1731 27.2905L42.5651 36.6782L34.3865 41.3767L37.1731 27.2905Z" fill="url(#paint15_linear)"/>
<path d="M37.1732 27.2905L34.3866 41.3767L26.208 46.0751L37.1732 27.2905Z" fill="url(#paint16_linear)"/>
<path d="M15.2411 27.2862L9.85083 17.8837L18.0293 13.1851L15.2411 27.2862Z" fill="url(#paint17_linear)"/>
<path d="M26.2083 8.48633L18.0298 13.1849L15.2415 27.2861L26.2083 8.48633Z" fill="url(#paint18_linear)"/>
<path d="M9.85083 17.8836L16.7642 11.0044L18.0293 13.185L9.85083 17.8836Z" fill="url(#paint19_linear)"/>
<path d="M16.7642 11.0043L26.2079 8.48633L18.0293 13.1849L16.7642 11.0043Z" fill="url(#paint20_linear)"/>
<path d="M26.208 8.48633L35.6518 11.0043L34.3866 13.1849L26.208 8.48633Z" fill="url(#paint21_linear)"/>
<path d="M35.6518 11.0044L42.5651 17.8836L34.3865 13.185L35.6518 11.0044Z" fill="url(#paint22_linear)"/>
<path d="M42.5649 17.8843L45.0956 27.2814L42.5649 27.2911V17.8843Z" fill="url(#paint23_linear)"/>
<path d="M45.0956 27.2808L42.5649 36.6782V27.2905L45.0956 27.2808Z" fill="url(#paint24_linear)"/>
<path d="M26.208 46.0754L35.6518 43.5575L34.3866 41.377L26.208 46.0754Z" fill="url(#paint25_linear)"/>
<path d="M42.5651 36.6782L35.6518 43.5573L34.3865 41.3767L42.5651 36.6782Z" fill="url(#paint26_linear)"/>
<path d="M9.85083 36.6782L16.7642 43.5573L18.0795 41.4054L9.85083 36.6782Z" fill="url(#paint27_linear)"/>
<path d="M16.7642 43.5571L26.2079 46.075L18.0795 41.4053L16.7642 43.5571Z" fill="url(#paint28_linear)"/>
<path d="M9.85095 17.8843L7.32056 27.2814L9.85095 27.2911V17.8843Z" fill="url(#paint29_linear)"/>
<path d="M7.32056 27.2808L9.85095 36.6782V27.2905L7.32056 27.2808Z" fill="url(#paint30_linear)"/>
<path d="M3.99512 14.5199L15.6757 9.1283L26.2085 1.7583L3.99512 14.5199Z" fill="#3B424E"/>
<path d="M3.99463 14.5195L5.14249 27.2811L3.99463 40.0428V14.5195Z" fill="#0D0D11"/>
<path d="M3.99463 40.0425L15.6753 45.4343L26.208 52.804L3.99463 40.0425Z" fill="#5D6475"/>
<path d="M26.208 52.804L36.7409 45.4343L48.4214 40.0425L26.208 52.804Z" fill="#555D6B"/>
<path d="M48.4215 40.0428L47.2734 27.2811L48.4215 14.5195V40.0428Z" fill="#747C8F"/>
<path d="M26.208 1.75781L36.7409 9.12777L48.4214 14.5194L26.208 1.75781Z" fill="#737A8B"/>
<path d="M16.7642 11.0047L26.2081 1.75781L15.6751 9.12781L9.85083 17.8839L16.7642 11.0047Z" fill="url(#paint31_linear)"/>
<path d="M3.99463 14.5195L7.32053 27.2811L9.85094 17.884L15.6752 9.12793L3.99463 14.5195Z" fill="url(#paint32_linear)"/>
<path d="M5.14249 27.2811L9.85094 36.6785L3.99463 14.5195L5.14249 27.2811Z" fill="url(#paint33_linear)"/>
<path d="M5.14249 27.2808L3.99463 40.0424L16.7643 43.5572L9.85094 36.6782L5.14249 27.2808Z" fill="url(#paint34_linear)"/>
<path d="M15.6753 45.4343L26.208 46.0752L3.99463 40.0425L15.6753 45.4343Z" fill="url(#paint35_linear)"/>
<path d="M15.6755 45.4346L26.2083 52.8044L35.6521 43.5576L26.2083 46.0755L15.6755 45.4346Z" fill="url(#paint36_linear)"/>
<path d="M35.6518 43.5573L26.208 52.804L36.7409 45.4343L42.565 36.6782L35.6518 43.5573Z" fill="url(#paint37_linear)"/>
<path d="M42.5651 36.6782L36.741 45.4342L48.4217 40.0424L45.0958 27.2808L42.5651 36.6782Z" fill="url(#paint38_linear)"/>
<path d="M45.0956 27.2814L48.4214 40.043L47.2735 27.2814L42.5649 17.8843L45.0956 27.2814Z" fill="url(#paint39_linear)"/>
<path d="M42.5651 17.8836L47.2735 27.2807L48.4215 14.5191L35.6519 11.0044L42.5651 17.8836Z" fill="url(#paint40_linear)"/>
<path d="M26.208 8.48633L36.7409 9.12738L48.4216 14.519L35.6518 11.0043L26.208 8.48633Z" fill="url(#paint41_linear)"/>
<path d="M16.7642 11.0047L26.2079 8.48671L36.7408 9.12777L26.2079 1.75781L16.7642 11.0047Z" fill="url(#paint42_linear)"/>
<defs>
<linearGradient id="paint0_linear" x1="3.99512" y1="27.2815" x2="48.4221" y2="27.2815" gradientUnits="userSpaceOnUse">
<stop offset="1" stop-color="#3B3F4C"/>
</linearGradient>
<linearGradient id="paint1_linear" x1="31.6687" y1="27.2588" x2="31.6687" y2="36.7072" gradientUnits="userSpaceOnUse">
<stop stop-color="#58606D"/>
<stop offset="1" stop-color="#484D59"/>
</linearGradient>
<linearGradient id="paint2_linear" x1="24.1027" y1="34.228" x2="20.7592" y2="27.2927" gradientUnits="userSpaceOnUse">
<stop stop-color="#141419"/>
<stop offset="1" stop-color="#0F0F13"/>
</linearGradient>
<linearGradient id="paint3_linear" x1="26.8852" y1="29.5513" x2="26.1746" y2="37.1711" gradientUnits="userSpaceOnUse">
<stop stop-color="#0C0D10"/>
<stop offset="1" stop-color="#1D2630"/>
</linearGradient>
<linearGradient id="paint4_linear" x1="31.6977" y1="17.833" x2="31.6977" y2="27.2814" gradientUnits="userSpaceOnUse">
<stop stop-color="#434954"/>
<stop offset="1" stop-color="#5A626F"/>
</linearGradient>
<linearGradient id="paint5_linear" x1="18.4254" y1="18.7357" x2="20.6513" y2="27.0813" gradientUnits="userSpaceOnUse">
<stop stop-color="#0D0D11"/>
<stop offset="1" stop-color="#121216"/>
</linearGradient>
<linearGradient id="paint6_linear" x1="28.1055" y1="26.7315" x2="26.3811" y2="18.54" gradientUnits="userSpaceOnUse">
<stop stop-color="#191C20"/>
<stop offset="1" stop-color="#222933"/>
</linearGradient>
<linearGradient id="paint7_linear" x1="43.8186" y1="23.0202" x2="33.1207" y2="19.29" gradientUnits="userSpaceOnUse">
<stop stop-color="#21292F"/>
<stop offset="1" stop-color="#1A2229"/>
</linearGradient>
<linearGradient id="paint8_linear" x1="32.1452" y1="17.5157" x2="42.9292" y2="32.6394" gradientUnits="userSpaceOnUse">
<stop stop-color="#0C0E10"/>
<stop offset="1" stop-color="#0C0D10"/>
</linearGradient>
<linearGradient id="paint9_linear" x1="7.51406" y1="29.9554" x2="18.3446" y2="39.4525" gradientUnits="userSpaceOnUse">
<stop stop-color="#313A42"/>
<stop offset="1" stop-color="#262C32"/>
</linearGradient>
<linearGradient id="paint10_linear" x1="8.33268" y1="19.3771" x2="18.0485" y2="37.2022" gradientUnits="userSpaceOnUse">
<stop stop-color="#6C747F"/>
<stop offset="1" stop-color="#79828D"/>
</linearGradient>
<linearGradient id="paint11_linear" x1="30.1912" y1="10.9213" x2="21.3695" y2="18.1044" gradientUnits="userSpaceOnUse">
<stop stop-color="#101219"/>
<stop offset="1" stop-color="#363D48"/>
</linearGradient>
<linearGradient id="paint12_linear" x1="37.8048" y1="15.6262" x2="20.7355" y2="17.9848" gradientUnits="userSpaceOnUse">
<stop stop-color="#262D36"/>
<stop offset="1" stop-color="#38414B"/>
</linearGradient>
<linearGradient id="paint13_linear" x1="21.9038" y1="44.0543" x2="28.8623" y2="34.8697" gradientUnits="userSpaceOnUse">
<stop stop-color="#535B64"/>
<stop offset="1" stop-color="#4D535C"/>
</linearGradient>
<linearGradient id="paint14_linear" x1="17.5813" y1="41.6774" x2="20.9711" y2="36.3412" gradientUnits="userSpaceOnUse">
<stop stop-color="#252B35"/>
<stop offset="1" stop-color="#2B323C"/>
</linearGradient>
<linearGradient id="paint15_linear" x1="37.9177" y1="27.2857" x2="38.4723" y2="39.0716" gradientUnits="userSpaceOnUse">
<stop stop-color="#454C57"/>
<stop offset="1" stop-color="#3B424C"/>
</linearGradient>
<linearGradient id="paint16_linear" x1="39.043" y1="28.3432" x2="28.5453" y2="46.991" gradientUnits="userSpaceOnUse">
<stop stop-color="#0C0C0F"/>
<stop offset="1" stop-color="#0D0D10"/>
</linearGradient>
<linearGradient id="paint17_linear" x1="18.1629" y1="13.6315" x2="12.5743" y2="22.6283" gradientUnits="userSpaceOnUse">
<stop stop-color="#050608"/>
<stop offset="1" stop-color="#101822"/>
</linearGradient>
<linearGradient id="paint18_linear" x1="24.0047" y1="7.58442" x2="13.3074" y2="26.2114" gradientUnits="userSpaceOnUse">
<stop stop-color="#8C959E"/>
<stop offset="1" stop-color="#666E7A"/>
</linearGradient>
<linearGradient id="paint19_linear" x1="17.4292" y1="12.0871" x2="9.23318" y2="16.8204" gradientUnits="userSpaceOnUse">
<stop stop-color="#343944"/>
<stop offset="0.37292"/>
</linearGradient>
<linearGradient id="paint20_linear" x1="18.8094" y1="13.5723" x2="23.5192" y2="6.7713" gradientUnits="userSpaceOnUse">
<stop stop-color="#3A3E49"/>
<stop offset="1" stop-color="#0E1520"/>
</linearGradient>
<linearGradient id="paint21_linear" x1="35.0979" y1="12.1364" x2="27.1659" y2="7.88332" gradientUnits="userSpaceOnUse">
<stop stop-color="#2D353E"/>
<stop offset="1" stop-color="#2B333C"/>
</linearGradient>
<linearGradient id="paint22_linear" x1="35" y1="12.0803" x2="42.5484" y2="17.8498" gradientUnits="userSpaceOnUse">
<stop stop-color="#6A7280"/>
<stop offset="1" stop-color="#4F5662"/>
</linearGradient>
<linearGradient id="paint23_linear" x1="42.5399" y1="17.8625" x2="43.8185" y2="27.2927" gradientUnits="userSpaceOnUse">
<stop stop-color="#666D7A"/>
<stop offset="1" stop-color="#6E7681"/>
</linearGradient>
<linearGradient id="paint24_linear" x1="43.8309" y1="27.2809" x2="42.5523" y2="36.6571" gradientUnits="userSpaceOnUse">
<stop stop-color="#707887"/>
<stop offset="1" stop-color="#707887"/>
</linearGradient>
<linearGradient id="paint25_linear" x1="35.1772" y1="42.4101" x2="26.5177" y2="45.5699" gradientUnits="userSpaceOnUse">
<stop stop-color="#384048"/>
<stop offset="1" stop-color="#383F48"/>
</linearGradient>
<linearGradient id="paint26_linear" x1="34.5702" y1="43.4986" x2="41.2721" y2="35.7499" gradientUnits="userSpaceOnUse">
<stop stop-color="#686F7C"/>
<stop offset="1" stop-color="#585C67"/>
</linearGradient>
<linearGradient id="paint27_linear" x1="9.93047" y1="36.578" x2="17.3314" y2="42.468" gradientUnits="userSpaceOnUse">
<stop stop-color="#121216"/>
<stop offset="1" stop-color="#10141B"/>
</linearGradient>
<linearGradient id="paint28_linear" x1="25.4346" y1="43.7308" x2="17.8966" y2="43.7544" gradientUnits="userSpaceOnUse">
<stop stop-color="#2E3641"/>
<stop offset="1" stop-color="#272E39"/>
</linearGradient>
<linearGradient id="paint29_linear" x1="6.40157" y1="23.4812" x2="10.9368" y2="22.2948" gradientUnits="userSpaceOnUse">
<stop stop-color="#101015"/>
<stop offset="1" stop-color="#07080B"/>
</linearGradient>
<linearGradient id="paint30_linear" x1="7.64663" y1="32.5201" x2="11.5171" y2="30.2699" gradientUnits="userSpaceOnUse">
<stop stop-color="#0E0F13"/>
<stop offset="1" stop-color="#11151C"/>
</linearGradient>
<linearGradient id="paint31_linear" x1="24.6548" y1="1.69443" x2="10.0035" y2="16.6317" gradientUnits="userSpaceOnUse">
<stop stop-color="#6D7487"/>
<stop offset="1" stop-color="#7B8296"/>
</linearGradient>
<linearGradient id="paint32_linear" x1="5.51808" y1="21.1138" x2="13.4123" y2="8.92074" gradientUnits="userSpaceOnUse">
<stop stop-color="#131821"/>
<stop offset="1" stop-color="#111924"/>
</linearGradient>
<linearGradient id="paint33_linear" x1="2.94021" y1="14.7981" x2="8.70201" y2="36.6052" gradientUnits="userSpaceOnUse">
<stop stop-color="#6E778A"/>
<stop offset="1" stop-color="#6E7588"/>
</linearGradient>
<linearGradient id="paint34_linear" x1="5.12873" y1="40.6194" x2="10.042" y2="36.1892" gradientUnits="userSpaceOnUse">
<stop stop-color="#262D36"/>
<stop offset="1" stop-color="#3E4651"/>
</linearGradient>
<linearGradient id="paint35_linear" x1="11.8095" y1="46.8181" x2="16.9308" y2="40.9114" gradientUnits="userSpaceOnUse">
<stop stop-color="#3E4652"/>
<stop offset="1" stop-color="#2C343E"/>
</linearGradient>
<linearGradient id="paint36_linear" x1="21.8884" y1="49.1884" x2="28.9124" y2="40.3717" gradientUnits="userSpaceOnUse">
<stop stop-color="#414955"/>
<stop offset="1" stop-color="#515963"/>
</linearGradient>
<linearGradient id="paint37_linear" x1="42.0278" y1="38.0022" x2="27.8774" y2="53.0565" gradientUnits="userSpaceOnUse">
<stop stop-color="#1F2223"/>
<stop offset="1" stop-color="#040707"/>
</linearGradient>
<linearGradient id="paint38_linear" x1="47.2863" y1="32.9419" x2="37.9302" y2="45.8334" gradientUnits="userSpaceOnUse">
<stop stop-color="#1F252C"/>
<stop offset="1" stop-color="#474E58"/>
</linearGradient>
<linearGradient id="paint39_linear" x1="43.499" y1="17.6334" x2="49.3174" y2="39.2945" gradientUnits="userSpaceOnUse">
<stop stop-color="#0E0F11"/>
<stop offset="1" stop-color="#0E0F12"/>
</linearGradient>
<linearGradient id="paint40_linear" x1="42.8134" y1="18.3919" x2="48.7213" y2="15.0755" gradientUnits="userSpaceOnUse">
<stop stop-color="#1F2732"/>
<stop offset="1" stop-color="#373D48"/>
</linearGradient>
<linearGradient id="paint41_linear" x1="48.21" y1="13.4646" x2="27.3378" y2="7.59785" gradientUnits="userSpaceOnUse">
<stop stop-color="#0F1521"/>
<stop offset="1" stop-color="#3B3F4C"/>
</linearGradient>
<linearGradient id="paint42_linear" x1="25.92" y1="12.7296" x2="28.4225" y2="4.64303" gradientUnits="userSpaceOnUse">
<stop stop-color="#111929"/>
<stop offset="1" stop-color="#131721"/>
</linearGradient>
</defs>
</svg>
