<svg width="249" height="134" viewBox="0 0 249 134" fill="none" xmlns="http://www.w3.org/2000/svg">
<path style="mix-blend-mode:multiply" d="M84.2636 64.2254L84.2221 64.1187C84.1166 63.8745 83.975 63.6474 83.8022 63.4456C83.7489 63.3819 83.6919 63.3214 83.6316 63.2644L67.1036 47.4813L49.1409 30.3334C48.615 29.84 47.9228 29.5657 47.2036 29.5657C46.4845 29.5657 45.7922 29.84 45.2662 30.3334L27.1884 47.5974L10.5819 63.478C10.3205 63.7267 10.1118 64.0259 9.96827 64.3577C9.82479 64.6896 9.74951 65.0473 9.74696 65.4092L9.59473 99.7979C9.5995 100.158 9.67507 100.513 9.81706 100.843C9.95904 101.174 10.1646 101.472 10.422 101.722C10.6793 101.972 10.9833 102.168 11.3163 102.299C11.6494 102.43 12.0049 102.494 12.3625 102.486L81.5559 102.263C82.2765 102.263 82.9688 101.98 83.4856 101.475C84.0026 100.97 84.3031 100.281 84.3236 99.5565L84.4343 65.1492C84.4368 64.8332 84.3789 64.5194 84.2636 64.2254ZM26.178 97.0637L15.1394 97.1008L15.2363 66.5232L26.3072 55.944L26.178 97.0637ZM49.8792 52.1513L64.0037 52.1049L74.8948 62.5032L49.8467 62.582L49.8792 52.1513ZM47.1667 36.0339L58.3714 46.7107L35.8928 46.7803L47.1667 36.0339ZM44.2006 97.0127L31.7135 97.0497L31.7551 85.2402L44.2376 85.2032L44.2006 97.0127ZM31.7689 79.8368L31.8612 52.2024L44.3437 52.1653L44.256 79.8044L31.7689 79.8368ZM78.7974 96.892L49.736 96.9848L49.8283 67.9716L78.8895 67.8788L78.7974 96.892Z" fill="#B2B2B2" fill-opacity="0.9"/>
<path d="M115.388 66.1964C111.783 66.1964 108.879 65.67 106.678 64.6171C104.508 63.5324 103.424 62.0329 103.424 60.1186C103.424 59.4167 103.599 58.7626 103.95 58.1564C104.333 57.5183 104.843 57.0079 105.482 56.625C106.471 58.5712 107.811 60.0707 109.502 61.1236C111.224 62.1445 113.091 62.655 115.101 62.655C117.845 62.655 120.046 62.1764 121.705 61.2193C123.364 60.2621 124.194 58.8902 124.194 57.1036C124.194 56.2102 123.859 55.4286 123.189 54.7586C122.551 54.0886 121.721 53.5302 120.7 53.0836C119.711 52.605 118.355 52.0467 116.632 51.4086C114.271 50.5471 112.357 49.7336 110.889 48.9679C109.454 48.2021 108.209 47.1812 107.157 45.905C106.104 44.5969 105.577 42.9857 105.577 41.0714C105.577 38.9976 106.279 37.1471 107.683 35.52C109.119 33.8609 111.113 32.5688 113.665 31.6436C116.249 30.7183 119.217 30.2557 122.567 30.2557C124.513 30.2557 126.252 30.4631 127.783 30.8779C129.346 31.2607 130.559 31.8031 131.42 32.505C132.313 33.2069 132.76 34.0205 132.76 34.9457C132.76 36.2857 132.313 37.3226 131.42 38.0564C130.559 38.7583 129.41 39.1093 127.974 39.1093C125.071 39.1093 123.093 37.3864 122.04 33.9407C118.818 34.3236 116.297 35.1052 114.479 36.2857C112.66 37.4343 111.751 38.8062 111.751 40.4014C111.751 41.231 112.07 41.9648 112.708 42.6029C113.346 43.209 114.144 43.7355 115.101 44.1821C116.058 44.5969 117.414 45.1393 119.169 45.8093C121.498 46.6388 123.412 47.4364 124.912 48.2021C126.411 48.9679 127.687 49.9888 128.74 51.265C129.825 52.5412 130.367 54.1205 130.367 56.0029C130.367 57.8533 129.777 59.5602 128.597 61.1236C127.448 62.655 125.741 63.8833 123.476 64.8086C121.243 65.7338 118.547 66.1964 115.388 66.1964ZM154.574 39.205C155.404 39.205 155.978 39.3645 156.297 39.6836C156.616 40.0026 156.776 40.4812 156.776 41.1193C156.776 41.9488 156.521 42.6986 156.01 43.3686C155.532 43.241 154.878 43.1452 154.048 43.0814C153.25 42.9857 152.501 42.9379 151.799 42.9379C151.193 42.9379 150.746 42.9538 150.459 42.9857C149.31 46.6867 148.401 50.0367 147.731 53.0357C147.093 56.0029 146.79 58.954 146.822 61.8893L148.353 64.4736C147.779 65.0479 147.125 65.4786 146.391 65.7657C145.689 66.0529 145.003 66.1964 144.333 66.1964C143.344 66.1964 142.562 65.9093 141.988 65.335C141.414 64.7607 141.127 63.6919 141.127 62.1286C141.127 60.5652 141.334 58.7786 141.749 56.7686C142.163 54.7267 142.77 52.1105 143.567 48.92L144.812 43.7993C143.759 43.9588 142.786 44.0386 141.892 44.0386C141.095 44.0386 140.52 43.895 140.169 43.6079C139.818 43.2888 139.643 42.8102 139.643 42.1721C139.643 41.3426 139.898 40.561 140.409 39.8271C141.302 40.1143 142.754 40.2579 144.764 40.2579H145.529C145.657 38.9817 145.721 38.1362 145.721 37.7214C145.721 36.509 145.529 35.0893 145.147 33.4621C145.689 32.8879 146.407 32.4412 147.3 32.1221C148.193 31.7712 149.071 31.5957 149.932 31.5957C150.858 31.5957 151.528 31.8031 151.942 32.2179C152.357 32.6326 152.564 33.3186 152.564 34.2757C152.564 35.2967 152.213 37.0195 151.512 39.4443C152.628 39.2848 153.649 39.205 154.574 39.205ZM171.003 66.1964C168.706 66.1964 166.68 65.686 164.925 64.665C163.203 63.6121 161.863 62.1445 160.905 60.2621C159.98 58.3479 159.518 56.1305 159.518 53.61C159.518 50.2281 160.219 47.229 161.623 44.6129C163.059 41.9967 165.053 39.9548 167.605 38.4871C170.158 37.0195 173.045 36.2857 176.268 36.2857C177.608 36.2857 178.836 36.4133 179.953 36.6686C180.303 37.179 180.511 37.9288 180.575 38.9179C177.384 38.9179 174.656 39.556 172.391 40.8321C170.126 42.1083 168.403 43.895 167.223 46.1921C166.042 48.4574 165.452 51.0417 165.452 53.945C165.452 56.7845 165.978 59.0019 167.031 60.5971C168.084 62.1924 169.583 62.99 171.53 62.99C173.412 62.99 175.103 62.4636 176.603 61.4107C178.134 60.3579 179.378 58.8583 180.335 56.9121C181.324 54.966 181.947 52.7007 182.202 50.1164C180.894 49.2869 179.937 48.3776 179.33 47.3886C178.756 46.3995 178.469 45.235 178.469 43.895C178.469 42.6826 178.836 41.6776 179.57 40.88C180.303 40.0505 181.213 39.6357 182.298 39.6357C183.765 39.6357 184.914 40.2898 185.743 41.5979C186.573 42.906 186.988 44.7245 186.988 47.0536C186.988 50.5631 186.27 53.7855 184.834 56.7207C183.43 59.624 181.5 61.9371 179.043 63.66C176.618 65.351 173.938 66.1964 171.003 66.1964ZM198.502 66.1964C196.333 66.1964 195.248 64.8724 195.248 62.2243C195.248 60.9162 195.679 58.0448 196.54 53.61C197.434 49.1433 198.391 44.9638 199.412 41.0714L197.306 38.6786C199.125 37.179 200.704 36.4293 202.044 36.4293C202.937 36.4293 203.591 36.6845 204.006 37.195C204.421 37.6736 204.628 38.2957 204.628 39.0614C204.628 40.0505 204.453 41.1352 204.102 42.3157C203.783 43.4643 203.304 44.8202 202.666 46.3836L203.145 46.6229C206.08 39.6995 209.222 36.2379 212.572 36.2379C214.678 36.2379 215.731 37.179 215.731 39.0614C215.731 40.1143 215.316 40.9598 214.487 41.5979C213.657 42.236 212.572 42.555 211.232 42.555C209.541 42.555 207.898 43.5121 206.303 45.4264C204.708 47.3407 203.416 49.8293 202.427 52.8921C201.438 55.955 200.943 59.1136 200.943 62.3679C200.943 63.5483 201.135 64.3779 201.517 64.8564C200.56 65.7498 199.555 66.1964 198.502 66.1964ZM242.036 43.1293C242.036 46.4155 240.345 48.9998 236.963 50.8821C233.613 52.7326 228.827 53.7376 222.606 53.8971V54.8064C222.606 57.3588 223.085 59.3688 224.042 60.8364C224.999 62.2721 226.307 62.99 227.966 62.99C230.04 62.99 231.731 62.336 233.039 61.0279C234.347 59.7198 235.065 57.981 235.192 55.8114C237.777 55.8114 239.069 56.7686 239.069 58.6829C239.069 59.959 238.558 61.1874 237.537 62.3679C236.516 63.5164 235.113 64.4417 233.326 65.1436C231.571 65.8455 229.625 66.1964 227.487 66.1964C224.105 66.1964 221.457 65.1595 219.543 63.0857C217.629 61.0119 216.672 58.1564 216.672 54.5193C216.672 51.0736 217.421 47.9629 218.921 45.1871C220.42 42.4114 222.494 40.2419 225.142 38.6786C227.79 37.0833 230.742 36.2857 233.996 36.2857C236.516 36.2857 238.479 36.8919 239.882 38.1043C241.318 39.3167 242.036 40.9917 242.036 43.1293ZM233.182 39.3007C231.555 39.3007 230.024 39.8271 228.588 40.88C227.184 41.901 225.972 43.3207 224.951 45.1393C223.962 46.926 223.276 48.9519 222.893 51.2171C227.296 51.1214 230.71 50.3557 233.135 48.92C235.591 47.4843 236.82 45.5062 236.82 42.9857C236.82 41.869 236.485 40.9757 235.815 40.3057C235.145 39.6357 234.267 39.3007 233.182 39.3007Z" fill="#B2B2B2"/>
<path d="M103.985 107.075C101.984 107.075 100.983 106.045 100.983 103.986C100.983 102.971 101.23 101.071 101.723 98.2864C102.216 95.473 103.042 91.0643 104.203 85.0604C105.334 79.2306 105.899 76.3156 105.899 76.3156L103.985 74.1403C104.652 73.5602 105.45 73.1107 106.378 72.7916C107.335 72.4436 108.205 72.2695 108.988 72.2695C109.8 72.2695 110.38 72.4581 110.729 72.8351C111.077 73.1832 111.251 73.7923 111.251 74.6624C111.251 75.2135 111.164 75.9386 110.99 76.8377C110.816 77.7078 110.525 78.955 110.119 80.5793C109.336 83.7407 108.771 86.1916 108.423 87.9319L108.858 88.1494C110.453 85.278 112.295 83.1897 114.383 81.8845C116.471 80.5503 118.574 79.8832 120.692 79.8832C122.548 79.8832 123.94 80.3617 124.868 81.3189C125.796 82.247 126.26 83.6972 126.26 85.6695C126.26 86.8297 126.13 88.0334 125.869 89.2806C125.637 90.5278 125.289 92.094 124.825 93.9793C124.274 96.1836 123.867 97.9964 123.606 99.4176C123.345 100.81 123.215 102.202 123.215 103.594C123.215 104.696 123.403 105.45 123.78 105.857C122.881 106.669 121.953 107.075 120.996 107.075C119.981 107.075 119.241 106.814 118.777 106.292C118.313 105.77 118.081 105.001 118.081 103.986C118.081 102.884 118.197 101.651 118.429 100.288C118.69 98.8955 119.053 97.0972 119.517 94.8929C119.952 93.0656 120.271 91.5429 120.474 90.3247C120.706 89.0775 120.822 88.0044 120.822 87.1052C120.822 84.7559 119.937 83.5812 118.168 83.5812C116.399 83.5812 114.572 84.4513 112.686 86.1916C110.83 87.9319 109.278 90.3392 108.031 93.4137C106.784 96.4591 106.16 99.8526 106.16 103.594C106.16 104.667 106.334 105.421 106.682 105.857C105.841 106.669 104.942 107.075 103.985 107.075ZM143.459 107.075C141.37 107.075 139.529 106.611 137.933 105.683C136.367 104.725 135.149 103.391 134.279 101.68C133.438 99.9397 133.017 97.9239 133.017 95.6325C133.017 92.5581 133.655 89.8316 134.931 87.4533C136.237 85.0749 138.049 83.2187 140.37 81.8845C142.69 80.5503 145.315 79.8832 148.244 79.8832C149.463 79.8832 150.579 79.9992 151.594 80.2312C151.913 80.6953 152.102 81.3769 152.16 82.276C149.26 82.276 146.78 82.8561 144.72 84.0163C142.661 85.1765 141.095 86.8007 140.022 88.889C138.948 90.9483 138.412 93.2977 138.412 95.9371C138.412 98.5184 138.89 100.534 139.848 101.984C140.805 103.435 142.168 104.16 143.937 104.16C145.648 104.16 147.186 103.681 148.549 102.724C149.941 101.767 151.072 100.404 151.942 98.6345C152.842 96.8652 153.407 94.8059 153.639 92.4565C152.45 91.7024 151.58 90.8758 151.029 89.9767C150.507 89.0775 150.246 88.0189 150.246 86.8007C150.246 85.6985 150.579 84.7849 151.246 84.0598C151.913 83.3057 152.74 82.9286 153.726 82.9286C155.06 82.9286 156.105 83.5232 156.859 84.7124C157.613 85.9016 157.99 87.5548 157.99 89.6721C157.99 92.8626 157.337 95.792 156.032 98.4604C154.756 101.1 153.001 103.203 150.768 104.769C148.563 106.306 146.127 107.075 143.459 107.075ZM186.078 103.594C186.078 104.696 186.325 105.465 186.818 105.9C185.948 106.683 184.947 107.075 183.816 107.075C182.83 107.075 182.09 106.741 181.597 106.074C181.133 105.407 180.901 104.363 180.901 102.942V102.811L180.466 102.594C179.538 103.899 178.29 104.972 176.724 105.813C175.158 106.654 173.635 107.075 172.156 107.075C169.778 107.075 168.023 106.509 166.892 105.378C165.76 104.218 165.195 102.434 165.195 100.027C165.195 98.8375 165.282 97.6193 165.456 96.3721C165.659 95.1249 165.964 93.4717 166.37 91.4124C166.689 89.8171 166.935 88.4684 167.109 87.3663C167.283 86.2641 167.37 85.278 167.37 84.4078C167.37 83.1316 167.211 82.015 166.892 81.0578C167.472 80.7098 168.081 80.4342 168.719 80.2312C169.357 79.9992 169.879 79.8832 170.285 79.8832C171.126 79.8832 171.735 80.1152 172.112 80.5793C172.519 81.0143 172.722 81.7249 172.722 82.7111C172.722 83.4362 172.606 84.4513 172.373 85.7565C172.141 87.0617 171.793 88.802 171.329 90.9773C171.01 92.5726 170.706 94.1243 170.416 95.6325C170.155 97.1117 170.024 98.1849 170.024 98.852C170.024 100.505 170.372 101.752 171.068 102.594C171.764 103.435 172.794 103.855 174.157 103.855C175.578 103.855 176.913 103.406 178.16 102.507C179.436 101.607 180.509 100.346 181.379 98.7215C182.046 95.0669 183.076 90.2667 184.468 84.3208L182.685 81.7104C183.265 81.1884 184.033 80.7533 184.99 80.4052C185.948 80.0572 186.818 79.8832 187.601 79.8832C188.471 79.8832 189.08 80.0717 189.428 80.4487C189.805 80.7968 189.994 81.4059 189.994 82.276C189.994 82.5081 189.718 83.7552 189.167 86.0176C188.239 89.9912 187.485 93.3992 186.905 96.2416C186.354 99.084 186.078 101.535 186.078 103.594ZM204.925 107.075C202.053 107.075 199.791 106.683 198.137 105.9C196.484 105.117 195.658 104.029 195.658 102.637C195.658 102.057 195.832 101.506 196.18 100.984C196.528 100.462 197.021 100.027 197.659 99.6786C198.384 101.129 199.356 102.246 200.574 103.029C201.792 103.783 203.141 104.16 204.62 104.16C206.708 104.16 208.391 103.768 209.667 102.985C210.943 102.202 211.581 101.071 211.581 99.5916C211.581 98.6925 211.102 97.9674 210.145 97.4163C209.217 96.8652 207.781 96.2561 205.838 95.589C204.04 94.9799 202.561 94.3998 201.4 93.8487C200.24 93.2977 199.254 92.5581 198.442 91.6299C197.63 90.6728 197.224 89.4981 197.224 88.1059C197.224 86.5107 197.775 85.0894 198.877 83.8423C199.979 82.5951 201.502 81.6234 203.445 80.9273C205.418 80.2312 207.68 79.8832 210.232 79.8832C212.553 79.8832 214.452 80.2312 215.932 80.9273C217.44 81.6234 218.194 82.5081 218.194 83.5812C218.194 84.6254 217.846 85.4375 217.15 86.0176C216.454 86.5687 215.54 86.8442 214.409 86.8442C213.307 86.8442 212.364 86.4961 211.581 85.8C210.798 85.1039 210.203 84.0888 209.797 82.7546C207.419 83.0156 205.548 83.5812 204.185 84.4513C202.851 85.2925 202.184 86.3221 202.184 87.5403C202.184 88.3814 202.619 89.063 203.489 89.5851C204.388 90.0782 205.824 90.6728 207.796 91.3689C209.652 92.007 211.146 92.6016 212.277 93.1526C213.437 93.7037 214.423 94.4578 215.236 95.415C216.077 96.3431 216.497 97.5178 216.497 98.939C216.497 100.476 216.033 101.868 215.105 103.116C214.177 104.334 212.828 105.291 211.059 105.987C209.319 106.712 207.274 107.075 204.925 107.075ZM246.654 86.1046C246.654 89.092 245.117 91.4414 242.043 93.1526C238.997 94.8349 234.647 95.7485 228.991 95.8936V96.7202C228.991 99.0405 229.426 100.868 230.296 102.202C231.166 103.507 232.355 104.16 233.863 104.16C235.749 104.16 237.286 103.565 238.475 102.376C239.664 101.187 240.317 99.6061 240.433 97.6338C242.782 97.6338 243.957 98.5039 243.957 100.244C243.957 101.404 243.493 102.521 242.565 103.594C241.637 104.638 240.36 105.479 238.736 106.118C237.141 106.756 235.372 107.075 233.428 107.075C230.354 107.075 227.947 106.132 226.206 104.247C224.466 102.362 223.596 99.7656 223.596 96.4591C223.596 93.3267 224.278 90.4987 225.641 87.9754C227.004 85.452 228.889 83.4797 231.297 82.0585C233.704 80.6083 236.387 79.8832 239.345 79.8832C241.637 79.8832 243.42 80.4342 244.697 81.5364C246.002 82.6386 246.654 84.1613 246.654 86.1046ZM238.606 82.6241C237.126 82.6241 235.734 83.1026 234.429 84.0598C233.153 84.9879 232.051 86.2786 231.123 87.9319C230.223 89.5561 229.6 91.3979 229.252 93.4572C233.254 93.3702 236.358 92.6741 238.562 91.3689C240.795 90.0637 241.912 88.2654 241.912 85.9741C241.912 84.9589 241.608 84.1468 240.999 83.5377C240.389 82.9286 239.592 82.6241 238.606 82.6241Z" fill="#B2B2B2"/>
</svg>
